{"glyphs":{"0":{"ha":847,"x_min":51,"x_max":796,"o":"m 796 354 q 747 161 796 244 q 613 33 697 78 q 429 -12 529 -12 q 239 32 325 -12 q 102 160 153 76 q 51 354 51 243 q 104 542 51 464 q 244 662 157 621 q 429 703 331 703 q 613 662 529 703 q 747 542 697 621 q 796 354 796 463 m 221 381 q 250 240 221 311 q 333 124 279 169 q 458 78 388 78 q 581 147 540 78 q 622 319 622 215 q 594 456 622 385 q 515 574 567 526 q 393 621 463 621 q 267 551 314 621 q 221 381 221 482 z "},"1":{"ha":550,"x_min":86,"x_max":464,"o":"m 360 204 q 368 122 360 150 q 397 83 376 94 q 456 71 417 72 q 464 -4 464 43 q 275 0 383 0 q 86 -4 161 0 q 94 71 86 40 q 153 86 133 75 q 182 124 174 97 q 190 203 190 151 l 190 493 q 182 572 190 546 q 154 610 174 599 q 94 624 135 621 q 86 699 86 657 q 275 694 153 694 q 464 699 397 694 q 456 624 464 657 q 397 610 417 621 q 368 572 376 599 q 360 493 360 546 l 360 204 z "},"2":{"ha":731,"x_min":75,"x_max":658,"o":"m 643 226 q 658 38 643 108 q 601 -3 642 -3 q 336 0 443 0 q 99 -3 204 0 q 75 81 75 28 q 297 279 174 172 q 407 399 378 350 q 436 501 436 447 q 408 592 436 560 q 326 625 381 625 q 247 585 275 625 q 207 439 219 544 q 113 453 154 439 q 117 539 117 489 q 110 636 117 603 q 371 703 213 703 q 549 660 485 703 q 613 526 613 617 q 597 447 613 482 q 546 377 581 413 q 443 288 511 342 q 290 157 369 229 l 454 157 q 520 162 500 157 q 549 183 540 167 q 560 236 557 199 q 643 226 614 236 z "},"3":{"ha":710,"x_min":58,"x_max":650,"o":"m 272 -237 q 148 -220 203 -237 q 58 -174 93 -203 q 88 -111 61 -137 q 253 -154 144 -154 q 358 -131 308 -154 q 439 -62 408 -107 q 469 43 469 -18 q 425 163 469 117 q 297 208 381 208 q 254 200 275 208 q 233 232 240 214 q 226 265 225 250 q 443 547 388 471 l 294 547 q 230 540 251 547 q 194 513 208 533 q 164 447 179 492 q 86 468 113 447 q 100 570 97 521 q 103 699 103 619 q 358 694 178 694 q 599 699 524 694 q 619 624 624 667 q 388 326 522 506 q 521 298 461 328 q 615 209 581 268 q 650 67 650 150 q 605 -89 650 -19 q 474 -198 560 -158 q 272 -237 388 -237 z "},"4":{"ha":838,"x_min":49,"x_max":783,"o":"m 783 124 q 756 0 756 64 l 625 0 l 625 -207 q 542 -217 589 -207 q 472 -237 496 -226 q 451 -178 451 -217 l 451 0 l 432 0 q 81 -10 246 0 q 49 88 49 40 l 519 703 q 625 690 574 706 l 625 147 l 729 147 q 761 142 749 147 q 783 124 774 136 m 451 147 l 451 492 l 214 146 l 451 147 z "},"5":{"ha":668,"x_min":69,"x_max":600,"o":"m 171 699 q 426 694 268 694 q 497 764 497 694 q 578 772 519 772 q 569 569 569 700 q 504 539 554 539 q 215 535 265 539 l 188 417 q 499 299 399 376 q 600 83 600 222 q 547 -90 600 -17 q 409 -200 493 -162 q 239 -237 325 -237 q 138 -226 182 -237 q 69 -197 94 -215 q 92 -135 69 -162 q 144 -149 108 -143 q 221 -154 179 -154 q 363 -100 306 -154 q 421 43 421 -46 q 337 194 421 138 q 117 271 253 251 q 86 331 89 293 l 171 699 z "},"6":{"ha":739,"x_min":49,"x_max":689,"o":"m 421 549 q 617 481 546 549 q 689 294 689 414 q 644 128 689 197 q 528 23 600 58 q 374 -12 456 -12 q 132 74 215 -12 q 49 333 49 160 q 133 648 49 526 q 340 825 217 769 q 588 886 463 881 q 603 824 604 864 q 353 713 442 790 q 238 493 265 635 q 328 535 285 522 q 421 549 372 549 m 383 71 q 485 122 450 71 q 519 247 519 174 q 493 367 519 321 q 427 435 467 414 q 344 457 388 457 q 228 425 285 457 q 224 338 224 383 q 249 184 224 244 q 310 97 274 124 q 383 71 347 71 z "},"7":{"ha":668,"x_min":54,"x_max":618,"o":"m 203 -244 q 172 -220 182 -237 q 161 -168 161 -203 q 236 124 161 -39 q 465 538 311 288 l 285 538 q 215 530 239 538 q 175 501 190 522 q 147 438 160 481 q 54 456 92 436 q 79 699 76 551 q 332 694 149 694 q 594 699 500 694 q 618 626 618 668 q 517 466 567 551 q 435 313 467 381 q 364 104 382 200 q 346 -161 346 8 q 203 -244 260 -192 z "},"8":{"ha":738,"x_min":67,"x_max":669,"o":"m 483 496 q 624 372 578 435 q 669 225 669 310 q 589 50 669 113 q 364 -12 508 -12 q 145 45 224 -12 q 67 204 67 103 q 111 347 67 286 q 249 460 156 408 q 138 558 175 508 q 100 672 100 607 q 171 827 100 769 q 368 885 242 885 q 565 835 492 885 q 638 697 638 785 q 483 496 638 574 m 268 708 q 298 624 268 658 q 400 547 328 589 l 413 540 q 463 601 447 568 q 478 681 478 633 q 448 778 478 742 q 368 814 418 814 q 295 785 322 814 q 268 708 268 757 m 381 63 q 468 96 436 63 q 500 186 500 129 q 456 306 500 253 q 319 415 411 358 q 251 335 271 376 q 232 226 232 293 q 272 106 232 150 q 381 63 313 63 z "},"9":{"ha":750,"x_min":51,"x_max":703,"o":"m 378 703 q 622 614 540 703 q 703 343 703 525 q 610 39 703 165 q 386 -156 518 -87 q 132 -236 254 -224 q 115 -169 113 -211 q 380 -28 282 -115 q 513 181 478 58 q 336 129 432 129 q 190 163 256 129 q 88 256 125 196 q 51 393 51 317 q 97 565 51 496 q 216 669 142 635 q 378 703 290 703 m 415 224 q 528 257 478 224 q 532 328 532 290 q 487 551 532 478 q 363 624 442 624 q 263 571 301 624 q 224 439 224 518 q 281 274 224 325 q 415 224 339 224 z "},"\r":{"ha":278,"x_min":0,"x_max":0,"o":""}," ":{"ha":278,"x_min":0,"x_max":0,"o":""},"A":{"ha":983,"x_min":28,"x_max":956,"o":"m 946 71 q 956 -4 956 38 q 778 0 901 0 q 593 -4 647 0 q 603 71 593 43 q 654 86 639 76 q 669 115 669 96 q 651 179 669 139 l 607 282 q 254 274 424 282 l 229 207 q 213 133 213 164 q 229 89 213 104 q 281 71 246 74 q 290 -4 290 42 q 149 0 243 0 q 28 -4 107 0 q 39 71 28 39 q 95 105 75 76 q 150 217 115 133 l 440 940 q 511 947 469 947 l 835 215 q 878 126 861 156 q 909 86 894 97 q 946 71 924 75 m 576 353 l 488 558 q 424 725 449 644 q 365 560 397 638 l 286 353 l 576 353 z "},"Á":{"ha":983,"x_min":28,"x_max":956,"o":"m 946 71 q 956 -4 956 38 q 778 0 901 0 q 593 -4 647 0 q 603 71 593 43 q 654 86 639 76 q 669 115 669 96 q 651 179 669 139 l 607 282 q 254 274 424 282 l 229 207 q 213 133 213 164 q 229 89 213 104 q 281 71 246 74 q 290 -4 290 42 q 149 0 243 0 q 28 -4 107 0 q 39 71 28 39 q 95 105 75 76 q 150 217 115 133 l 440 940 q 511 947 469 947 l 835 215 q 878 126 861 156 q 909 86 894 97 q 946 71 924 75 m 576 353 l 488 558 q 424 725 449 644 q 365 560 397 638 l 286 353 l 576 353 m 496 1018 q 413 1031 444 1018 q 493 1210 463 1122 q 579 1221 538 1221 q 654 1211 625 1221 q 496 1018 563 1106 z "},"Ă":{"ha":983,"x_min":28,"x_max":956,"o":"m 946 71 q 956 -4 956 38 q 778 0 901 0 q 593 -4 647 0 q 603 71 593 43 q 654 86 639 76 q 669 115 669 96 q 651 179 669 139 l 607 282 q 254 274 424 282 l 229 207 q 213 133 213 164 q 229 89 213 104 q 281 71 246 74 q 290 -4 290 42 q 149 0 243 0 q 28 -4 107 0 q 39 71 28 39 q 95 105 75 76 q 150 217 115 133 l 440 940 q 511 947 469 947 l 835 215 q 878 126 861 156 q 909 86 894 97 q 946 71 924 75 m 576 353 l 488 558 q 424 725 449 644 q 365 560 397 638 l 286 353 l 576 353 m 697 1203 q 640 1058 697 1108 q 474 1008 582 1008 q 310 1056 367 1008 q 254 1197 254 1104 q 343 1211 292 1215 q 389 1140 350 1165 q 488 1115 428 1115 q 582 1140 546 1115 q 621 1211 618 1165 q 643 1213 628 1213 q 697 1203 671 1213 z "},"Ắ":{"ha":983,"x_min":28,"x_max":956,"o":"m 946 71 q 956 -4 956 38 q 778 0 901 0 q 593 -4 647 0 q 603 71 593 43 q 654 86 639 76 q 669 115 669 96 q 651 179 669 139 l 607 282 q 254 274 424 282 l 229 207 q 213 133 213 164 q 229 89 213 104 q 281 71 246 74 q 290 -4 290 42 q 149 0 243 0 q 28 -4 107 0 q 39 71 28 39 q 95 105 75 76 q 150 217 115 133 l 440 940 q 511 947 469 947 l 835 215 q 878 126 861 156 q 909 86 894 97 q 946 71 924 75 m 576 353 l 488 558 q 424 725 449 644 q 365 560 397 638 l 286 353 l 576 353 z "},"Ặ":{"ha":983,"x_min":28,"x_max":956,"o":"m 946 71 q 956 -4 956 38 q 778 0 901 0 q 593 -4 647 0 q 603 71 593 43 q 654 86 639 76 q 669 115 669 96 q 651 179 669 139 l 607 282 q 254 274 424 282 l 229 207 q 213 133 213 164 q 229 89 213 104 q 281 71 246 74 q 290 -4 290 42 q 149 0 243 0 q 28 -4 107 0 q 39 71 28 39 q 95 105 75 76 q 150 217 115 133 l 440 940 q 511 947 469 947 l 835 215 q 878 126 861 156 q 909 86 894 97 q 946 71 924 75 m 576 353 l 488 558 q 424 725 449 644 q 365 560 397 638 l 286 353 l 576 353 m 438 -303 q 365 -277 393 -303 q 336 -212 336 -251 q 366 -142 336 -169 q 440 -115 396 -115 q 517 -141 489 -115 q 546 -211 546 -167 q 515 -276 546 -250 q 438 -303 485 -303 m 697 1203 q 640 1058 697 1108 q 474 1008 582 1008 q 310 1056 367 1008 q 254 1197 254 1104 q 343 1211 292 1215 q 389 1140 350 1165 q 488 1115 428 1115 q 582 1140 546 1115 q 621 1211 618 1165 q 643 1213 628 1213 q 697 1203 671 1213 z "},"Ằ":{"ha":983,"x_min":28,"x_max":956,"o":"m 946 71 q 956 -4 956 38 q 778 0 901 0 q 593 -4 647 0 q 603 71 593 43 q 654 86 639 76 q 669 115 669 96 q 651 179 669 139 l 607 282 q 254 274 424 282 l 229 207 q 213 133 213 164 q 229 89 213 104 q 281 71 246 74 q 290 -4 290 42 q 149 0 243 0 q 28 -4 107 0 q 39 71 28 39 q 95 105 75 76 q 150 217 115 133 l 440 940 q 511 947 469 947 l 835 215 q 878 126 861 156 q 909 86 894 97 q 946 71 924 75 m 576 353 l 488 558 q 424 725 449 644 q 365 560 397 638 l 286 353 l 576 353 z "},"Ẳ":{"ha":983,"x_min":28,"x_max":956,"o":"m 946 71 q 956 -4 956 38 q 778 0 901 0 q 593 -4 647 0 q 603 71 593 43 q 654 86 639 76 q 669 115 669 96 q 651 179 669 139 l 607 282 q 254 274 424 282 l 229 207 q 213 133 213 164 q 229 89 213 104 q 281 71 246 74 q 290 -4 290 42 q 149 0 243 0 q 28 -4 107 0 q 39 71 28 39 q 95 105 75 76 q 150 217 115 133 l 440 940 q 511 947 469 947 l 835 215 q 878 126 861 156 q 909 86 894 97 q 946 71 924 75 m 576 353 l 488 558 q 424 725 449 644 q 365 560 397 638 l 286 353 l 576 353 z "},"Ẵ":{"ha":983,"x_min":28,"x_max":956,"o":"m 946 71 q 956 -4 956 38 q 778 0 901 0 q 593 -4 647 0 q 603 71 593 43 q 654 86 639 76 q 669 115 669 96 q 651 179 669 139 l 607 282 q 254 274 424 282 l 229 207 q 213 133 213 164 q 229 89 213 104 q 281 71 246 74 q 290 -4 290 42 q 149 0 243 0 q 28 -4 107 0 q 39 71 28 39 q 95 105 75 76 q 150 217 115 133 l 440 940 q 511 947 469 947 l 835 215 q 878 126 861 156 q 909 86 894 97 q 946 71 924 75 m 576 353 l 488 558 q 424 725 449 644 q 365 560 397 638 l 286 353 l 576 353 m 697 1203 q 640 1058 697 1108 q 474 1008 582 1008 q 310 1056 367 1008 q 254 1197 254 1104 q 343 1211 292 1215 q 389 1140 350 1165 q 488 1115 428 1115 q 582 1140 546 1115 q 621 1211 618 1165 q 643 1213 628 1213 q 697 1203 671 1213 m 550 1257 q 501 1264 522 1257 q 447 1286 481 1271 q 400 1305 418 1299 q 360 1311 382 1311 q 258 1260 306 1311 q 229 1324 231 1285 q 310 1396 265 1374 q 399 1418 354 1418 q 451 1410 428 1418 q 506 1389 474 1403 q 550 1371 532 1376 q 586 1365 568 1365 q 667 1408 631 1365 q 721 1379 701 1403 q 550 1257 656 1257 z "},"Ǎ":{"ha":983,"x_min":28,"x_max":956,"o":"m 946 71 q 956 -4 956 38 q 778 0 901 0 q 593 -4 647 0 q 603 71 593 43 q 654 86 639 76 q 669 115 669 96 q 651 179 669 139 l 607 282 q 254 274 424 282 l 229 207 q 213 133 213 164 q 229 89 213 104 q 281 71 246 74 q 290 -4 290 42 q 149 0 243 0 q 28 -4 107 0 q 39 71 28 39 q 95 105 75 76 q 150 217 115 133 l 440 940 q 511 947 469 947 l 835 215 q 878 126 861 156 q 909 86 894 97 q 946 71 924 75 m 576 353 l 488 558 q 424 725 449 644 q 365 560 397 638 l 286 353 l 576 353 m 426 1013 q 239 1181 350 1096 q 313 1226 267 1217 q 479 1136 428 1158 q 571 1182 518 1154 q 653 1228 624 1210 q 683 1207 671 1224 q 699 1172 694 1190 q 499 1021 575 1093 q 426 1013 472 1013 z "},"Â":{"ha":983,"x_min":28,"x_max":956,"o":"m 946 71 q 956 -4 956 38 q 778 0 901 0 q 593 -4 647 0 q 603 71 593 43 q 654 86 639 76 q 669 115 669 96 q 651 179 669 139 l 607 282 q 254 274 424 282 l 229 207 q 213 133 213 164 q 229 89 213 104 q 281 71 246 74 q 290 -4 290 42 q 149 0 243 0 q 28 -4 107 0 q 39 71 28 39 q 95 105 75 76 q 150 217 115 133 l 440 940 q 511 947 469 947 l 835 215 q 878 126 861 156 q 909 86 894 97 q 946 71 924 75 m 576 353 l 488 558 q 424 725 449 644 q 365 560 397 638 l 286 353 l 576 353 m 289 1011 q 260 1033 272 1015 q 244 1067 249 1050 q 444 1218 368 1146 q 517 1226 471 1226 q 704 1060 594 1142 q 629 1013 678 1024 q 463 1103 522 1076 q 289 1011 342 1044 z "},"Ấ":{"ha":983,"x_min":28,"x_max":956,"o":"m 946 71 q 956 -4 956 38 q 778 0 901 0 q 593 -4 647 0 q 603 71 593 43 q 654 86 639 76 q 669 115 669 96 q 651 179 669 139 l 607 282 q 254 274 424 282 l 229 207 q 213 133 213 164 q 229 89 213 104 q 281 71 246 74 q 290 -4 290 42 q 149 0 243 0 q 28 -4 107 0 q 39 71 28 39 q 95 105 75 76 q 150 217 115 133 l 440 940 q 511 947 469 947 l 835 215 q 878 126 861 156 q 909 86 894 97 q 946 71 924 75 m 576 353 l 488 558 q 424 725 449 644 q 365 560 397 638 l 286 353 l 576 353 m 700 1189 q 624 1200 653 1189 q 697 1367 669 1286 q 778 1376 735 1376 q 847 1368 818 1376 q 700 1189 771 1279 m 289 1011 q 260 1033 272 1015 q 244 1067 249 1050 q 444 1218 368 1146 q 517 1226 471 1226 q 704 1060 594 1142 q 629 1013 678 1024 q 463 1103 522 1076 q 289 1011 342 1044 z "},"Ậ":{"ha":983,"x_min":28,"x_max":956,"o":"m 946 71 q 956 -4 956 38 q 778 0 901 0 q 593 -4 647 0 q 603 71 593 43 q 654 86 639 76 q 669 115 669 96 q 651 179 669 139 l 607 282 q 254 274 424 282 l 229 207 q 213 133 213 164 q 229 89 213 104 q 281 71 246 74 q 290 -4 290 42 q 149 0 243 0 q 28 -4 107 0 q 39 71 28 39 q 95 105 75 76 q 150 217 115 133 l 440 940 q 511 947 469 947 l 835 215 q 878 126 861 156 q 909 86 894 97 q 946 71 924 75 m 576 353 l 488 558 q 424 725 449 644 q 365 560 397 638 l 286 353 l 576 353 m 438 -303 q 365 -277 393 -303 q 336 -212 336 -251 q 366 -142 336 -169 q 440 -115 396 -115 q 517 -141 489 -115 q 546 -211 546 -167 q 515 -276 546 -250 q 438 -303 485 -303 m 289 1011 q 260 1033 272 1015 q 244 1067 249 1050 q 444 1218 368 1146 q 517 1226 471 1226 q 704 1060 594 1142 q 629 1013 678 1024 q 463 1103 522 1076 q 289 1011 342 1044 z "},"Ầ":{"ha":983,"x_min":28,"x_max":956,"o":"m 946 71 q 956 -4 956 38 q 778 0 901 0 q 593 -4 647 0 q 603 71 593 43 q 654 86 639 76 q 669 115 669 96 q 651 179 669 139 l 607 282 q 254 274 424 282 l 229 207 q 213 133 213 164 q 229 89 213 104 q 281 71 246 74 q 290 -4 290 42 q 149 0 243 0 q 28 -4 107 0 q 39 71 28 39 q 95 105 75 76 q 150 217 115 133 l 440 940 q 511 947 469 947 l 835 215 q 878 126 861 156 q 909 86 894 97 q 946 71 924 75 m 576 353 l 488 558 q 424 725 449 644 q 365 560 397 638 l 286 353 l 576 353 z "},"Ẩ":{"ha":983,"x_min":28,"x_max":956,"o":"m 946 71 q 956 -4 956 38 q 778 0 901 0 q 593 -4 647 0 q 603 71 593 43 q 654 86 639 76 q 669 115 669 96 q 651 179 669 139 l 607 282 q 254 274 424 282 l 229 207 q 213 133 213 164 q 229 89 213 104 q 281 71 246 74 q 290 -4 290 42 q 149 0 243 0 q 28 -4 107 0 q 39 71 28 39 q 95 105 75 76 q 150 217 115 133 l 440 940 q 511 947 469 947 l 835 215 q 878 126 861 156 q 909 86 894 97 q 946 71 924 75 m 576 353 l 488 558 q 424 725 449 644 q 365 560 397 638 l 286 353 l 576 353 z "},"Ẫ":{"ha":983,"x_min":28,"x_max":956,"o":"m 946 71 q 956 -4 956 38 q 778 0 901 0 q 593 -4 647 0 q 603 71 593 43 q 654 86 639 76 q 669 115 669 96 q 651 179 669 139 l 607 282 q 254 274 424 282 l 229 207 q 213 133 213 164 q 229 89 213 104 q 281 71 246 74 q 290 -4 290 42 q 149 0 243 0 q 28 -4 107 0 q 39 71 28 39 q 95 105 75 76 q 150 217 115 133 l 440 940 q 511 947 469 947 l 835 215 q 878 126 861 156 q 909 86 894 97 q 946 71 924 75 m 576 353 l 488 558 q 424 725 449 644 q 365 560 397 638 l 286 353 l 576 353 z "},"Ȁ":{"ha":983,"x_min":28,"x_max":956,"o":"m 946 71 q 956 -4 956 38 q 778 0 901 0 q 593 -4 647 0 q 603 71 593 43 q 654 86 639 76 q 669 115 669 96 q 651 179 669 139 l 607 282 q 254 274 424 282 l 229 207 q 213 133 213 164 q 229 89 213 104 q 281 71 246 74 q 290 -4 290 42 q 149 0 243 0 q 28 -4 107 0 q 39 71 28 39 q 95 105 75 76 q 150 217 115 133 l 440 940 q 511 947 469 947 l 835 215 q 878 126 861 156 q 909 86 894 97 q 946 71 924 75 m 576 353 l 488 558 q 424 725 449 644 q 365 560 397 638 l 286 353 l 576 353 m 338 1000 q 183 1174 257 1103 q 251 1194 211 1188 q 332 1197 292 1200 q 421 1013 371 1096 q 338 1000 389 1000 m 568 1000 q 418 1176 493 1100 q 564 1197 472 1203 q 651 1013 606 1089 q 568 1000 619 1000 z "},"Ä":{"ha":983,"x_min":28,"x_max":956,"o":"m 946 71 q 956 -4 956 38 q 778 0 901 0 q 593 -4 647 0 q 603 71 593 43 q 654 86 639 76 q 669 115 669 96 q 651 179 669 139 l 607 282 q 254 274 424 282 l 229 207 q 213 133 213 164 q 229 89 213 104 q 281 71 246 74 q 290 -4 290 42 q 149 0 243 0 q 28 -4 107 0 q 39 71 28 39 q 95 105 75 76 q 150 217 115 133 l 440 940 q 511 947 469 947 l 835 215 q 878 126 861 156 q 909 86 894 97 q 946 71 924 75 m 576 353 l 488 558 q 424 725 449 644 q 365 560 397 638 l 286 353 l 576 353 z "},"Ạ":{"ha":983,"x_min":28,"x_max":956,"o":"m 946 71 q 956 -4 956 38 q 778 0 901 0 q 593 -4 647 0 q 603 71 593 43 q 654 86 639 76 q 669 115 669 96 q 651 179 669 139 l 607 282 q 254 274 424 282 l 229 207 q 213 133 213 164 q 229 89 213 104 q 281 71 246 74 q 290 -4 290 42 q 149 0 243 0 q 28 -4 107 0 q 39 71 28 39 q 95 105 75 76 q 150 217 115 133 l 440 940 q 511 947 469 947 l 835 215 q 878 126 861 156 q 909 86 894 97 q 946 71 924 75 m 576 353 l 488 558 q 424 725 449 644 q 365 560 397 638 l 286 353 l 576 353 m 438 -303 q 365 -277 393 -303 q 336 -212 336 -251 q 366 -142 336 -169 q 440 -115 396 -115 q 517 -141 489 -115 q 546 -211 546 -167 q 515 -276 546 -250 q 438 -303 485 -303 z "},"À":{"ha":983,"x_min":28,"x_max":956,"o":"m 946 71 q 956 -4 956 38 q 778 0 901 0 q 593 -4 647 0 q 603 71 593 43 q 654 86 639 76 q 669 115 669 96 q 651 179 669 139 l 607 282 q 254 274 424 282 l 229 207 q 213 133 213 164 q 229 89 213 104 q 281 71 246 74 q 290 -4 290 42 q 149 0 243 0 q 28 -4 107 0 q 39 71 28 39 q 95 105 75 76 q 150 217 115 133 l 440 940 q 511 947 469 947 l 835 215 q 878 126 861 156 q 909 86 894 97 q 946 71 924 75 m 576 353 l 488 558 q 424 725 449 644 q 365 560 397 638 l 286 353 l 576 353 m 451 1018 q 301 1193 376 1118 q 450 1215 356 1221 q 539 1031 489 1114 q 451 1018 508 1018 z "},"Ả":{"ha":983,"x_min":28,"x_max":956,"o":"m 946 71 q 956 -4 956 38 q 778 0 901 0 q 593 -4 647 0 q 603 71 593 43 q 654 86 639 76 q 669 115 669 96 q 651 179 669 139 l 607 282 q 254 274 424 282 l 229 207 q 213 133 213 164 q 229 89 213 104 q 281 71 246 74 q 290 -4 290 42 q 149 0 243 0 q 28 -4 107 0 q 39 71 28 39 q 95 105 75 76 q 150 217 115 133 l 440 940 q 511 947 469 947 l 835 215 q 878 126 861 156 q 909 86 894 97 q 946 71 924 75 m 576 353 l 488 558 q 424 725 449 644 q 365 560 397 638 l 286 353 l 576 353 m 444 1004 q 429 1046 429 1024 q 441 1082 429 1068 q 475 1111 453 1096 q 502 1135 493 1125 q 511 1160 511 1146 q 501 1181 511 1174 q 474 1189 490 1189 q 432 1169 447 1189 q 411 1103 417 1150 q 336 1118 363 1103 q 340 1164 340 1143 q 336 1201 340 1183 q 483 1244 399 1244 q 581 1224 546 1244 q 615 1161 615 1203 q 599 1114 615 1132 q 551 1075 582 1096 q 522 1053 531 1061 q 513 1032 513 1044 q 515 1013 513 1024 q 444 1004 488 1001 z "},"Ȃ":{"ha":983,"x_min":28,"x_max":956,"o":"m 946 71 q 956 -4 956 38 q 778 0 901 0 q 593 -4 647 0 q 603 71 593 43 q 654 86 639 76 q 669 115 669 96 q 651 179 669 139 l 607 282 q 254 274 424 282 l 229 207 q 213 133 213 164 q 229 89 213 104 q 281 71 246 74 q 290 -4 290 42 q 149 0 243 0 q 28 -4 107 0 q 39 71 28 39 q 95 105 75 76 q 150 217 115 133 l 440 940 q 511 947 469 947 l 835 215 q 878 126 861 156 q 909 86 894 97 q 946 71 924 75 m 576 353 l 488 558 q 424 725 449 644 q 365 560 397 638 l 286 353 l 576 353 m 254 1017 q 312 1163 254 1113 q 478 1213 369 1213 q 641 1164 585 1213 q 697 1022 697 1115 q 629 1008 665 1008 q 608 1010 615 1008 q 562 1081 600 1056 q 464 1106 524 1106 q 368 1081 404 1106 q 331 1010 332 1056 q 307 1008 322 1008 q 254 1017 275 1008 z "},"Ā":{"ha":983,"x_min":28,"x_max":956,"o":"m 946 71 q 956 -4 956 38 q 778 0 901 0 q 593 -4 647 0 q 603 71 593 43 q 654 86 639 76 q 669 115 669 96 q 651 179 669 139 l 607 282 q 254 274 424 282 l 229 207 q 213 133 213 164 q 229 89 213 104 q 281 71 246 74 q 290 -4 290 42 q 149 0 243 0 q 28 -4 107 0 q 39 71 28 39 q 95 105 75 76 q 150 217 115 133 l 440 940 q 511 947 469 947 l 835 215 q 878 126 861 156 q 909 86 894 97 q 946 71 924 75 m 576 353 l 488 558 q 424 725 449 644 q 365 560 397 638 l 286 353 l 576 353 m 735 1128 q 722 1058 735 1090 q 217 1050 476 1058 q 220 1090 217 1067 q 229 1128 224 1114 l 735 1128 z "},"Ą":{"ha":983,"x_min":28,"x_max":956,"o":"m 799 -210 q 853 -201 831 -210 q 865 -235 861 -214 q 868 -276 869 -256 q 738 -343 792 -301 q 710 -346 728 -346 q 643 -332 678 -346 q 583 -286 608 -318 q 558 -204 558 -254 q 599 -93 558 -143 q 729 0 640 -43 l 593 -4 q 603 71 593 43 q 654 86 639 76 q 669 115 669 96 q 651 179 669 139 l 607 282 q 254 274 424 282 l 229 207 q 213 133 213 164 q 229 89 213 104 q 281 71 246 74 q 290 -4 290 42 q 149 0 243 0 q 28 -4 107 0 q 39 71 28 39 q 95 105 75 76 q 150 217 115 133 l 440 940 q 511 947 469 947 l 835 215 q 878 126 861 156 q 909 86 894 97 q 946 71 924 75 q 956 -4 956 38 l 846 0 q 740 -62 775 -24 q 706 -140 706 -100 q 730 -191 706 -172 q 799 -210 754 -210 m 576 353 l 488 558 q 424 725 449 644 q 365 560 397 638 l 286 353 l 576 353 z "},"Å":{"ha":983,"x_min":28,"x_max":956,"o":"m 946 71 q 956 -4 956 38 q 778 0 901 0 q 593 -4 647 0 q 603 71 593 43 q 654 86 639 76 q 669 115 669 96 q 651 179 669 139 l 607 282 q 254 274 424 282 l 229 207 q 213 133 213 164 q 229 89 213 104 q 281 71 246 74 q 290 -4 290 42 q 149 0 243 0 q 28 -4 107 0 q 39 71 28 39 q 95 105 75 76 q 150 217 115 133 l 440 940 q 511 947 469 947 l 835 215 q 878 126 861 156 q 909 86 894 97 q 946 71 924 75 m 576 353 l 488 558 q 424 725 449 644 q 365 560 397 638 l 286 353 l 576 353 m 469 1000 q 369 1030 410 1000 q 328 1110 328 1060 q 372 1194 328 1161 q 481 1226 415 1226 q 583 1199 542 1226 q 624 1118 624 1171 q 581 1033 624 1067 q 469 1000 538 1000 m 482 1050 q 518 1066 503 1050 q 533 1107 533 1082 q 517 1158 533 1135 q 471 1182 500 1182 q 433 1164 447 1182 q 419 1115 419 1146 q 436 1068 419 1086 q 482 1050 453 1050 z "},"Ǻ":{"ha":983,"x_min":28,"x_max":956,"o":"m 946 71 q 956 -4 956 38 q 778 0 901 0 q 593 -4 647 0 q 603 71 593 43 q 654 86 639 76 q 669 115 669 96 q 651 179 669 139 l 607 282 q 254 274 424 282 l 229 207 q 213 133 213 164 q 229 89 213 104 q 281 71 246 74 q 290 -4 290 42 q 149 0 243 0 q 28 -4 107 0 q 39 71 28 39 q 95 105 75 76 q 150 217 115 133 l 440 940 q 511 947 469 947 l 835 215 q 878 126 861 156 q 909 86 894 97 q 946 71 924 75 m 576 353 l 488 558 q 424 725 449 644 q 365 560 397 638 l 286 353 l 576 353 m 469 1000 q 369 1030 410 1000 q 328 1110 328 1060 q 372 1194 328 1161 q 481 1226 415 1226 q 583 1199 542 1226 q 624 1118 624 1171 q 581 1033 624 1067 q 469 1000 538 1000 m 482 1050 q 518 1066 503 1050 q 533 1107 533 1082 q 517 1158 533 1135 q 471 1182 500 1182 q 433 1164 447 1182 q 419 1115 419 1146 q 436 1068 419 1086 q 482 1050 453 1050 m 496 1306 q 413 1318 444 1306 q 493 1497 463 1410 q 579 1508 538 1508 q 654 1499 625 1508 q 496 1306 563 1393 z "},"Ã":{"ha":983,"x_min":28,"x_max":956,"o":"m 946 71 q 956 -4 956 38 q 778 0 901 0 q 593 -4 647 0 q 603 71 593 43 q 654 86 639 76 q 669 115 669 96 q 651 179 669 139 l 607 282 q 254 274 424 282 l 229 207 q 213 133 213 164 q 229 89 213 104 q 281 71 246 74 q 290 -4 290 42 q 149 0 243 0 q 28 -4 107 0 q 39 71 28 39 q 95 105 75 76 q 150 217 115 133 l 440 940 q 511 947 469 947 l 835 215 q 878 126 861 156 q 909 86 894 97 q 946 71 924 75 m 576 353 l 488 558 q 424 725 449 644 q 365 560 397 638 l 286 353 l 576 353 m 550 1033 q 501 1040 522 1033 q 447 1063 481 1047 q 400 1081 418 1075 q 360 1088 382 1088 q 258 1036 306 1088 q 229 1100 231 1061 q 310 1172 265 1150 q 399 1194 354 1194 q 451 1187 428 1194 q 506 1165 474 1179 q 550 1147 532 1153 q 586 1142 568 1142 q 667 1185 631 1142 q 721 1156 701 1179 q 550 1033 656 1033 z "},"Æ":{"ha":1306,"x_min":28,"x_max":1260,"o":"m 1260 218 q 1217 -3 1232 135 q 854 0 1042 0 q 539 -3 678 0 q 550 71 539 44 q 607 87 589 75 q 632 127 625 99 q 639 214 639 156 l 639 407 q 385 396 483 406 q 286 222 342 322 q 251 125 251 158 q 267 88 251 100 q 315 69 283 75 q 326 -4 326 43 q 175 0 263 0 q 28 -4 69 0 q 39 71 28 44 q 108 102 79 75 q 185 211 138 129 l 500 756 q 522 819 522 794 q 504 851 522 840 q 446 867 486 863 q 438 901 440 879 q 435 942 435 922 q 678 939 579 939 l 769 939 q 1182 942 1010 939 q 1192 824 1183 889 q 1211 715 1200 760 q 1174 701 1199 706 q 1124 696 1149 696 q 1067 822 1114 775 q 907 868 1021 868 l 818 868 l 818 479 l 871 479 q 971 503 944 479 q 997 588 997 528 q 1083 600 1042 600 q 1079 443 1079 550 q 1083 282 1079 332 q 1001 290 1024 282 q 987 358 997 333 q 947 396 976 383 q 863 408 918 408 l 818 408 l 818 215 q 828 126 818 156 q 860 86 839 96 q 918 76 881 76 l 950 76 q 1063 94 1022 76 q 1126 149 1103 113 q 1174 256 1149 185 q 1260 218 1238 240 m 639 479 l 639 750 q 644 857 639 807 q 593 758 628 821 l 504 603 l 432 479 l 639 479 z "},"Ǽ":{"ha":1306,"x_min":28,"x_max":1260,"o":"m 1260 218 q 1217 -3 1232 135 q 854 0 1042 0 q 539 -3 678 0 q 550 71 539 44 q 607 87 589 75 q 632 127 625 99 q 639 214 639 156 l 639 407 q 385 396 483 406 q 286 222 342 322 q 251 125 251 158 q 267 88 251 100 q 315 69 283 75 q 326 -4 326 43 q 175 0 263 0 q 28 -4 69 0 q 39 71 28 44 q 108 102 79 75 q 185 211 138 129 l 500 756 q 522 819 522 794 q 504 851 522 840 q 446 867 486 863 q 438 901 440 879 q 435 942 435 922 q 678 939 579 939 l 769 939 q 1182 942 1010 939 q 1192 824 1183 889 q 1211 715 1200 760 q 1174 701 1199 706 q 1124 696 1149 696 q 1067 822 1114 775 q 907 868 1021 868 l 818 868 l 818 479 l 871 479 q 971 503 944 479 q 997 588 997 528 q 1083 600 1042 600 q 1079 443 1079 550 q 1083 282 1079 332 q 1001 290 1024 282 q 987 358 997 333 q 947 396 976 383 q 863 408 918 408 l 818 408 l 818 215 q 828 126 818 156 q 860 86 839 96 q 918 76 881 76 l 950 76 q 1063 94 1022 76 q 1126 149 1103 113 q 1174 256 1149 185 q 1260 218 1238 240 m 639 479 l 639 750 q 644 857 639 807 q 593 758 628 821 l 504 603 l 432 479 l 639 479 m 753 1018 q 669 1031 701 1018 q 750 1210 719 1122 q 836 1221 794 1221 q 911 1211 882 1221 q 753 1018 819 1106 z "},"B":{"ha":906,"x_min":67,"x_max":840,"o":"m 568 511 q 840 272 840 494 q 751 74 840 149 q 474 0 661 0 q 67 -4 207 0 q 75 71 67 49 q 133 85 114 74 q 161 126 153 97 q 169 214 169 156 l 169 736 q 161 815 169 789 q 133 853 153 842 q 75 868 114 864 q 67 943 67 897 q 214 939 122 939 q 331 940 289 939 l 450 942 q 694 894 613 942 q 776 735 776 847 q 721 586 776 647 q 568 511 665 525 m 590 694 q 536 824 590 782 q 407 865 482 865 q 347 857 378 865 l 347 525 l 393 525 q 590 694 590 525 m 467 74 q 597 121 551 74 q 642 254 642 168 q 381 451 642 451 l 347 451 l 347 210 q 358 123 347 151 q 394 84 369 94 q 467 74 419 74 z "},"C":{"ha":899,"x_min":49,"x_max":843,"o":"m 501 -12 q 267 49 369 -12 q 106 222 164 111 q 49 475 49 333 q 114 735 49 628 q 286 897 179 843 q 517 951 393 951 q 673 933 599 951 q 825 879 747 915 q 810 664 810 807 q 715 649 775 649 q 664 827 711 776 q 526 878 617 878 q 310 773 381 878 q 239 513 239 668 q 277 294 239 390 q 390 143 315 199 q 568 88 464 88 q 693 107 629 88 q 813 161 757 126 q 832 136 824 151 q 843 107 840 121 q 686 17 767 47 q 501 -12 606 -12 z "},"Ć":{"ha":899,"x_min":49,"x_max":843,"o":"m 501 -12 q 267 49 369 -12 q 106 222 164 111 q 49 475 49 333 q 114 735 49 628 q 286 897 179 843 q 517 951 393 951 q 673 933 599 951 q 825 879 747 915 q 810 664 810 807 q 715 649 775 649 q 664 827 711 776 q 526 878 617 878 q 310 773 381 878 q 239 513 239 668 q 277 294 239 390 q 390 143 315 199 q 568 88 464 88 q 693 107 629 88 q 813 161 757 126 q 832 136 824 151 q 843 107 840 121 q 686 17 767 47 q 501 -12 606 -12 m 540 1018 q 457 1031 489 1018 q 538 1210 507 1122 q 624 1221 582 1221 q 699 1211 669 1221 q 540 1018 607 1106 z "},"Č":{"ha":899,"x_min":49,"x_max":843,"o":"m 501 -12 q 267 49 369 -12 q 106 222 164 111 q 49 475 49 333 q 114 735 49 628 q 286 897 179 843 q 517 951 393 951 q 673 933 599 951 q 825 879 747 915 q 810 664 810 807 q 715 649 775 649 q 664 827 711 776 q 526 878 617 878 q 310 773 381 878 q 239 513 239 668 q 277 294 239 390 q 390 143 315 199 q 568 88 464 88 q 693 107 629 88 q 813 161 757 126 q 832 136 824 151 q 843 107 840 121 q 686 17 767 47 q 501 -12 606 -12 m 471 1013 q 283 1181 394 1096 q 357 1226 311 1217 q 524 1136 472 1158 q 615 1182 563 1154 q 697 1228 668 1210 q 727 1207 715 1224 q 743 1172 739 1190 q 543 1021 619 1093 q 471 1013 517 1013 z "},"Ç":{"ha":899,"x_min":49,"x_max":843,"o":"m 492 -67 q 581 -111 547 -76 q 614 -194 614 -146 q 554 -298 614 -260 q 414 -336 494 -336 q 403 -283 403 -315 q 480 -264 447 -283 q 513 -211 513 -244 q 488 -163 513 -182 q 425 -144 463 -144 q 400 -87 400 -119 l 454 -10 q 242 65 335 1 q 99 235 150 129 q 49 475 49 342 q 114 735 49 628 q 286 897 179 843 q 517 951 393 951 q 673 933 599 951 q 825 879 747 915 q 810 664 810 807 q 715 649 775 649 q 664 827 711 776 q 526 878 617 878 q 310 773 381 878 q 239 513 239 668 q 277 294 239 390 q 390 143 315 199 q 568 88 464 88 q 693 107 629 88 q 813 161 757 126 q 832 136 824 151 q 843 107 840 121 q 699 23 774 53 q 532 -12 624 -7 l 492 -67 z "},"Ḉ":{"ha":899,"x_min":49,"x_max":843,"o":"m 699 1211 q 540 1018 607 1106 q 457 1031 489 1018 q 538 1210 507 1122 q 625 1221 582 1221 q 699 1211 669 1221 m 492 -67 q 581 -111 547 -76 q 614 -194 614 -146 q 554 -298 614 -260 q 414 -336 494 -336 q 403 -283 403 -315 q 480 -264 447 -283 q 513 -211 513 -244 q 488 -163 513 -182 q 425 -144 463 -144 q 400 -87 400 -119 l 454 -10 q 242 65 335 1 q 99 235 150 129 q 49 475 49 342 q 114 735 49 628 q 286 897 179 843 q 517 951 393 951 q 673 933 599 951 q 825 879 747 915 q 810 664 810 807 q 715 649 775 649 q 664 827 711 776 q 526 878 617 878 q 310 773 381 878 q 239 513 239 668 q 277 294 239 390 q 390 143 315 199 q 568 88 464 88 q 693 107 629 88 q 813 161 757 126 q 832 136 824 151 q 843 107 840 121 q 699 23 774 53 q 532 -12 624 -7 l 492 -67 z "},"Ĉ":{"ha":899,"x_min":49,"x_max":843,"o":"m 501 -12 q 267 49 369 -12 q 106 222 164 111 q 49 475 49 333 q 114 735 49 628 q 286 897 179 843 q 517 951 393 951 q 673 933 599 951 q 825 879 747 915 q 810 664 810 807 q 715 649 775 649 q 664 827 711 776 q 526 878 617 878 q 310 773 381 878 q 239 513 239 668 q 277 294 239 390 q 390 143 315 199 q 568 88 464 88 q 693 107 629 88 q 813 161 757 126 q 832 136 824 151 q 843 107 840 121 q 686 17 767 47 q 501 -12 606 -12 m 335 1011 q 306 1033 318 1015 q 290 1067 294 1050 q 490 1218 414 1146 q 563 1226 517 1226 q 750 1060 640 1142 q 675 1013 724 1024 q 508 1103 568 1076 q 335 1011 388 1044 z "},"Ċ":{"ha":899,"x_min":49,"x_max":843,"o":"m 501 -12 q 267 49 369 -12 q 106 222 164 111 q 49 475 49 333 q 114 735 49 628 q 286 897 179 843 q 517 951 393 951 q 673 933 599 951 q 825 879 747 915 q 810 664 810 807 q 715 649 775 649 q 664 827 711 776 q 526 878 617 878 q 310 773 381 878 q 239 513 239 668 q 277 294 239 390 q 390 143 315 199 q 568 88 464 88 q 693 107 629 88 q 813 161 757 126 q 832 136 824 151 q 843 107 840 121 q 686 17 767 47 q 501 -12 606 -12 z "},"D":{"ha":1018,"x_min":67,"x_max":969,"o":"m 450 942 q 825 847 681 942 q 969 493 969 751 q 878 178 969 288 q 672 35 788 69 q 449 0 557 0 q 67 -4 167 0 q 75 71 67 49 q 133 85 114 74 q 161 126 153 97 q 169 214 169 156 l 169 736 q 161 815 169 789 q 133 853 153 842 q 75 868 114 864 q 67 943 67 897 q 293 939 142 939 q 367 940 342 939 l 450 942 m 468 76 q 696 163 610 76 q 782 471 782 250 q 684 776 782 681 q 436 872 586 872 q 347 860 388 872 l 347 215 q 357 129 347 158 q 392 88 367 100 q 468 76 418 76 z "},"Ǳ":{"ha":1874,"x_min":67,"x_max":1801,"o":"m 450 942 q 825 847 681 942 q 969 493 969 751 q 878 178 969 288 q 672 35 788 69 q 449 0 557 0 q 67 -4 167 0 q 75 71 67 49 q 133 85 114 74 q 161 126 153 97 q 169 214 169 156 l 169 736 q 161 815 169 789 q 133 853 153 842 q 75 868 114 864 q 67 943 67 897 q 293 939 142 939 q 367 940 342 939 l 450 942 m 468 76 q 696 163 610 76 q 782 471 782 250 q 684 776 782 681 q 436 872 586 872 q 347 860 388 872 l 347 215 q 357 129 347 158 q 392 88 367 100 q 468 76 418 76 m 1704 254 q 1801 225 1764 250 q 1782 114 1790 178 q 1772 -4 1774 50 q 1411 0 1644 0 q 1103 -4 1201 0 q 1086 58 1086 25 l 1133 136 q 1355 511 1243 321 q 1558 868 1467 701 l 1403 868 q 1310 853 1344 868 q 1255 799 1276 839 q 1217 682 1233 760 q 1115 699 1147 682 q 1137 814 1129 747 q 1144 942 1144 881 q 1479 939 1267 939 q 1758 942 1665 939 q 1779 879 1778 915 q 1311 74 1533 431 l 1471 74 q 1596 88 1553 74 q 1663 139 1639 101 q 1704 254 1688 176 z "},"Ǆ":{"ha":1874,"x_min":67,"x_max":1801,"o":"m 450 942 q 825 847 681 942 q 969 493 969 751 q 878 178 969 288 q 672 35 788 69 q 449 0 557 0 q 67 -4 167 0 q 75 71 67 49 q 133 85 114 74 q 161 126 153 97 q 169 214 169 156 l 169 736 q 161 815 169 789 q 133 853 153 842 q 75 868 114 864 q 67 943 67 897 q 293 939 142 939 q 367 940 342 939 l 450 942 m 468 76 q 696 163 610 76 q 782 471 782 250 q 684 776 782 681 q 436 872 586 872 q 347 860 388 872 l 347 215 q 357 129 347 158 q 392 88 367 100 q 468 76 418 76 m 1704 254 q 1801 225 1764 250 q 1782 114 1790 178 q 1772 -4 1774 50 q 1411 0 1644 0 q 1103 -4 1201 0 q 1086 58 1086 25 l 1133 136 q 1355 511 1243 321 q 1558 868 1467 701 l 1403 868 q 1310 853 1344 868 q 1255 799 1276 839 q 1217 682 1233 760 q 1115 699 1147 682 q 1137 814 1129 747 q 1144 942 1144 881 q 1479 939 1267 939 q 1758 942 1665 939 q 1779 879 1778 915 q 1311 74 1533 431 l 1471 74 q 1596 88 1553 74 q 1663 139 1639 101 q 1704 254 1688 176 m 1414 1013 q 1226 1181 1338 1096 q 1300 1226 1254 1217 q 1467 1136 1415 1158 q 1558 1182 1506 1154 q 1640 1228 1611 1210 q 1670 1207 1658 1224 q 1686 1172 1682 1190 q 1486 1021 1563 1093 q 1414 1013 1460 1013 z "},"Ð":{"ha":1018,"x_min":50,"x_max":969,"o":"m 450 942 q 825 847 681 942 q 969 493 969 751 q 878 178 969 288 q 672 35 788 69 q 449 0 557 0 q 67 -4 167 0 q 75 71 67 49 q 133 85 114 74 q 161 126 153 97 q 169 214 169 156 l 169 428 l 79 426 q 50 425 69 425 q 54 474 50 449 q 65 514 58 500 l 169 514 l 169 736 q 161 815 169 789 q 133 853 153 842 q 75 868 114 864 q 67 943 67 897 q 293 939 142 939 q 367 940 342 939 l 450 942 m 468 76 q 696 163 610 76 q 782 471 782 250 q 684 776 782 681 q 436 872 586 872 q 347 860 388 872 l 347 514 l 532 514 q 517 428 532 460 q 347 429 450 429 l 347 215 q 357 129 347 158 q 392 88 367 100 q 468 76 418 76 z "},"Ď":{"ha":1018,"x_min":67,"x_max":969,"o":"m 450 942 q 825 847 681 942 q 969 493 969 751 q 878 178 969 288 q 672 35 788 69 q 449 0 557 0 q 67 -4 167 0 q 75 71 67 49 q 133 85 114 74 q 161 126 153 97 q 169 214 169 156 l 169 736 q 161 815 169 789 q 133 853 153 842 q 75 868 114 864 q 67 943 67 897 q 293 939 142 939 q 367 940 342 939 l 450 942 m 468 76 q 696 163 610 76 q 782 471 782 250 q 684 776 782 681 q 436 872 586 872 q 347 860 388 872 l 347 215 q 357 129 347 158 q 392 88 367 100 q 468 76 418 76 m 440 1013 q 253 1181 364 1096 q 326 1226 281 1217 q 493 1136 442 1158 q 585 1182 532 1154 q 667 1228 638 1210 q 697 1207 685 1224 q 713 1172 708 1190 q 513 1021 589 1093 q 440 1013 486 1013 z "},"Ḑ":{"ha":1018,"x_min":67,"x_max":969,"o":"m 450 942 q 825 847 681 942 q 969 493 969 751 q 878 178 969 288 q 672 35 788 69 q 449 0 557 0 q 67 -4 167 0 q 75 71 67 49 q 133 85 114 74 q 161 126 153 97 q 169 214 169 156 l 169 736 q 161 815 169 789 q 133 853 153 842 q 75 868 114 864 q 67 943 67 897 q 293 939 142 939 q 367 940 342 939 l 450 942 m 468 76 q 696 163 610 76 q 782 471 782 250 q 684 776 782 681 q 436 872 586 872 q 347 860 388 872 l 347 215 q 357 129 347 158 q 392 88 367 100 q 468 76 418 76 m 511 -57 q 567 -158 567 -76 q 525 -293 567 -231 q 415 -404 483 -356 q 356 -374 374 -401 q 410 -310 392 -342 q 428 -251 428 -278 q 413 -215 428 -228 q 364 -199 397 -203 q 366 -149 361 -179 q 379 -99 371 -119 q 511 -57 460 -90 z "},"Đ":{"ha":1018,"x_min":50,"x_max":969,"o":"m 450 942 q 825 847 681 942 q 969 493 969 751 q 878 178 969 288 q 672 35 788 69 q 449 0 557 0 q 67 -4 167 0 q 75 71 67 49 q 133 85 114 74 q 161 126 153 97 q 169 214 169 156 l 169 428 l 79 426 q 50 425 69 425 q 54 474 50 449 q 65 514 58 500 l 169 514 l 169 736 q 161 815 169 789 q 133 853 153 842 q 75 868 114 864 q 67 943 67 897 q 293 939 142 939 q 367 940 342 939 l 450 942 m 468 76 q 696 163 610 76 q 782 471 782 250 q 684 776 782 681 q 436 872 586 872 q 347 860 388 872 l 347 514 l 532 514 q 517 428 532 460 q 347 429 450 429 l 347 215 q 357 129 347 158 q 392 88 367 100 q 468 76 418 76 z "},"Ḍ":{"ha":1018,"x_min":67,"x_max":969,"o":"m 450 942 q 825 847 681 942 q 969 493 969 751 q 878 178 969 288 q 672 35 788 69 q 449 0 557 0 q 67 -4 167 0 q 75 71 67 49 q 133 85 114 74 q 161 126 153 97 q 169 214 169 156 l 169 736 q 161 815 169 789 q 133 853 153 842 q 75 868 114 864 q 67 943 67 897 q 293 939 142 939 q 367 940 342 939 l 450 942 m 468 76 q 696 163 610 76 q 782 471 782 250 q 684 776 782 681 q 436 872 586 872 q 347 860 388 872 l 347 215 q 357 129 347 158 q 392 88 367 100 q 468 76 418 76 m 464 -303 q 391 -277 419 -303 q 363 -212 363 -251 q 392 -142 363 -169 q 467 -115 422 -115 q 544 -141 515 -115 q 572 -211 572 -167 q 542 -276 572 -250 q 464 -303 511 -303 z "},"Ḏ":{"ha":1018,"x_min":67,"x_max":969,"o":"m 450 942 q 825 847 681 942 q 969 493 969 751 q 878 178 969 288 q 672 35 788 69 q 449 0 557 0 q 67 -4 167 0 q 75 71 67 49 q 133 85 114 74 q 161 126 153 97 q 169 214 169 156 l 169 736 q 161 815 169 789 q 133 853 153 842 q 75 868 114 864 q 67 943 67 897 q 293 939 142 939 q 367 940 342 939 l 450 942 m 468 76 q 696 163 610 76 q 782 471 782 250 q 684 776 782 681 q 436 872 586 872 q 347 860 388 872 l 347 215 q 357 129 347 158 q 392 88 367 100 q 468 76 418 76 m 211 -225 q 215 -187 211 -210 q 224 -151 218 -165 l 725 -151 q 713 -218 725 -189 q 211 -225 489 -218 z "},"ǲ":{"ha":1721,"x_min":67,"x_max":1671,"o":"m 450 942 q 825 847 681 942 q 969 493 969 751 q 878 178 969 288 q 672 35 788 69 q 449 0 557 0 q 67 -4 167 0 q 75 71 67 49 q 133 85 114 74 q 161 126 153 97 q 169 214 169 156 l 169 736 q 161 815 169 789 q 133 853 153 842 q 75 868 114 864 q 67 943 67 897 q 293 939 142 939 q 367 940 342 939 l 450 942 m 468 76 q 696 163 610 76 q 782 471 782 250 q 684 776 782 681 q 436 872 586 872 q 347 860 388 872 l 347 215 q 357 129 347 158 q 392 88 367 100 q 468 76 418 76 m 1660 222 q 1671 26 1660 93 q 1619 -3 1657 -3 q 1361 0 1483 0 q 1108 -3 1208 0 q 1090 29 1097 10 q 1083 68 1083 49 q 1263 315 1156 163 q 1431 561 1371 468 l 1328 561 q 1257 550 1282 561 q 1217 509 1232 539 q 1190 418 1203 479 q 1094 432 1132 415 q 1106 640 1106 532 q 1374 636 1190 636 q 1628 640 1543 636 q 1642 609 1638 628 q 1647 572 1647 590 q 1482 331 1583 475 q 1299 76 1381 188 l 1438 76 q 1511 89 1486 76 q 1548 134 1536 101 q 1565 232 1560 167 q 1660 222 1613 235 z "},"ǅ":{"ha":1721,"x_min":67,"x_max":1671,"o":"m 450 942 q 825 847 681 942 q 969 493 969 751 q 878 178 969 288 q 672 35 788 69 q 449 0 557 0 q 67 -4 167 0 q 75 71 67 49 q 133 85 114 74 q 161 126 153 97 q 169 214 169 156 l 169 736 q 161 815 169 789 q 133 853 153 842 q 75 868 114 864 q 67 943 67 897 q 293 939 142 939 q 367 940 342 939 l 450 942 m 468 76 q 696 163 610 76 q 782 471 782 250 q 684 776 782 681 q 436 872 586 872 q 347 860 388 872 l 347 215 q 357 129 347 158 q 392 88 367 100 q 468 76 418 76 m 1660 222 q 1671 26 1660 93 q 1619 -3 1657 -3 q 1361 0 1483 0 q 1108 -3 1208 0 q 1090 29 1097 10 q 1083 68 1083 49 q 1263 315 1156 163 q 1431 561 1371 468 l 1328 561 q 1257 550 1282 561 q 1217 509 1232 539 q 1190 418 1203 479 q 1094 432 1132 415 q 1106 640 1106 532 q 1374 636 1190 636 q 1628 640 1543 636 q 1642 609 1638 628 q 1647 572 1647 590 q 1482 331 1583 475 q 1299 76 1381 188 l 1438 76 q 1511 89 1486 76 q 1548 134 1536 101 q 1565 232 1560 167 q 1660 222 1613 235 m 1325 718 q 1125 931 1226 839 q 1176 983 1135 968 q 1288 908 1244 936 q 1371 861 1331 881 q 1468 920 1404 878 q 1557 983 1532 963 q 1592 966 1576 979 q 1614 936 1607 953 q 1497 835 1556 890 q 1396 726 1439 779 q 1325 718 1361 715 z "},"E":{"ha":856,"x_min":67,"x_max":810,"o":"m 722 256 q 810 218 781 246 q 767 -3 782 135 q 449 0 639 0 q 67 -4 167 0 q 75 71 67 49 q 133 85 114 74 q 161 126 153 97 q 169 214 169 156 l 169 736 q 161 815 169 789 q 133 853 153 842 q 74 868 113 864 q 67 943 67 893 q 346 939 163 939 q 731 943 564 939 q 760 715 740 794 q 672 696 729 696 q 617 822 664 775 q 457 868 571 868 l 347 868 l 347 508 l 407 508 q 516 531 486 508 q 547 617 546 554 q 632 628 582 628 q 628 474 628 560 q 632 311 628 378 q 550 319 581 311 q 515 410 544 386 q 407 435 485 435 l 347 435 l 347 215 q 357 129 347 158 q 392 88 367 100 q 468 76 418 76 l 481 76 q 606 95 561 76 q 676 151 651 114 q 722 256 700 188 z "},"É":{"ha":856,"x_min":67,"x_max":810,"o":"m 722 256 q 810 218 781 246 q 767 -3 782 135 q 449 0 639 0 q 67 -4 167 0 q 75 71 67 49 q 133 85 114 74 q 161 126 153 97 q 169 214 169 156 l 169 736 q 161 815 169 789 q 133 853 153 842 q 74 868 113 864 q 67 943 67 893 q 346 939 163 939 q 731 943 564 939 q 760 715 740 794 q 672 696 729 696 q 617 822 664 775 q 457 868 571 868 l 347 868 l 347 508 l 407 508 q 516 531 486 508 q 547 617 546 554 q 632 628 582 628 q 628 474 628 560 q 632 311 628 378 q 550 319 581 311 q 515 410 544 386 q 407 435 485 435 l 347 435 l 347 215 q 357 129 347 158 q 392 88 367 100 q 468 76 418 76 l 481 76 q 606 95 561 76 q 676 151 651 114 q 722 256 700 188 m 432 1018 q 349 1031 381 1018 q 429 1210 399 1122 q 515 1221 474 1221 q 590 1211 561 1221 q 432 1018 499 1106 z "},"Ĕ":{"ha":856,"x_min":67,"x_max":810,"o":"m 722 256 q 810 218 781 246 q 767 -3 782 135 q 449 0 639 0 q 67 -4 167 0 q 75 71 67 49 q 133 85 114 74 q 161 126 153 97 q 169 214 169 156 l 169 736 q 161 815 169 789 q 133 853 153 842 q 74 868 113 864 q 67 943 67 893 q 346 939 163 939 q 731 943 564 939 q 760 715 740 794 q 672 696 729 696 q 617 822 664 775 q 457 868 571 868 l 347 868 l 347 508 l 407 508 q 516 531 486 508 q 547 617 546 554 q 632 628 582 628 q 628 474 628 560 q 632 311 628 378 q 550 319 581 311 q 515 410 544 386 q 407 435 485 435 l 347 435 l 347 215 q 357 129 347 158 q 392 88 367 100 q 468 76 418 76 l 481 76 q 606 95 561 76 q 676 151 651 114 q 722 256 700 188 m 632 1203 q 574 1058 632 1108 q 408 1008 517 1008 q 245 1056 301 1008 q 189 1197 189 1104 q 278 1211 226 1215 q 324 1140 285 1165 q 422 1115 363 1115 q 517 1140 481 1115 q 556 1211 553 1165 q 578 1213 563 1213 q 632 1203 606 1213 z "},"Ě":{"ha":856,"x_min":67,"x_max":810,"o":"m 722 256 q 810 218 781 246 q 767 -3 782 135 q 449 0 639 0 q 67 -4 167 0 q 75 71 67 49 q 133 85 114 74 q 161 126 153 97 q 169 214 169 156 l 169 736 q 161 815 169 789 q 133 853 153 842 q 74 868 113 864 q 67 943 67 893 q 346 939 163 939 q 731 943 564 939 q 760 715 740 794 q 672 696 729 696 q 617 822 664 775 q 457 868 571 868 l 347 868 l 347 508 l 407 508 q 516 531 486 508 q 547 617 546 554 q 632 628 582 628 q 628 474 628 560 q 632 311 628 378 q 550 319 581 311 q 515 410 544 386 q 407 435 485 435 l 347 435 l 347 215 q 357 129 347 158 q 392 88 367 100 q 468 76 418 76 l 481 76 q 606 95 561 76 q 676 151 651 114 q 722 256 700 188 m 361 1013 q 174 1181 285 1096 q 247 1226 201 1217 q 414 1136 363 1158 q 506 1182 453 1154 q 588 1228 558 1210 q 617 1207 606 1224 q 633 1172 629 1190 q 433 1021 510 1093 q 361 1013 407 1013 z "},"Ȩ":{"ha":856,"x_min":67,"x_max":810,"o":"m 767 -3 q 472 0 647 0 l 424 -67 q 513 -110 481 -76 q 546 -194 546 -144 q 486 -298 546 -260 q 347 -336 426 -336 q 336 -283 336 -315 q 413 -264 381 -283 q 446 -211 446 -244 q 421 -163 446 -182 q 358 -144 396 -144 q 333 -87 333 -122 l 394 0 q 67 -4 153 0 q 75 71 67 49 q 133 85 114 74 q 161 126 153 97 q 169 214 169 156 l 169 736 q 161 815 169 789 q 133 853 153 842 q 74 868 113 864 q 67 943 67 893 q 346 939 163 939 q 731 943 564 939 q 760 715 740 794 q 672 696 729 696 q 617 822 664 775 q 457 868 571 868 l 347 868 l 347 508 l 407 508 q 516 531 486 508 q 547 617 546 554 q 632 628 582 628 q 628 474 628 560 q 632 311 628 378 q 550 319 581 311 q 515 410 544 386 q 407 435 485 435 l 347 435 l 347 215 q 357 129 347 158 q 392 88 367 100 q 468 76 418 76 l 481 76 q 606 95 561 76 q 676 151 651 114 q 722 256 700 188 q 810 218 781 246 q 767 -3 782 135 z "},"Ḝ":{"ha":856,"x_min":67,"x_max":810,"o":"m 408 1008 q 246 1056 301 1008 q 190 1197 190 1104 q 279 1211 228 1215 q 325 1140 286 1165 q 424 1115 364 1115 q 518 1140 482 1115 q 557 1211 554 1165 q 579 1213 564 1213 q 632 1203 608 1213 q 574 1058 632 1108 q 408 1008 517 1008 m 767 -3 q 472 0 647 0 l 424 -67 q 513 -110 481 -76 q 546 -194 546 -144 q 486 -298 546 -260 q 347 -336 426 -336 q 336 -283 336 -315 q 413 -264 381 -283 q 446 -211 446 -244 q 421 -163 446 -182 q 358 -144 396 -144 q 333 -87 333 -122 l 394 0 q 67 -4 153 0 q 75 71 67 49 q 133 85 114 74 q 161 126 153 97 q 169 214 169 156 l 169 736 q 161 815 169 789 q 133 853 153 842 q 74 868 113 864 q 67 943 67 893 q 346 939 163 939 q 731 943 564 939 q 760 715 740 794 q 672 696 729 696 q 617 822 664 775 q 457 868 571 868 l 347 868 l 347 508 l 407 508 q 516 531 486 508 q 547 617 546 554 q 632 628 582 628 q 628 474 628 560 q 632 311 628 378 q 550 319 581 311 q 515 410 544 386 q 407 435 485 435 l 347 435 l 347 215 q 357 129 347 158 q 392 88 367 100 q 468 76 418 76 l 481 76 q 606 95 561 76 q 676 151 651 114 q 722 256 700 188 q 810 218 781 246 q 767 -3 782 135 z "},"Ê":{"ha":856,"x_min":67,"x_max":810,"o":"m 722 256 q 810 218 781 246 q 767 -3 782 135 q 449 0 639 0 q 67 -4 167 0 q 75 71 67 49 q 133 85 114 74 q 161 126 153 97 q 169 214 169 156 l 169 736 q 161 815 169 789 q 133 853 153 842 q 74 868 113 864 q 67 943 67 893 q 346 939 163 939 q 731 943 564 939 q 760 715 740 794 q 672 696 729 696 q 617 822 664 775 q 457 868 571 868 l 347 868 l 347 508 l 407 508 q 516 531 486 508 q 547 617 546 554 q 632 628 582 628 q 628 474 628 560 q 632 311 628 378 q 550 319 581 311 q 515 410 544 386 q 407 435 485 435 l 347 435 l 347 215 q 357 129 347 158 q 392 88 367 100 q 468 76 418 76 l 481 76 q 606 95 561 76 q 676 151 651 114 q 722 256 700 188 m 225 1011 q 197 1033 208 1015 q 181 1067 185 1050 q 381 1218 304 1146 q 453 1226 407 1226 q 640 1060 531 1142 q 565 1013 614 1024 q 399 1103 458 1076 q 225 1011 278 1044 z "},"Ế":{"ha":856,"x_min":67,"x_max":810,"o":"m 722 256 q 810 218 781 246 q 767 -3 782 135 q 449 0 639 0 q 67 -4 167 0 q 75 71 67 49 q 133 85 114 74 q 161 126 153 97 q 169 214 169 156 l 169 736 q 161 815 169 789 q 133 853 153 842 q 74 868 113 864 q 67 943 67 893 q 346 939 163 939 q 731 943 564 939 q 760 715 740 794 q 672 696 729 696 q 617 822 664 775 q 457 868 571 868 l 347 868 l 347 508 l 407 508 q 516 531 486 508 q 547 617 546 554 q 632 628 582 628 q 628 474 628 560 q 632 311 628 378 q 550 319 581 311 q 515 410 544 386 q 407 435 485 435 l 347 435 l 347 215 q 357 129 347 158 q 392 88 367 100 q 468 76 418 76 l 481 76 q 606 95 561 76 q 676 151 651 114 q 722 256 700 188 m 636 1189 q 560 1200 589 1189 q 633 1367 606 1286 q 714 1376 671 1376 q 783 1368 754 1376 q 636 1189 707 1279 m 225 1011 q 197 1033 208 1015 q 181 1067 185 1050 q 381 1218 304 1146 q 453 1226 407 1226 q 640 1060 531 1142 q 565 1013 614 1024 q 399 1103 458 1076 q 225 1011 278 1044 z "},"Ệ":{"ha":856,"x_min":67,"x_max":810,"o":"m 722 256 q 810 218 781 246 q 767 -3 782 135 q 449 0 639 0 q 67 -4 167 0 q 75 71 67 49 q 133 85 114 74 q 161 126 153 97 q 169 214 169 156 l 169 736 q 161 815 169 789 q 133 853 153 842 q 74 868 113 864 q 67 943 67 893 q 346 939 163 939 q 731 943 564 939 q 760 715 740 794 q 672 696 729 696 q 617 822 664 775 q 457 868 571 868 l 347 868 l 347 508 l 407 508 q 516 531 486 508 q 547 617 546 554 q 632 628 582 628 q 628 474 628 560 q 632 311 628 378 q 550 319 581 311 q 515 410 544 386 q 407 435 485 435 l 347 435 l 347 215 q 357 129 347 158 q 392 88 367 100 q 468 76 418 76 l 481 76 q 606 95 561 76 q 676 151 651 114 q 722 256 700 188 m 435 -303 q 362 -277 390 -303 q 333 -212 333 -251 q 363 -142 333 -169 q 438 -115 393 -115 q 515 -141 486 -115 q 543 -211 543 -167 q 513 -276 543 -250 q 435 -303 482 -303 m 225 1011 q 197 1033 208 1015 q 181 1067 185 1050 q 381 1218 304 1146 q 453 1226 407 1226 q 640 1060 531 1142 q 565 1013 614 1024 q 399 1103 458 1076 q 225 1011 278 1044 z "},"Ề":{"ha":856,"x_min":67,"x_max":810,"o":"m 722 256 q 810 218 781 246 q 767 -3 782 135 q 449 0 639 0 q 67 -4 167 0 q 75 71 67 49 q 133 85 114 74 q 161 126 153 97 q 169 214 169 156 l 169 736 q 161 815 169 789 q 133 853 153 842 q 74 868 113 864 q 67 943 67 893 q 346 939 163 939 q 731 943 564 939 q 760 715 740 794 q 672 696 729 696 q 617 822 664 775 q 457 868 571 868 l 347 868 l 347 508 l 407 508 q 516 531 486 508 q 547 617 546 554 q 632 628 582 628 q 628 474 628 560 q 632 311 628 378 q 550 319 581 311 q 515 410 544 386 q 407 435 485 435 l 347 435 l 347 215 q 357 129 347 158 q 392 88 367 100 q 468 76 418 76 l 481 76 q 606 95 561 76 q 676 151 651 114 q 722 256 700 188 z "},"Ể":{"ha":856,"x_min":67,"x_max":810,"o":"m 722 256 q 810 218 781 246 q 767 -3 782 135 q 449 0 639 0 q 67 -4 167 0 q 75 71 67 49 q 133 85 114 74 q 161 126 153 97 q 169 214 169 156 l 169 736 q 161 815 169 789 q 133 853 153 842 q 74 868 113 864 q 67 943 67 893 q 346 939 163 939 q 731 943 564 939 q 760 715 740 794 q 672 696 729 696 q 617 822 664 775 q 457 868 571 868 l 347 868 l 347 508 l 407 508 q 516 531 486 508 q 547 617 546 554 q 632 628 582 628 q 628 474 628 560 q 632 311 628 378 q 550 319 581 311 q 515 410 544 386 q 407 435 485 435 l 347 435 l 347 215 q 357 129 347 158 q 392 88 367 100 q 468 76 418 76 l 481 76 q 606 95 561 76 q 676 151 651 114 q 722 256 700 188 m 225 1011 q 197 1033 208 1015 q 181 1067 185 1050 q 381 1218 304 1146 q 453 1226 407 1226 q 640 1060 531 1142 q 565 1013 614 1024 q 399 1103 458 1076 q 225 1011 278 1044 m 575 1200 q 560 1242 560 1219 q 572 1278 560 1264 q 606 1307 583 1292 q 633 1331 624 1321 q 642 1356 642 1342 q 631 1377 642 1369 q 604 1385 621 1385 q 563 1365 578 1385 q 542 1299 547 1346 q 467 1314 493 1299 q 471 1360 471 1339 q 467 1397 471 1379 q 614 1440 529 1440 q 711 1419 676 1440 q 746 1357 746 1399 q 729 1310 746 1328 q 682 1271 713 1292 q 652 1249 661 1257 q 643 1228 643 1240 q 646 1208 643 1219 q 575 1200 618 1197 z "},"Ễ":{"ha":856,"x_min":67,"x_max":810,"o":"m 722 256 q 810 218 781 246 q 767 -3 782 135 q 449 0 639 0 q 67 -4 167 0 q 75 71 67 49 q 133 85 114 74 q 161 126 153 97 q 169 214 169 156 l 169 736 q 161 815 169 789 q 133 853 153 842 q 74 868 113 864 q 67 943 67 893 q 346 939 163 939 q 731 943 564 939 q 760 715 740 794 q 672 696 729 696 q 617 822 664 775 q 457 868 571 868 l 347 868 l 347 508 l 407 508 q 516 531 486 508 q 547 617 546 554 q 632 628 582 628 q 628 474 628 560 q 632 311 628 378 q 550 319 581 311 q 515 410 544 386 q 407 435 485 435 l 347 435 l 347 215 q 357 129 347 158 q 392 88 367 100 q 468 76 418 76 l 481 76 q 606 95 561 76 q 676 151 651 114 q 722 256 700 188 m 225 1011 q 197 1033 208 1015 q 181 1067 185 1050 q 381 1218 304 1146 q 453 1226 407 1226 q 640 1060 531 1142 q 565 1013 614 1024 q 399 1103 458 1076 q 225 1011 278 1044 m 486 1293 q 438 1300 458 1293 q 383 1322 417 1307 q 336 1341 354 1335 q 296 1347 318 1347 q 194 1296 242 1347 q 165 1360 167 1321 q 246 1432 201 1410 q 335 1454 290 1454 q 387 1447 364 1454 q 442 1425 410 1439 q 486 1407 468 1413 q 522 1401 504 1401 q 603 1444 567 1401 q 657 1415 638 1439 q 486 1293 592 1293 z "},"Ȅ":{"ha":856,"x_min":67,"x_max":810,"o":"m 722 256 q 810 218 781 246 q 767 -3 782 135 q 449 0 639 0 q 67 -4 167 0 q 75 71 67 49 q 133 85 114 74 q 161 126 153 97 q 169 214 169 156 l 169 736 q 161 815 169 789 q 133 853 153 842 q 74 868 113 864 q 67 943 67 893 q 346 939 163 939 q 731 943 564 939 q 760 715 740 794 q 672 696 729 696 q 617 822 664 775 q 457 868 571 868 l 347 868 l 347 508 l 407 508 q 516 531 486 508 q 547 617 546 554 q 632 628 582 628 q 628 474 628 560 q 632 311 628 378 q 550 319 581 311 q 515 410 544 386 q 407 435 485 435 l 347 435 l 347 215 q 357 129 347 158 q 392 88 367 100 q 468 76 418 76 l 481 76 q 606 95 561 76 q 676 151 651 114 q 722 256 700 188 m 274 1000 q 119 1174 193 1103 q 188 1194 147 1188 q 268 1197 228 1200 q 357 1013 307 1096 q 274 1000 325 1000 m 504 1000 q 354 1176 429 1100 q 500 1197 408 1203 q 588 1013 542 1089 q 504 1000 556 1000 z "},"Ë":{"ha":856,"x_min":67,"x_max":810,"o":"m 722 256 q 810 218 781 246 q 767 -3 782 135 q 449 0 639 0 q 67 -4 167 0 q 75 71 67 49 q 133 85 114 74 q 161 126 153 97 q 169 214 169 156 l 169 736 q 161 815 169 789 q 133 853 153 842 q 74 868 113 864 q 67 943 67 893 q 346 939 163 939 q 731 943 564 939 q 760 715 740 794 q 672 696 729 696 q 617 822 664 775 q 457 868 571 868 l 347 868 l 347 508 l 407 508 q 516 531 486 508 q 547 617 546 554 q 632 628 582 628 q 628 474 628 560 q 632 311 628 378 q 550 319 581 311 q 515 410 544 386 q 407 435 485 435 l 347 435 l 347 215 q 357 129 347 158 q 392 88 367 100 q 468 76 418 76 l 481 76 q 606 95 561 76 q 676 151 651 114 q 722 256 700 188 z "},"Ė":{"ha":856,"x_min":67,"x_max":810,"o":"m 722 256 q 810 218 781 246 q 767 -3 782 135 q 449 0 639 0 q 67 -4 167 0 q 75 71 67 49 q 133 85 114 74 q 161 126 153 97 q 169 214 169 156 l 169 736 q 161 815 169 789 q 133 853 153 842 q 74 868 113 864 q 67 943 67 893 q 346 939 163 939 q 731 943 564 939 q 760 715 740 794 q 672 696 729 696 q 617 822 664 775 q 457 868 571 868 l 347 868 l 347 508 l 407 508 q 516 531 486 508 q 547 617 546 554 q 632 628 582 628 q 628 474 628 560 q 632 311 628 378 q 550 319 581 311 q 515 410 544 386 q 407 435 485 435 l 347 435 l 347 215 q 357 129 347 158 q 392 88 367 100 q 468 76 418 76 l 481 76 q 606 95 561 76 q 676 151 651 114 q 722 256 700 188 z "},"Ẹ":{"ha":856,"x_min":67,"x_max":810,"o":"m 722 256 q 810 218 781 246 q 767 -3 782 135 q 449 0 639 0 q 67 -4 167 0 q 75 71 67 49 q 133 85 114 74 q 161 126 153 97 q 169 214 169 156 l 169 736 q 161 815 169 789 q 133 853 153 842 q 74 868 113 864 q 67 943 67 893 q 346 939 163 939 q 731 943 564 939 q 760 715 740 794 q 672 696 729 696 q 617 822 664 775 q 457 868 571 868 l 347 868 l 347 508 l 407 508 q 516 531 486 508 q 547 617 546 554 q 632 628 582 628 q 628 474 628 560 q 632 311 628 378 q 550 319 581 311 q 515 410 544 386 q 407 435 485 435 l 347 435 l 347 215 q 357 129 347 158 q 392 88 367 100 q 468 76 418 76 l 481 76 q 606 95 561 76 q 676 151 651 114 q 722 256 700 188 m 435 -303 q 362 -277 390 -303 q 333 -212 333 -251 q 363 -142 333 -169 q 438 -115 393 -115 q 515 -141 486 -115 q 543 -211 543 -167 q 513 -276 543 -250 q 435 -303 482 -303 z "},"È":{"ha":856,"x_min":67,"x_max":810,"o":"m 722 256 q 810 218 781 246 q 767 -3 782 135 q 449 0 639 0 q 67 -4 167 0 q 75 71 67 49 q 133 85 114 74 q 161 126 153 97 q 169 214 169 156 l 169 736 q 161 815 169 789 q 133 853 153 842 q 74 868 113 864 q 67 943 67 893 q 346 939 163 939 q 731 943 564 939 q 760 715 740 794 q 672 696 729 696 q 617 822 664 775 q 457 868 571 868 l 347 868 l 347 508 l 407 508 q 516 531 486 508 q 547 617 546 554 q 632 628 582 628 q 628 474 628 560 q 632 311 628 378 q 550 319 581 311 q 515 410 544 386 q 407 435 485 435 l 347 435 l 347 215 q 357 129 347 158 q 392 88 367 100 q 468 76 418 76 l 481 76 q 606 95 561 76 q 676 151 651 114 q 722 256 700 188 m 388 1018 q 238 1193 313 1118 q 386 1215 292 1221 q 475 1031 425 1114 q 388 1018 444 1018 z "},"Ẻ":{"ha":856,"x_min":67,"x_max":810,"o":"m 722 256 q 810 218 781 246 q 767 -3 782 135 q 449 0 639 0 q 67 -4 167 0 q 75 71 67 49 q 133 85 114 74 q 161 126 153 97 q 169 214 169 156 l 169 736 q 161 815 169 789 q 133 853 153 842 q 74 868 113 864 q 67 943 67 893 q 346 939 163 939 q 731 943 564 939 q 760 715 740 794 q 672 696 729 696 q 617 822 664 775 q 457 868 571 868 l 347 868 l 347 508 l 407 508 q 516 531 486 508 q 547 617 546 554 q 632 628 582 628 q 628 474 628 560 q 632 311 628 378 q 550 319 581 311 q 515 410 544 386 q 407 435 485 435 l 347 435 l 347 215 q 357 129 347 158 q 392 88 367 100 q 468 76 418 76 l 481 76 q 606 95 561 76 q 676 151 651 114 q 722 256 700 188 m 381 1004 q 365 1046 365 1024 q 377 1082 365 1068 q 411 1111 389 1096 q 438 1135 429 1125 q 447 1160 447 1146 q 437 1181 447 1174 q 410 1189 426 1189 q 368 1169 383 1189 q 347 1103 353 1150 q 272 1118 299 1103 q 276 1164 276 1143 q 272 1201 276 1183 q 419 1244 335 1244 q 517 1224 482 1244 q 551 1161 551 1203 q 535 1114 551 1132 q 488 1075 518 1096 q 458 1053 467 1061 q 449 1032 449 1044 q 451 1013 449 1024 q 381 1004 424 1001 z "},"Ȇ":{"ha":856,"x_min":67,"x_max":810,"o":"m 722 256 q 810 218 781 246 q 767 -3 782 135 q 449 0 639 0 q 67 -4 167 0 q 75 71 67 49 q 133 85 114 74 q 161 126 153 97 q 169 214 169 156 l 169 736 q 161 815 169 789 q 133 853 153 842 q 74 868 113 864 q 67 943 67 893 q 346 939 163 939 q 731 943 564 939 q 760 715 740 794 q 672 696 729 696 q 617 822 664 775 q 457 868 571 868 l 347 868 l 347 508 l 407 508 q 516 531 486 508 q 547 617 546 554 q 632 628 582 628 q 628 474 628 560 q 632 311 628 378 q 550 319 581 311 q 515 410 544 386 q 407 435 485 435 l 347 435 l 347 215 q 357 129 347 158 q 392 88 367 100 q 468 76 418 76 l 481 76 q 606 95 561 76 q 676 151 651 114 q 722 256 700 188 m 189 1017 q 247 1163 189 1113 q 413 1213 304 1213 q 576 1164 519 1213 q 632 1022 632 1115 q 564 1008 600 1008 q 543 1010 550 1008 q 497 1081 535 1056 q 399 1106 458 1106 q 303 1081 339 1106 q 265 1010 267 1056 q 242 1008 257 1008 q 189 1017 210 1008 z "},"Ē":{"ha":856,"x_min":67,"x_max":810,"o":"m 722 256 q 810 218 781 246 q 767 -3 782 135 q 449 0 639 0 q 67 -4 167 0 q 75 71 67 49 q 133 85 114 74 q 161 126 153 97 q 169 214 169 156 l 169 736 q 161 815 169 789 q 133 853 153 842 q 74 868 113 864 q 67 943 67 893 q 346 939 163 939 q 731 943 564 939 q 760 715 740 794 q 672 696 729 696 q 617 822 664 775 q 457 868 571 868 l 347 868 l 347 508 l 407 508 q 516 531 486 508 q 547 617 546 554 q 632 628 582 628 q 628 474 628 560 q 632 311 628 378 q 550 319 581 311 q 515 410 544 386 q 407 435 485 435 l 347 435 l 347 215 q 357 129 347 158 q 392 88 367 100 q 468 76 418 76 l 481 76 q 606 95 561 76 q 676 151 651 114 q 722 256 700 188 m 671 1128 q 658 1058 671 1090 q 153 1050 413 1058 q 156 1090 153 1067 q 165 1128 160 1114 l 671 1128 z "},"Ḗ":{"ha":856,"x_min":67,"x_max":810,"o":"m 722 256 q 810 218 781 246 q 767 -3 782 135 q 449 0 639 0 q 67 -4 167 0 q 75 71 67 49 q 133 85 114 74 q 161 126 153 97 q 169 214 169 156 l 169 736 q 161 815 169 789 q 133 853 153 842 q 74 868 113 864 q 67 943 67 893 q 346 939 163 939 q 731 943 564 939 q 760 715 740 794 q 672 696 729 696 q 617 822 664 775 q 457 868 571 868 l 347 868 l 347 508 l 407 508 q 516 531 486 508 q 547 617 546 554 q 632 628 582 628 q 628 474 628 560 q 632 311 628 378 q 550 319 581 311 q 515 410 544 386 q 407 435 485 435 l 347 435 l 347 215 q 357 129 347 158 q 392 88 367 100 q 468 76 418 76 l 481 76 q 606 95 561 76 q 676 151 651 114 q 722 256 700 188 m 671 1128 q 658 1058 671 1090 q 153 1050 413 1058 q 156 1090 153 1067 q 165 1128 160 1114 l 671 1128 m 432 1207 q 349 1219 381 1207 q 429 1399 399 1311 q 515 1410 474 1410 q 590 1400 561 1410 q 432 1207 499 1294 z "},"Ḕ":{"ha":856,"x_min":67,"x_max":810,"o":"m 722 256 q 810 218 781 246 q 767 -3 782 135 q 449 0 639 0 q 67 -4 167 0 q 75 71 67 49 q 133 85 114 74 q 161 126 153 97 q 169 214 169 156 l 169 736 q 161 815 169 789 q 133 853 153 842 q 74 868 113 864 q 67 943 67 893 q 346 939 163 939 q 731 943 564 939 q 760 715 740 794 q 672 696 729 696 q 617 822 664 775 q 457 868 571 868 l 347 868 l 347 508 l 407 508 q 516 531 486 508 q 547 617 546 554 q 632 628 582 628 q 628 474 628 560 q 632 311 628 378 q 550 319 581 311 q 515 410 544 386 q 407 435 485 435 l 347 435 l 347 215 q 357 129 347 158 q 392 88 367 100 q 468 76 418 76 l 481 76 q 606 95 561 76 q 676 151 651 114 q 722 256 700 188 m 671 1128 q 658 1058 671 1090 q 153 1050 413 1058 q 156 1090 153 1067 q 165 1128 160 1114 l 671 1128 m 388 1207 q 238 1382 313 1307 q 386 1404 292 1410 q 475 1219 425 1303 q 388 1207 444 1207 z "},"Ę":{"ha":856,"x_min":67,"x_max":810,"o":"m 693 -1 q 590 -62 624 -25 q 556 -140 556 -100 q 580 -191 556 -172 q 649 -210 604 -210 q 703 -201 681 -210 q 715 -235 711 -214 q 718 -276 719 -257 q 588 -343 643 -301 q 560 -346 578 -346 q 493 -332 528 -346 q 433 -286 458 -318 q 408 -204 408 -254 q 449 -93 408 -143 q 579 0 490 -43 l 449 0 q 67 -4 167 0 q 75 71 67 49 q 133 85 114 74 q 161 126 153 97 q 169 214 169 156 l 169 736 q 161 815 169 789 q 133 853 153 842 q 74 868 113 864 q 67 943 67 893 q 346 939 163 939 q 731 943 564 939 q 760 715 740 794 q 672 696 729 696 q 617 822 664 775 q 457 868 571 868 l 347 868 l 347 508 l 407 508 q 516 531 486 508 q 547 617 546 554 q 632 628 582 628 q 628 474 628 560 q 632 311 628 378 q 550 319 581 311 q 515 410 544 386 q 407 435 485 435 l 347 435 l 347 215 q 357 129 347 158 q 392 88 367 100 q 468 76 418 76 l 481 76 q 606 95 561 76 q 676 151 651 114 q 722 256 700 188 q 810 218 781 246 q 767 -3 782 135 l 693 -1 z "},"Ǝ":{"ha":856,"x_min":46,"x_max":789,"o":"m 686 214 q 694 126 686 156 q 722 85 703 97 q 781 71 742 74 q 789 -4 789 44 q 407 0 688 0 q 89 -3 214 0 q 46 218 74 135 q 132 256 72 244 q 178 151 154 189 q 249 95 203 114 q 374 76 294 76 l 388 76 q 463 88 438 76 q 498 129 488 100 q 508 215 508 158 l 508 435 l 449 435 q 340 411 369 435 q 304 319 310 388 q 222 311 276 311 q 226 474 226 378 q 222 628 226 560 q 307 617 272 628 q 338 531 308 554 q 449 508 368 508 l 508 508 l 508 868 l 399 868 q 238 822 285 868 q 182 696 192 775 q 94 715 125 696 q 124 943 114 794 q 510 939 294 939 q 789 943 690 939 q 781 868 789 892 q 722 853 742 864 q 694 815 703 842 q 686 736 686 789 l 686 214 z "},"Ẽ":{"ha":856,"x_min":67,"x_max":810,"o":"m 722 256 q 810 218 781 246 q 767 -3 782 135 q 449 0 639 0 q 67 -4 167 0 q 75 71 67 49 q 133 85 114 74 q 161 126 153 97 q 169 214 169 156 l 169 736 q 161 815 169 789 q 133 853 153 842 q 74 868 113 864 q 67 943 67 893 q 346 939 163 939 q 731 943 564 939 q 760 715 740 794 q 672 696 729 696 q 617 822 664 775 q 457 868 571 868 l 347 868 l 347 508 l 407 508 q 516 531 486 508 q 547 617 546 554 q 632 628 582 628 q 628 474 628 560 q 632 311 628 378 q 550 319 581 311 q 515 410 544 386 q 407 435 485 435 l 347 435 l 347 215 q 357 129 347 158 q 392 88 367 100 q 468 76 418 76 l 481 76 q 606 95 561 76 q 676 151 651 114 q 722 256 700 188 m 486 1033 q 438 1040 458 1033 q 383 1063 417 1047 q 336 1081 354 1075 q 296 1088 318 1088 q 194 1036 242 1088 q 165 1100 167 1061 q 246 1172 201 1150 q 335 1194 290 1194 q 387 1187 364 1194 q 442 1165 410 1179 q 486 1147 468 1153 q 522 1142 504 1142 q 603 1185 567 1142 q 657 1156 638 1179 q 486 1033 592 1033 z "},"Ʒ":{"ha":844,"x_min":76,"x_max":779,"o":"m 492 522 q 704 447 629 511 q 779 269 779 382 q 676 63 779 138 q 382 -12 572 -12 q 88 53 211 -12 q 87 161 90 99 q 76 272 83 224 q 175 285 118 285 q 235 122 188 172 q 381 71 283 71 q 533 119 478 71 q 588 253 588 167 q 514 403 588 351 q 304 454 440 454 q 290 492 296 469 q 283 531 283 514 q 529 868 414 678 l 365 868 q 273 853 307 868 q 217 799 239 839 q 179 682 196 760 q 79 699 108 682 q 99 815 92 749 q 107 942 107 881 q 442 939 229 939 q 726 942 631 939 q 746 879 746 915 q 492 522 640 700 z "},"Ǯ":{"ha":844,"x_min":76,"x_max":779,"o":"m 492 522 q 704 447 629 511 q 779 269 779 382 q 676 63 779 138 q 382 -12 572 -12 q 88 53 211 -12 q 87 161 90 99 q 76 272 83 224 q 175 285 118 285 q 235 122 188 172 q 381 71 283 71 q 533 119 478 71 q 588 253 588 167 q 514 403 588 351 q 304 454 440 454 q 290 492 296 469 q 283 531 283 514 q 529 868 414 678 l 365 868 q 273 853 307 868 q 217 799 239 839 q 179 682 196 760 q 79 699 108 682 q 99 815 92 749 q 107 942 107 881 q 442 939 229 939 q 726 942 631 939 q 746 879 746 915 q 492 522 640 700 m 358 1013 q 171 1181 282 1096 q 244 1226 199 1217 q 411 1136 360 1158 q 503 1182 450 1154 q 585 1228 556 1210 q 615 1207 603 1224 q 631 1172 626 1190 q 431 1021 507 1093 q 358 1013 404 1013 z "},"F":{"ha":804,"x_min":67,"x_max":761,"o":"m 347 868 l 347 474 l 426 474 q 535 497 506 474 q 567 582 565 519 q 651 593 601 593 q 647 439 647 525 q 651 276 647 343 q 569 285 597 276 q 534 376 564 351 q 426 400 504 400 l 347 400 l 347 226 q 360 133 347 165 q 400 88 372 101 q 479 71 428 74 q 489 -4 489 49 q 285 0 418 0 q 67 -4 133 0 q 74 71 67 49 q 133 85 113 74 q 161 123 153 96 q 169 203 169 150 l 169 736 q 161 815 169 789 q 133 853 153 842 q 75 868 114 864 q 67 943 67 897 q 344 939 169 939 q 732 943 561 939 q 761 715 742 794 q 674 696 731 696 q 617 822 664 775 q 457 868 571 868 l 347 868 z "},"G":{"ha":1001,"x_min":49,"x_max":929,"o":"m 517 -12 q 270 48 376 -12 q 106 219 164 108 q 49 481 49 331 q 114 735 49 629 q 290 897 179 842 q 536 951 401 951 q 715 933 629 951 q 867 883 801 914 q 851 668 851 806 q 757 654 817 654 q 697 829 751 781 q 540 878 642 878 q 373 827 440 878 q 273 694 306 776 q 240 511 240 611 q 275 285 240 385 q 378 127 310 185 q 542 69 446 69 q 603 73 579 69 q 653 86 628 76 q 688 117 676 96 q 699 189 699 139 l 699 251 q 691 335 699 310 q 660 369 683 361 q 586 379 638 378 q 576 457 576 404 q 754 453 639 453 q 929 456 851 453 q 921 379 929 406 q 879 369 892 378 q 863 337 867 361 q 858 258 858 313 l 858 206 q 863 142 858 167 q 879 93 867 117 q 720 17 814 46 q 517 -12 626 -12 z "},"Ğ":{"ha":1001,"x_min":49,"x_max":929,"o":"m 517 -12 q 270 48 376 -12 q 106 219 164 108 q 49 481 49 331 q 114 735 49 629 q 290 897 179 842 q 536 951 401 951 q 715 933 629 951 q 867 883 801 914 q 851 668 851 806 q 757 654 817 654 q 697 829 751 781 q 540 878 642 878 q 373 827 440 878 q 273 694 306 776 q 240 511 240 611 q 275 285 240 385 q 378 127 310 185 q 542 69 446 69 q 603 73 579 69 q 653 86 628 76 q 688 117 676 96 q 699 189 699 139 l 699 251 q 691 335 699 310 q 660 369 683 361 q 586 379 638 378 q 576 457 576 404 q 754 453 639 453 q 929 456 851 453 q 921 379 929 406 q 879 369 892 378 q 863 337 867 361 q 858 258 858 313 l 858 206 q 863 142 858 167 q 879 93 867 117 q 720 17 814 46 q 517 -12 626 -12 m 750 1203 q 692 1058 750 1108 q 526 1008 635 1008 q 363 1056 419 1008 q 307 1197 307 1104 q 396 1211 344 1215 q 442 1140 403 1165 q 540 1115 481 1115 q 635 1140 599 1115 q 674 1211 671 1165 q 696 1213 681 1213 q 750 1203 724 1213 z "},"Ǧ":{"ha":1001,"x_min":49,"x_max":929,"o":"m 517 -12 q 270 48 376 -12 q 106 219 164 108 q 49 481 49 331 q 114 735 49 629 q 290 897 179 842 q 536 951 401 951 q 715 933 629 951 q 867 883 801 914 q 851 668 851 806 q 757 654 817 654 q 697 829 751 781 q 540 878 642 878 q 373 827 440 878 q 273 694 306 776 q 240 511 240 611 q 275 285 240 385 q 378 127 310 185 q 542 69 446 69 q 603 73 579 69 q 653 86 628 76 q 688 117 676 96 q 699 189 699 139 l 699 251 q 691 335 699 310 q 660 369 683 361 q 586 379 638 378 q 576 457 576 404 q 754 453 639 453 q 929 456 851 453 q 921 379 929 406 q 879 369 892 378 q 863 337 867 361 q 858 258 858 313 l 858 206 q 863 142 858 167 q 879 93 867 117 q 720 17 814 46 q 517 -12 626 -12 m 479 1013 q 292 1181 403 1096 q 365 1226 319 1217 q 532 1136 481 1158 q 624 1182 571 1154 q 706 1228 676 1210 q 735 1207 724 1224 q 751 1172 747 1190 q 551 1021 628 1093 q 479 1013 525 1013 z "},"Ĝ":{"ha":1001,"x_min":49,"x_max":929,"o":"m 517 -12 q 270 48 376 -12 q 106 219 164 108 q 49 481 49 331 q 114 735 49 629 q 290 897 179 842 q 536 951 401 951 q 715 933 629 951 q 867 883 801 914 q 851 668 851 806 q 757 654 817 654 q 697 829 751 781 q 540 878 642 878 q 373 827 440 878 q 273 694 306 776 q 240 511 240 611 q 275 285 240 385 q 378 127 310 185 q 542 69 446 69 q 603 73 579 69 q 653 86 628 76 q 688 117 676 96 q 699 189 699 139 l 699 251 q 691 335 699 310 q 660 369 683 361 q 586 379 638 378 q 576 457 576 404 q 754 453 639 453 q 929 456 851 453 q 921 379 929 406 q 879 369 892 378 q 863 337 867 361 q 858 258 858 313 l 858 206 q 863 142 858 167 q 879 93 867 117 q 720 17 814 46 q 517 -12 626 -12 m 343 1011 q 315 1033 326 1015 q 299 1067 303 1050 q 499 1218 422 1146 q 571 1226 525 1226 q 758 1060 649 1142 q 683 1013 732 1024 q 517 1103 576 1076 q 343 1011 396 1044 z "},"Ģ":{"ha":1001,"x_min":49,"x_max":929,"o":"m 517 -12 q 270 48 376 -12 q 106 219 164 108 q 49 481 49 331 q 114 735 49 629 q 290 897 179 842 q 536 951 401 951 q 715 933 629 951 q 867 883 801 914 q 851 668 851 806 q 757 654 817 654 q 697 829 751 781 q 540 878 642 878 q 373 827 440 878 q 273 694 306 776 q 240 511 240 611 q 275 285 240 385 q 378 127 310 185 q 542 69 446 69 q 603 73 579 69 q 653 86 628 76 q 688 117 676 96 q 699 189 699 139 l 699 251 q 691 335 699 310 q 660 369 683 361 q 586 379 638 378 q 576 457 576 404 q 754 453 639 453 q 929 456 851 453 q 921 379 929 406 q 879 369 892 378 q 863 337 867 361 q 858 258 858 313 l 858 206 q 863 142 858 167 q 879 93 867 117 q 720 17 814 46 q 517 -12 626 -12 m 568 -57 q 624 -158 624 -76 q 582 -293 624 -231 q 472 -404 540 -356 q 413 -374 431 -401 q 467 -310 449 -342 q 485 -251 485 -278 q 469 -215 485 -228 q 421 -199 454 -203 q 423 -149 418 -179 q 436 -99 428 -119 q 568 -57 517 -90 z "},"Ġ":{"ha":1001,"x_min":49,"x_max":929,"o":"m 517 -12 q 270 48 376 -12 q 106 219 164 108 q 49 481 49 331 q 114 735 49 629 q 290 897 179 842 q 536 951 401 951 q 715 933 629 951 q 867 883 801 914 q 851 668 851 806 q 757 654 817 654 q 697 829 751 781 q 540 878 642 878 q 373 827 440 878 q 273 694 306 776 q 240 511 240 611 q 275 285 240 385 q 378 127 310 185 q 542 69 446 69 q 603 73 579 69 q 653 86 628 76 q 688 117 676 96 q 699 189 699 139 l 699 251 q 691 335 699 310 q 660 369 683 361 q 586 379 638 378 q 576 457 576 404 q 754 453 639 453 q 929 456 851 453 q 921 379 929 406 q 879 369 892 378 q 863 337 867 361 q 858 258 858 313 l 858 206 q 863 142 858 167 q 879 93 867 117 q 720 17 814 46 q 517 -12 626 -12 z "},"Ḡ":{"ha":1001,"x_min":49,"x_max":929,"o":"m 517 -12 q 270 48 376 -12 q 106 219 164 108 q 49 481 49 331 q 114 735 49 629 q 290 897 179 842 q 536 951 401 951 q 715 933 629 951 q 867 883 801 914 q 851 668 851 806 q 757 654 817 654 q 697 829 751 781 q 540 878 642 878 q 373 827 440 878 q 273 694 306 776 q 240 511 240 611 q 275 285 240 385 q 378 127 310 185 q 542 69 446 69 q 603 73 579 69 q 653 86 628 76 q 688 117 676 96 q 699 189 699 139 l 699 251 q 691 335 699 310 q 660 369 683 361 q 586 379 638 378 q 576 457 576 404 q 754 453 639 453 q 929 456 851 453 q 921 379 929 406 q 879 369 892 378 q 863 337 867 361 q 858 258 858 313 l 858 206 q 863 142 858 167 q 879 93 867 117 q 720 17 814 46 q 517 -12 626 -12 m 788 1128 q 775 1058 788 1090 q 269 1050 529 1058 q 273 1090 269 1067 q 282 1128 276 1114 l 788 1128 z "},"Ǥ":{"ha":1001,"x_min":49,"x_max":974,"o":"m 974 275 q 960 189 974 218 q 858 190 919 190 q 864 135 860 157 q 879 93 868 114 q 720 17 814 46 q 517 -12 626 -12 q 270 48 376 -12 q 106 219 164 108 q 49 481 49 331 q 114 735 49 629 q 290 897 179 842 q 536 951 401 951 q 715 933 629 951 q 867 883 801 914 q 851 668 851 806 q 757 654 817 654 q 697 829 751 781 q 540 878 642 878 q 373 827 440 878 q 273 694 306 776 q 240 511 240 611 q 275 285 240 385 q 378 127 310 185 q 542 69 446 69 q 603 73 579 69 q 653 86 628 76 q 688 117 676 96 q 699 189 699 139 l 699 190 q 578 189 622 190 l 508 188 q 513 235 508 210 q 524 275 517 261 l 699 275 q 688 342 697 321 q 657 370 679 363 q 586 379 635 378 q 576 457 576 404 q 754 453 639 453 q 929 456 851 453 q 921 379 929 406 q 881 370 893 378 q 865 342 869 363 q 858 275 860 321 l 974 275 z "},"Ȝ":{"ha":807,"x_min":76,"x_max":742,"o":"m 444 426 q 659 356 576 426 q 742 146 742 285 q 686 -53 742 35 q 531 -189 631 -140 q 306 -237 432 -237 q 171 -220 231 -237 q 76 -174 111 -203 q 104 -111 79 -136 q 173 -141 124 -128 q 275 -154 222 -154 q 421 -118 358 -154 q 518 -16 483 -82 q 553 136 553 50 q 501 297 553 242 q 356 353 450 353 q 224 325 286 353 q 206 410 203 358 q 439 522 371 454 q 507 693 507 589 q 465 829 507 783 q 343 875 422 875 q 238 833 274 875 q 185 685 203 790 q 90 700 133 682 q 94 796 94 744 q 90 890 94 843 q 208 935 139 919 q 358 951 276 951 q 610 887 525 951 q 696 711 696 822 q 633 548 696 618 q 444 426 571 478 z "},"H":{"ha":1068,"x_min":67,"x_max":1001,"o":"m 899 203 q 907 123 899 150 q 935 85 915 96 q 993 71 954 74 q 1001 -4 1001 49 q 817 0 925 0 q 618 -4 697 0 q 628 71 618 46 q 686 85 667 74 q 713 123 706 96 q 721 203 721 150 l 721 444 q 347 435 444 444 l 347 203 q 356 123 347 150 q 383 85 364 96 q 442 71 403 74 q 450 -4 450 44 q 265 0 374 0 q 67 -4 146 0 q 75 71 67 44 q 133 85 114 74 q 161 123 153 96 q 169 203 169 150 l 169 736 q 161 815 169 789 q 133 853 153 842 q 75 868 114 864 q 67 943 67 897 q 260 939 139 939 q 450 943 367 939 q 440 868 450 894 q 382 854 401 865 q 355 816 363 843 q 347 736 347 789 l 347 521 l 721 521 l 721 736 q 713 815 721 789 q 685 853 704 842 q 626 868 665 864 q 618 943 618 897 q 813 939 693 939 q 1001 943 918 939 q 993 868 1001 894 q 935 854 954 865 q 907 816 915 843 q 899 736 899 789 l 899 203 z "},"Ħ":{"ha":1068,"x_min":67,"x_max":1001,"o":"m 899 203 q 907 123 899 150 q 935 85 915 96 q 993 71 954 74 q 1001 -4 1001 49 q 817 0 925 0 q 618 -4 697 0 q 628 71 618 46 q 686 85 667 74 q 713 123 706 96 q 721 203 721 150 l 721 444 q 347 435 444 444 l 347 203 q 356 123 347 150 q 383 85 364 96 q 442 71 403 74 q 450 -4 450 44 q 265 0 374 0 q 67 -4 146 0 q 75 71 67 44 q 133 85 114 74 q 161 123 153 96 q 169 203 169 150 l 169 628 l 76 626 q 81 669 76 646 q 92 706 85 692 l 169 706 l 169 736 q 161 815 169 789 q 133 853 153 842 q 75 868 114 864 q 67 943 67 897 q 260 939 139 939 q 450 943 367 939 q 440 868 450 894 q 382 854 401 865 q 355 816 363 843 q 347 736 347 789 l 347 706 l 721 706 l 721 736 q 713 815 721 789 q 685 853 704 842 q 626 868 665 864 q 618 943 618 897 q 813 939 693 939 q 1001 943 918 939 q 993 868 1001 894 q 935 854 954 865 q 907 816 915 843 q 899 736 899 789 l 899 706 l 992 706 q 976 632 992 669 l 899 632 l 899 203 m 721 521 l 721 632 q 347 629 603 632 l 347 521 l 721 521 z "},"Ḫ":{"ha":1068,"x_min":67,"x_max":1001,"o":"m 899 203 q 907 123 899 150 q 935 85 915 96 q 993 71 954 74 q 1001 -4 1001 49 q 817 0 925 0 q 618 -4 697 0 q 628 71 618 46 q 686 85 667 74 q 713 123 706 96 q 721 203 721 150 l 721 444 q 347 435 444 444 l 347 203 q 356 123 347 150 q 383 85 364 96 q 442 71 403 74 q 450 -4 450 44 q 265 0 374 0 q 67 -4 146 0 q 75 71 67 44 q 133 85 114 74 q 161 123 153 96 q 169 203 169 150 l 169 736 q 161 815 169 789 q 133 853 153 842 q 75 868 114 864 q 67 943 67 897 q 260 939 139 939 q 450 943 367 939 q 440 868 450 894 q 382 854 401 865 q 355 816 363 843 q 347 736 347 789 l 347 521 l 721 521 l 721 736 q 713 815 721 789 q 685 853 704 842 q 626 868 665 864 q 618 943 618 897 q 813 939 693 939 q 1001 943 918 939 q 993 868 1001 894 q 935 854 954 865 q 907 816 915 843 q 899 736 899 789 l 899 203 z "},"Ȟ":{"ha":1068,"x_min":67,"x_max":1001,"o":"m 899 203 q 907 123 899 150 q 935 85 915 96 q 993 71 954 74 q 1001 -4 1001 49 q 817 0 925 0 q 618 -4 697 0 q 628 71 618 46 q 686 85 667 74 q 713 123 706 96 q 721 203 721 150 l 721 444 q 347 435 444 444 l 347 203 q 356 123 347 150 q 383 85 364 96 q 442 71 403 74 q 450 -4 450 44 q 265 0 374 0 q 67 -4 146 0 q 75 71 67 44 q 133 85 114 74 q 161 123 153 96 q 169 203 169 150 l 169 736 q 161 815 169 789 q 133 853 153 842 q 75 868 114 864 q 67 943 67 897 q 260 939 139 939 q 450 943 367 939 q 440 868 450 894 q 382 854 401 865 q 355 816 363 843 q 347 736 347 789 l 347 521 l 721 521 l 721 736 q 713 815 721 789 q 685 853 704 842 q 626 868 665 864 q 618 943 618 897 q 813 939 693 939 q 1001 943 918 939 q 993 868 1001 894 q 935 854 954 865 q 907 816 915 843 q 899 736 899 789 l 899 203 m 485 1013 q 297 1181 408 1096 q 371 1226 325 1217 q 538 1136 486 1158 q 629 1182 576 1154 q 711 1228 682 1210 q 741 1207 729 1224 q 757 1172 753 1190 q 557 1021 633 1093 q 485 1013 531 1013 z "},"Ĥ":{"ha":1068,"x_min":67,"x_max":1001,"o":"m 899 203 q 907 123 899 150 q 935 85 915 96 q 993 71 954 74 q 1001 -4 1001 49 q 817 0 925 0 q 618 -4 697 0 q 628 71 618 46 q 686 85 667 74 q 713 123 706 96 q 721 203 721 150 l 721 444 q 347 435 444 444 l 347 203 q 356 123 347 150 q 383 85 364 96 q 442 71 403 74 q 450 -4 450 44 q 265 0 374 0 q 67 -4 146 0 q 75 71 67 44 q 133 85 114 74 q 161 123 153 96 q 169 203 169 150 l 169 736 q 161 815 169 789 q 133 853 153 842 q 75 868 114 864 q 67 943 67 897 q 260 939 139 939 q 450 943 367 939 q 440 868 450 894 q 382 854 401 865 q 355 816 363 843 q 347 736 347 789 l 347 521 l 721 521 l 721 736 q 713 815 721 789 q 685 853 704 842 q 626 868 665 864 q 618 943 618 897 q 813 939 693 939 q 1001 943 918 939 q 993 868 1001 894 q 935 854 954 865 q 907 816 915 843 q 899 736 899 789 l 899 203 m 349 1011 q 320 1033 332 1015 q 304 1067 308 1050 q 504 1218 428 1146 q 576 1226 531 1226 q 764 1060 654 1142 q 689 1013 738 1024 q 522 1103 582 1076 q 349 1011 401 1044 z "},"Ḥ":{"ha":1068,"x_min":67,"x_max":1001,"o":"m 899 203 q 907 123 899 150 q 935 85 915 96 q 993 71 954 74 q 1001 -4 1001 49 q 817 0 925 0 q 618 -4 697 0 q 628 71 618 46 q 686 85 667 74 q 713 123 706 96 q 721 203 721 150 l 721 444 q 347 435 444 444 l 347 203 q 356 123 347 150 q 383 85 364 96 q 442 71 403 74 q 450 -4 450 44 q 265 0 374 0 q 67 -4 146 0 q 75 71 67 44 q 133 85 114 74 q 161 123 153 96 q 169 203 169 150 l 169 736 q 161 815 169 789 q 133 853 153 842 q 75 868 114 864 q 67 943 67 897 q 260 939 139 939 q 450 943 367 939 q 440 868 450 894 q 382 854 401 865 q 355 816 363 843 q 347 736 347 789 l 347 521 l 721 521 l 721 736 q 713 815 721 789 q 685 853 704 842 q 626 868 665 864 q 618 943 618 897 q 813 939 693 939 q 1001 943 918 939 q 993 868 1001 894 q 935 854 954 865 q 907 816 915 843 q 899 736 899 789 l 899 203 m 531 -303 q 458 -277 486 -303 q 429 -212 429 -251 q 459 -142 429 -169 q 533 -115 489 -115 q 610 -141 582 -115 q 639 -211 639 -167 q 608 -276 639 -250 q 531 -303 578 -303 z "},"I":{"ha":515,"x_min":67,"x_max":450,"o":"m 169 736 q 161 815 169 789 q 133 853 153 842 q 75 868 114 864 q 67 943 67 897 q 260 939 139 939 q 450 943 367 939 q 440 868 450 894 q 382 854 401 865 q 355 816 363 843 q 347 736 347 789 l 347 203 q 356 123 347 150 q 383 85 364 96 q 442 71 403 74 q 450 -4 450 44 q 265 0 374 0 q 67 -4 146 0 q 75 71 67 44 q 133 85 114 74 q 161 123 153 96 q 169 203 169 150 l 169 736 z "},"Ĳ":{"ha":914,"x_min":67,"x_max":861,"o":"m 169 736 q 161 815 169 789 q 133 853 153 842 q 75 868 114 864 q 67 943 67 897 q 260 939 139 939 q 450 943 367 939 q 440 868 450 894 q 382 854 401 865 q 355 816 363 843 q 347 736 347 789 l 347 203 q 356 123 347 150 q 383 85 364 96 q 442 71 403 74 q 450 -4 450 44 q 265 0 374 0 q 67 -4 146 0 q 75 71 67 44 q 133 85 114 74 q 161 123 153 96 q 169 203 169 150 l 169 736 m 758 178 q 737 -53 758 38 q 650 -215 715 -143 q 457 -346 585 -286 q 424 -289 431 -329 q 544 -147 507 -224 q 581 60 581 -71 l 581 735 q 572 816 581 789 q 544 854 564 843 q 486 868 525 865 q 478 943 478 897 q 669 939 547 939 q 861 943 799 939 q 853 868 861 892 q 794 853 814 865 q 767 814 775 842 q 758 735 758 786 l 758 178 z "},"Í":{"ha":515,"x_min":67,"x_max":450,"o":"m 169 736 q 161 815 169 789 q 133 853 153 842 q 75 868 114 864 q 67 943 67 897 q 260 939 139 939 q 450 943 367 939 q 440 868 450 894 q 382 854 401 865 q 355 816 363 843 q 347 736 347 789 l 347 203 q 356 123 347 150 q 383 85 364 96 q 442 71 403 74 q 450 -4 450 44 q 265 0 374 0 q 67 -4 146 0 q 75 71 67 44 q 133 85 114 74 q 161 123 153 96 q 169 203 169 150 l 169 736 m 278 1018 q 194 1031 226 1018 q 275 1210 244 1122 q 361 1221 319 1221 q 436 1211 407 1221 q 278 1018 344 1106 z "},"Ĭ":{"ha":515,"x_min":53,"x_max":463,"o":"m 256 992 q 103 1043 154 992 q 53 1194 53 1094 q 128 1207 88 1211 q 174 1127 139 1156 q 267 1099 208 1099 q 360 1127 326 1099 q 399 1207 394 1156 q 418 1208 406 1208 q 463 1200 447 1208 q 410 1045 463 1099 q 256 992 358 992 m 169 736 q 161 815 169 789 q 133 853 153 842 q 75 868 114 864 q 67 943 67 897 q 260 939 139 939 q 450 943 367 939 q 440 868 450 894 q 382 854 401 865 q 355 816 363 843 q 347 736 347 789 l 347 203 q 356 123 347 150 q 383 85 364 96 q 442 71 403 74 q 450 -4 450 44 q 265 0 374 0 q 67 -4 146 0 q 75 71 67 44 q 133 85 114 74 q 161 123 153 96 q 169 203 169 150 l 169 736 z "},"Ǐ":{"ha":515,"x_min":57,"x_max":458,"o":"m 218 985 q 57 1174 157 1061 q 92 1200 69 1189 q 138 1214 115 1211 q 276 1113 199 1160 q 403 1217 343 1157 q 458 1161 444 1200 q 290 996 401 1110 q 218 985 253 985 m 169 736 q 161 815 169 789 q 133 853 153 842 q 75 868 114 864 q 67 943 67 897 q 260 939 139 939 q 450 943 367 939 q 440 868 450 894 q 382 854 401 865 q 355 816 363 843 q 347 736 347 789 l 347 203 q 356 123 347 150 q 383 85 364 96 q 442 71 403 74 q 450 -4 450 44 q 265 0 374 0 q 67 -4 146 0 q 75 71 67 44 q 133 85 114 74 q 161 123 153 96 q 169 203 169 150 l 169 736 z "},"Î":{"ha":515,"x_min":57,"x_max":458,"o":"m 114 985 q 57 1040 71 1001 q 197 1176 106 1081 l 225 1206 q 299 1217 272 1217 q 458 1028 356 1143 q 423 1001 446 1013 q 378 988 400 990 q 240 1089 318 1039 q 114 985 165 1039 m 169 736 q 161 815 169 789 q 133 853 153 842 q 75 868 114 864 q 67 943 67 897 q 260 939 139 939 q 450 943 367 939 q 440 868 450 894 q 382 854 401 865 q 355 816 363 843 q 347 736 347 789 l 347 203 q 356 123 347 150 q 383 85 364 96 q 442 71 403 74 q 450 -4 450 44 q 265 0 374 0 q 67 -4 146 0 q 75 71 67 44 q 133 85 114 74 q 161 123 153 96 q 169 203 169 150 l 169 736 z "},"Ȉ":{"ha":515,"x_min":-12,"x_max":450,"o":"m 169 736 q 161 815 169 789 q 133 853 153 842 q 75 868 114 864 q 67 943 67 897 q 260 939 139 939 q 450 943 367 939 q 440 868 450 894 q 382 854 401 865 q 355 816 363 843 q 347 736 347 789 l 347 203 q 356 123 347 150 q 383 85 364 96 q 442 71 403 74 q 450 -4 450 44 q 265 0 374 0 q 67 -4 146 0 q 75 71 67 44 q 133 85 114 74 q 161 123 153 96 q 169 203 169 150 l 169 736 m 131 1000 q -12 1174 43 1117 q 55 1194 15 1188 q 135 1197 94 1200 q 214 1013 168 1101 q 131 1000 182 1000 m 347 1000 q 213 1176 268 1115 q 276 1194 239 1189 q 353 1197 314 1200 q 431 1013 388 1093 q 347 1000 400 1000 z "},"Ï":{"ha":515,"x_min":40,"x_max":475,"o":"m 136 1011 q 67 1034 94 1011 q 40 1090 40 1057 q 63 1153 40 1128 q 133 1179 86 1179 q 205 1156 181 1179 q 229 1093 229 1132 q 202 1035 229 1058 q 136 1011 175 1011 m 383 1013 q 309 1036 335 1013 q 283 1100 283 1060 q 309 1158 283 1138 q 378 1179 335 1179 q 447 1157 419 1179 q 475 1100 475 1135 q 453 1038 475 1063 q 383 1013 431 1013 m 169 736 q 161 815 169 789 q 133 853 153 842 q 75 868 114 864 q 67 943 67 897 q 260 939 139 939 q 450 943 367 939 q 440 868 450 894 q 382 854 401 865 q 355 816 363 843 q 347 736 347 789 l 347 203 q 356 123 347 150 q 383 85 364 96 q 442 71 403 74 q 450 -4 450 44 q 265 0 374 0 q 67 -4 146 0 q 75 71 67 44 q 133 85 114 74 q 161 123 153 96 q 169 203 169 150 l 169 736 z "},"Ḯ":{"ha":515,"x_min":40,"x_max":475,"o":"m 278 1225 q 194 1239 231 1225 q 274 1418 247 1340 q 361 1429 321 1429 q 436 1418 403 1429 q 278 1225 360 1332 m 136 1011 q 67 1034 94 1011 q 40 1090 40 1057 q 63 1153 40 1128 q 133 1179 86 1179 q 205 1156 181 1179 q 229 1093 229 1132 q 202 1035 229 1058 q 136 1011 175 1011 m 383 1013 q 309 1036 335 1013 q 283 1100 283 1060 q 309 1158 283 1138 q 378 1179 335 1179 q 447 1157 419 1179 q 475 1100 475 1135 q 453 1038 475 1063 q 383 1013 431 1013 m 169 736 q 161 815 169 789 q 133 853 153 842 q 75 868 114 864 q 67 943 67 897 q 260 939 139 939 q 450 943 367 939 q 440 868 450 894 q 382 854 401 865 q 355 816 363 843 q 347 736 347 789 l 347 203 q 356 123 347 150 q 383 85 364 96 q 442 71 403 74 q 450 -4 450 44 q 265 0 374 0 q 67 -4 146 0 q 75 71 67 44 q 133 85 114 74 q 161 123 153 96 q 169 203 169 150 l 169 736 z "},"İ":{"ha":515,"x_min":67,"x_max":450,"o":"m 169 736 q 161 815 169 789 q 133 853 153 842 q 75 868 114 864 q 67 943 67 897 q 260 939 139 939 q 450 943 367 939 q 440 868 450 894 q 382 854 401 865 q 355 816 363 843 q 347 736 347 789 l 347 203 q 356 123 347 150 q 383 85 364 96 q 442 71 403 74 q 450 -4 450 44 q 265 0 374 0 q 67 -4 146 0 q 75 71 67 44 q 133 85 114 74 q 161 123 153 96 q 169 203 169 150 l 169 736 z "},"Ị":{"ha":515,"x_min":67,"x_max":450,"o":"m 169 736 q 161 815 169 789 q 133 853 153 842 q 75 868 114 864 q 67 943 67 897 q 260 939 139 939 q 450 943 367 939 q 440 868 450 894 q 382 854 401 865 q 355 816 363 843 q 347 736 347 789 l 347 203 q 356 123 347 150 q 383 85 364 96 q 442 71 403 74 q 450 -4 450 44 q 265 0 374 0 q 67 -4 146 0 q 75 71 67 44 q 133 85 114 74 q 161 123 153 96 q 169 203 169 150 l 169 736 m 253 -303 q 180 -277 208 -303 q 151 -212 151 -251 q 181 -142 151 -169 q 256 -115 211 -115 q 333 -141 304 -115 q 361 -211 361 -167 q 331 -276 361 -250 q 253 -303 300 -303 z "},"Ì":{"ha":515,"x_min":67,"x_max":450,"o":"m 169 736 q 161 815 169 789 q 133 853 153 842 q 75 868 114 864 q 67 943 67 897 q 260 939 139 939 q 450 943 367 939 q 440 868 450 894 q 382 854 401 865 q 355 816 363 843 q 347 736 347 789 l 347 203 q 356 123 347 150 q 383 85 364 96 q 442 71 403 74 q 450 -4 450 44 q 265 0 374 0 q 67 -4 146 0 q 75 71 67 44 q 133 85 114 74 q 161 123 153 96 q 169 203 169 150 l 169 736 m 235 1018 q 85 1193 160 1118 q 233 1215 139 1221 q 322 1031 272 1114 q 235 1018 292 1018 z "},"Ỉ":{"ha":515,"x_min":67,"x_max":450,"o":"m 169 736 q 161 815 169 789 q 133 853 153 842 q 75 868 114 864 q 67 943 67 897 q 260 939 139 939 q 450 943 367 939 q 440 868 450 894 q 382 854 401 865 q 355 816 363 843 q 347 736 347 789 l 347 203 q 356 123 347 150 q 383 85 364 96 q 442 71 403 74 q 450 -4 450 44 q 265 0 374 0 q 67 -4 146 0 q 75 71 67 44 q 133 85 114 74 q 161 123 153 96 q 169 203 169 150 l 169 736 m 226 1004 q 211 1046 211 1024 q 223 1082 211 1068 q 257 1111 235 1096 q 284 1135 275 1125 q 293 1160 293 1146 q 283 1181 293 1174 q 256 1189 272 1189 q 214 1169 229 1189 q 193 1103 199 1150 q 118 1118 144 1103 q 122 1164 122 1143 q 118 1201 122 1183 q 265 1244 181 1244 q 363 1224 328 1244 q 397 1161 397 1203 q 381 1114 397 1132 q 333 1075 364 1096 q 303 1053 313 1061 q 294 1032 294 1044 q 297 1013 294 1024 q 226 1004 269 1001 z "},"Ȋ":{"ha":515,"x_min":53,"x_max":463,"o":"m 169 736 q 161 815 169 789 q 133 853 153 842 q 75 868 114 864 q 67 943 67 897 q 260 939 139 939 q 450 943 367 939 q 440 868 450 894 q 382 854 401 865 q 355 816 363 843 q 347 736 347 789 l 347 203 q 356 123 347 150 q 383 85 364 96 q 442 71 403 74 q 450 -4 450 44 q 265 0 374 0 q 67 -4 146 0 q 75 71 67 44 q 133 85 114 74 q 161 123 153 96 q 169 203 169 150 l 169 736 m 260 1208 q 412 1156 361 1208 q 463 1006 463 1104 q 386 993 429 989 q 342 1073 376 1044 q 247 1101 307 1101 q 154 1072 189 1101 q 117 993 119 1043 q 96 992 110 992 q 53 1000 68 992 q 105 1155 53 1101 q 260 1208 157 1208 z "},"Ī":{"ha":515,"x_min":51,"x_max":464,"o":"m 51 1044 q 55 1091 51 1067 q 65 1128 58 1115 l 464 1128 q 451 1054 464 1099 q 51 1044 253 1054 m 169 736 q 161 815 169 789 q 133 853 153 842 q 75 868 114 864 q 67 943 67 897 q 260 939 139 939 q 450 943 367 939 q 440 868 450 894 q 382 854 401 865 q 355 816 363 843 q 347 736 347 789 l 347 203 q 356 123 347 150 q 383 85 364 96 q 442 71 403 74 q 450 -4 450 44 q 265 0 374 0 q 67 -4 146 0 q 75 71 67 44 q 133 85 114 74 q 161 123 153 96 q 169 203 169 150 l 169 736 z "},"Į":{"ha":515,"x_min":67,"x_max":450,"o":"m 333 0 q 261 -62 288 -28 q 235 -136 235 -97 q 329 -210 235 -210 q 383 -201 361 -210 q 396 -235 392 -214 q 397 -276 400 -257 q 268 -343 321 -301 q 240 -346 258 -346 q 138 -312 186 -346 q 89 -203 89 -278 q 239 0 89 -85 q 67 -4 136 0 q 75 71 67 44 q 133 85 114 74 q 161 123 153 96 q 169 203 169 150 l 169 736 q 161 815 169 789 q 133 853 153 842 q 75 868 114 864 q 67 943 67 897 q 260 939 139 939 q 450 943 367 939 q 440 868 450 894 q 382 854 401 865 q 355 816 363 843 q 347 736 347 789 l 347 203 q 356 123 347 150 q 383 85 364 96 q 442 71 403 74 q 450 -4 450 44 l 333 0 z "},"Ĩ":{"ha":515,"x_min":39,"x_max":475,"o":"m 329 1015 q 281 1022 300 1015 q 240 1043 263 1029 q 208 1061 221 1056 q 175 1067 194 1067 q 71 1018 126 1067 q 39 1068 43 1038 q 116 1159 76 1132 q 199 1186 156 1186 q 240 1179 224 1186 q 279 1160 257 1172 q 311 1142 297 1147 q 343 1136 325 1136 q 388 1147 365 1136 q 428 1178 410 1157 q 475 1140 463 1165 q 415 1045 450 1075 q 329 1015 381 1015 m 169 736 q 161 815 169 789 q 133 853 153 842 q 75 868 114 864 q 67 943 67 897 q 260 939 139 939 q 450 943 367 939 q 440 868 450 894 q 382 854 401 865 q 355 816 363 843 q 347 736 347 789 l 347 203 q 356 123 347 150 q 383 85 364 96 q 442 71 403 74 q 450 -4 450 44 q 265 0 374 0 q 67 -4 146 0 q 75 71 67 44 q 133 85 114 74 q 161 123 153 96 q 169 203 169 150 l 169 736 z "},"J":{"ha":486,"x_min":-4,"x_max":433,"o":"m 331 178 q 308 -53 331 38 q 222 -215 286 -143 q 29 -346 157 -286 q -4 -289 3 -329 q 116 -147 79 -224 q 153 60 153 -71 l 153 735 q 144 816 153 789 q 117 854 136 843 q 58 868 97 865 q 50 943 50 897 q 242 939 118 939 q 433 943 368 939 q 425 868 433 892 q 367 853 386 865 q 339 814 347 842 q 331 735 331 786 l 331 178 z "},"Ĵ":{"ha":486,"x_min":-4,"x_max":443,"o":"m 97 985 q 42 1040 54 1003 q 165 1160 82 1076 l 210 1206 q 282 1217 254 1217 q 443 1028 331 1154 q 408 1001 431 1013 q 363 988 385 990 q 224 1089 301 1042 q 97 985 150 1038 m 331 178 q 308 -53 331 38 q 222 -215 286 -143 q 29 -346 157 -286 q -4 -289 3 -329 q 116 -147 79 -224 q 153 60 153 -71 l 153 735 q 144 816 153 789 q 117 854 136 843 q 58 868 97 865 q 50 943 50 897 q 242 939 118 939 q 433 943 368 939 q 425 868 433 892 q 367 853 386 865 q 339 814 347 842 q 331 735 331 786 l 331 178 z "},"K":{"ha":982,"x_min":67,"x_max":957,"o":"m 756 213 q 848 109 808 139 q 957 74 888 79 q 946 0 957 29 q 683 -10 763 0 q 533 219 629 88 q 347 442 438 351 l 347 203 q 356 123 347 150 q 383 85 364 96 q 442 71 403 74 q 450 -4 450 44 q 265 0 374 0 q 67 -4 146 0 q 75 71 67 44 q 133 85 114 74 q 161 123 153 96 q 169 203 169 150 l 169 736 q 161 815 169 789 q 133 853 153 842 q 75 868 114 864 q 67 943 67 897 q 260 939 139 939 q 450 943 367 939 q 440 868 450 894 q 382 854 401 865 q 355 816 363 843 q 347 736 347 789 l 347 503 l 585 749 q 642 838 642 806 q 599 868 642 865 q 590 943 590 894 q 738 939 639 939 q 903 943 849 939 q 892 868 903 894 q 798 840 842 865 q 696 753 754 815 l 494 539 q 756 213 600 426 z "},"Ǩ":{"ha":982,"x_min":67,"x_max":957,"o":"m 756 213 q 848 109 808 139 q 957 74 888 79 q 946 0 957 29 q 683 -10 763 0 q 533 219 629 88 q 347 442 438 351 l 347 203 q 356 123 347 150 q 383 85 364 96 q 442 71 403 74 q 450 -4 450 44 q 265 0 374 0 q 67 -4 146 0 q 75 71 67 44 q 133 85 114 74 q 161 123 153 96 q 169 203 169 150 l 169 736 q 161 815 169 789 q 133 853 153 842 q 75 868 114 864 q 67 943 67 897 q 260 939 139 939 q 450 943 367 939 q 440 868 450 894 q 382 854 401 865 q 355 816 363 843 q 347 736 347 789 l 347 503 l 585 749 q 642 838 642 806 q 599 868 642 865 q 590 943 590 894 q 738 939 639 939 q 903 943 849 939 q 892 868 903 894 q 798 840 842 865 q 696 753 754 815 l 494 539 q 756 213 600 426 m 460 1013 q 272 1181 383 1096 q 346 1226 300 1217 q 513 1136 461 1158 q 604 1182 551 1154 q 686 1228 657 1210 q 716 1207 704 1224 q 732 1172 728 1190 q 532 1021 608 1093 q 460 1013 506 1013 z "},"Ķ":{"ha":982,"x_min":67,"x_max":957,"o":"m 756 213 q 848 109 808 139 q 957 74 888 79 q 946 0 957 29 q 683 -10 763 0 q 533 219 629 88 q 347 442 438 351 l 347 203 q 356 123 347 150 q 383 85 364 96 q 442 71 403 74 q 450 -4 450 44 q 265 0 374 0 q 67 -4 146 0 q 75 71 67 44 q 133 85 114 74 q 161 123 153 96 q 169 203 169 150 l 169 736 q 161 815 169 789 q 133 853 153 842 q 75 868 114 864 q 67 943 67 897 q 260 939 139 939 q 450 943 367 939 q 440 868 450 894 q 382 854 401 865 q 355 816 363 843 q 347 736 347 789 l 347 503 l 585 749 q 642 838 642 806 q 599 868 642 865 q 590 943 590 894 q 738 939 639 939 q 903 943 849 939 q 892 868 903 894 q 798 840 842 865 q 696 753 754 815 l 494 539 q 756 213 600 426 m 533 -57 q 589 -158 589 -76 q 547 -293 589 -231 q 438 -404 506 -356 q 378 -374 396 -401 q 432 -310 414 -342 q 450 -251 450 -278 q 435 -215 450 -228 q 386 -199 419 -203 q 388 -149 383 -179 q 401 -99 393 -119 q 533 -57 482 -90 z "},"L":{"ha":814,"x_min":67,"x_max":790,"o":"m 481 76 q 588 94 547 76 q 656 149 629 111 q 704 256 682 188 q 790 218 764 244 q 747 -3 763 135 q 449 0 622 0 q 67 -4 167 0 q 75 71 67 49 q 133 85 114 74 q 161 126 153 97 q 169 214 169 156 l 169 736 q 161 815 169 789 q 133 853 153 842 q 75 868 114 864 q 67 943 67 897 q 258 939 164 939 q 450 943 367 939 q 449 901 450 922 q 442 868 447 881 q 383 854 403 865 q 356 815 364 843 q 347 733 347 788 l 347 215 q 357 129 347 158 q 392 88 367 100 q 468 76 418 76 l 481 76 z "},"Ǉ":{"ha":1300,"x_min":67,"x_max":1247,"o":"m 481 76 q 588 94 547 76 q 656 149 629 111 q 704 256 682 188 q 790 218 764 244 q 747 -3 763 135 q 449 0 622 0 q 67 -4 167 0 q 75 71 67 49 q 133 85 114 74 q 161 126 153 97 q 169 214 169 156 l 169 736 q 161 815 169 789 q 133 853 153 842 q 75 868 114 864 q 67 943 67 897 q 258 939 164 939 q 450 943 367 939 q 449 901 450 922 q 442 868 447 881 q 383 854 403 865 q 356 815 364 843 q 347 733 347 788 l 347 215 q 357 129 347 158 q 392 88 367 100 q 468 76 418 76 l 481 76 m 1144 178 q 1122 -53 1144 38 q 1035 -215 1100 -143 q 843 -346 971 -286 q 810 -289 817 -329 q 930 -147 893 -224 q 967 60 967 -71 l 967 735 q 958 816 967 789 q 931 854 950 843 q 872 868 911 865 q 864 943 864 897 q 1056 939 932 939 q 1247 943 1182 939 q 1239 868 1247 892 q 1181 853 1200 865 q 1153 814 1161 842 q 1144 735 1144 786 l 1144 178 z "},"Ĺ":{"ha":814,"x_min":67,"x_max":790,"o":"m 481 76 q 588 94 547 76 q 656 149 629 111 q 704 256 682 188 q 790 218 764 244 q 747 -3 763 135 q 449 0 622 0 q 67 -4 167 0 q 75 71 67 49 q 133 85 114 74 q 161 126 153 97 q 169 214 169 156 l 169 736 q 161 815 169 789 q 133 853 153 842 q 75 868 114 864 q 67 943 67 897 q 258 939 164 939 q 450 943 367 939 q 449 901 450 922 q 442 868 447 881 q 383 854 403 865 q 356 815 364 843 q 347 733 347 788 l 347 215 q 357 129 347 158 q 392 88 367 100 q 468 76 418 76 l 481 76 m 279 1018 q 196 1031 228 1018 q 276 1210 246 1122 q 363 1221 321 1221 q 438 1211 408 1221 q 279 1018 346 1106 z "},"Ľ":{"ha":814,"x_min":67,"x_max":790,"o":"m 481 76 q 588 94 547 76 q 656 149 629 111 q 704 256 682 188 q 790 218 764 244 q 747 -3 763 135 q 449 0 622 0 q 67 -4 167 0 q 75 71 67 49 q 133 85 114 74 q 161 126 153 97 q 169 214 169 156 l 169 736 q 161 815 169 789 q 133 853 153 842 q 75 868 114 864 q 67 943 67 897 q 258 939 164 939 q 450 943 367 939 q 449 901 450 922 q 442 868 447 881 q 383 854 403 865 q 356 815 364 843 q 347 733 347 788 l 347 215 q 357 129 347 158 q 392 88 367 100 q 468 76 418 76 l 481 76 m 774 888 q 657 622 774 743 q 586 643 611 622 q 635 718 624 690 q 647 782 647 746 q 571 850 647 840 q 586 958 571 913 q 717 1000 667 967 q 760 964 747 990 q 774 888 774 938 z "},"Ļ":{"ha":814,"x_min":67,"x_max":790,"o":"m 481 76 q 588 94 547 76 q 656 149 629 111 q 704 256 682 188 q 790 218 764 244 q 747 -3 763 135 q 449 0 622 0 q 67 -4 167 0 q 75 71 67 49 q 133 85 114 74 q 161 126 153 97 q 169 214 169 156 l 169 736 q 161 815 169 789 q 133 853 153 842 q 75 868 114 864 q 67 943 67 897 q 258 939 164 939 q 450 943 367 939 q 449 901 450 922 q 442 868 447 881 q 383 854 403 865 q 356 815 364 843 q 347 733 347 788 l 347 215 q 357 129 347 158 q 392 88 367 100 q 468 76 418 76 l 481 76 m 460 -57 q 515 -158 515 -76 q 474 -293 515 -231 q 364 -404 432 -356 q 304 -374 322 -401 q 358 -310 340 -342 q 376 -251 376 -278 q 361 -215 376 -228 q 313 -199 346 -203 q 315 -149 310 -179 q 328 -99 319 -119 q 460 -57 408 -90 z "},"Ŀ":{"ha":814,"x_min":67,"x_max":790,"o":"m 481 76 q 588 94 547 76 q 656 149 629 111 q 704 256 682 188 q 790 218 764 244 q 747 -3 763 135 q 449 0 622 0 q 67 -4 167 0 q 75 71 67 49 q 133 85 114 74 q 161 126 153 97 q 169 214 169 156 l 169 736 q 161 815 169 789 q 133 853 153 842 q 75 868 114 864 q 67 943 67 897 q 258 939 164 939 q 450 943 367 939 q 449 901 450 922 q 442 868 447 881 q 383 854 403 865 q 356 815 364 843 q 347 733 347 788 l 347 215 q 357 129 347 158 q 392 88 367 100 q 468 76 418 76 l 481 76 m 665 415 q 602 438 625 415 q 579 497 579 460 q 605 557 579 533 q 671 581 631 581 q 730 556 707 581 q 753 503 753 532 q 728 439 753 463 q 665 415 704 415 z "},"Ḷ":{"ha":814,"x_min":67,"x_max":790,"o":"m 481 76 q 588 94 547 76 q 656 149 629 111 q 704 256 682 188 q 790 218 764 244 q 747 -3 763 135 q 449 0 622 0 q 67 -4 167 0 q 75 71 67 49 q 133 85 114 74 q 161 126 153 97 q 169 214 169 156 l 169 736 q 161 815 169 789 q 133 853 153 842 q 75 868 114 864 q 67 943 67 897 q 258 939 164 939 q 450 943 367 939 q 449 901 450 922 q 442 868 447 881 q 383 854 403 865 q 356 815 364 843 q 347 733 347 788 l 347 215 q 357 129 347 158 q 392 88 367 100 q 468 76 418 76 l 481 76 m 413 -303 q 340 -277 368 -303 q 311 -212 311 -251 q 341 -142 311 -169 q 415 -115 371 -115 q 492 -141 464 -115 q 521 -211 521 -167 q 490 -276 521 -250 q 413 -303 460 -303 z "},"ǈ":{"ha":1231,"x_min":67,"x_max":1142,"o":"m 481 76 q 588 94 547 76 q 656 149 629 111 q 704 256 682 188 q 790 218 764 244 q 747 -3 763 135 q 449 0 622 0 q 67 -4 167 0 q 75 71 67 49 q 133 85 114 74 q 161 126 153 97 q 169 214 169 156 l 169 736 q 161 815 169 789 q 133 853 153 842 q 75 868 114 864 q 67 943 67 897 q 258 939 164 939 q 450 943 367 939 q 449 901 450 922 q 442 868 447 881 q 383 854 403 865 q 356 815 364 843 q 347 733 347 788 l 347 215 q 357 129 347 158 q 392 88 367 100 q 468 76 418 76 l 481 76 m 1033 776 q 960 802 989 776 q 932 867 932 828 q 962 938 932 911 q 1038 964 992 964 q 1114 938 1086 964 q 1142 868 1142 913 q 1111 803 1142 829 q 1033 776 1081 776 m 875 -346 q 847 -322 858 -337 q 833 -286 835 -306 q 936 -135 908 -203 q 964 35 964 -67 l 964 435 q 956 491 964 471 q 926 522 949 511 q 860 533 904 532 q 874 601 860 578 q 999 616 929 601 q 1097 649 1069 631 q 1133 582 1133 635 l 1133 68 q 1057 -183 1133 -78 q 875 -346 981 -289 z "},"Ḻ":{"ha":814,"x_min":67,"x_max":790,"o":"m 481 76 q 588 94 547 76 q 656 149 629 111 q 704 256 682 188 q 790 218 764 244 q 747 -3 763 135 q 449 0 622 0 q 67 -4 167 0 q 75 71 67 49 q 133 85 114 74 q 161 126 153 97 q 169 214 169 156 l 169 736 q 161 815 169 789 q 133 853 153 842 q 75 868 114 864 q 67 943 67 897 q 258 939 164 939 q 450 943 367 939 q 449 901 450 922 q 442 868 447 881 q 383 854 403 865 q 356 815 364 843 q 347 733 347 788 l 347 215 q 357 129 347 158 q 392 88 367 100 q 468 76 418 76 l 481 76 m 160 -225 q 163 -187 160 -210 q 172 -151 167 -165 l 674 -151 q 661 -218 674 -189 q 160 -225 438 -218 z "},"Ł":{"ha":814,"x_min":31,"x_max":790,"o":"m 704 256 q 790 218 764 244 q 747 -3 763 135 q 449 0 622 0 q 67 -4 167 0 q 75 71 67 49 q 133 85 114 74 q 161 126 153 97 q 169 214 169 156 l 169 354 l 65 283 q 41 326 50 303 q 31 367 32 350 l 169 458 l 169 736 q 161 815 169 789 q 133 853 153 842 q 75 868 114 864 q 67 943 67 897 q 258 939 164 939 q 450 943 367 939 q 449 901 450 922 q 442 868 447 881 q 383 854 403 865 q 356 815 364 843 q 347 733 347 788 l 347 550 l 461 625 q 482 587 474 610 q 493 546 490 564 l 347 449 l 347 215 q 357 129 347 158 q 392 88 367 100 q 468 76 418 76 l 481 76 q 588 94 547 76 q 656 149 629 111 q 704 256 682 188 z "},"M":{"ha":1324,"x_min":38,"x_max":1286,"o":"m 1278 72 q 1286 -4 1286 38 q 1085 0 1224 0 q 901 -4 967 0 q 911 71 901 32 q 981 94 963 76 q 999 163 999 113 q 994 236 999 193 l 947 681 l 669 -3 q 597 -12 642 -12 l 283 678 l 242 276 q 236 196 236 213 q 258 101 236 128 q 329 71 279 75 q 338 -4 338 43 q 188 0 279 0 q 38 -4 90 0 q 46 71 38 43 q 106 92 85 75 q 140 153 126 110 q 161 282 153 196 l 200 726 q 203 769 203 757 q 182 847 203 825 q 110 868 161 868 q 101 943 101 894 q 236 939 149 939 q 368 943 318 939 l 685 229 l 960 943 q 1097 939 1017 939 q 1229 943 1171 939 q 1221 868 1229 894 q 1148 844 1171 868 q 1125 761 1125 821 q 1128 721 1125 751 l 1175 253 q 1193 141 1182 178 q 1223 90 1204 104 q 1278 72 1242 76 z "},"Ṃ":{"ha":1324,"x_min":38,"x_max":1286,"o":"m 1278 72 q 1286 -4 1286 38 q 1085 0 1224 0 q 901 -4 967 0 q 911 71 901 32 q 981 94 963 76 q 999 163 999 113 q 994 236 999 193 l 947 681 l 669 -3 q 597 -12 642 -12 l 283 678 l 242 276 q 236 196 236 213 q 258 101 236 128 q 329 71 279 75 q 338 -4 338 43 q 188 0 279 0 q 38 -4 90 0 q 46 71 38 43 q 106 92 85 75 q 140 153 126 110 q 161 282 153 196 l 200 726 q 203 769 203 757 q 182 847 203 825 q 110 868 161 868 q 101 943 101 894 q 236 939 149 939 q 368 943 318 939 l 685 229 l 960 943 q 1097 939 1017 939 q 1229 943 1171 939 q 1221 868 1229 894 q 1148 844 1171 868 q 1125 761 1125 821 q 1128 721 1125 751 l 1175 253 q 1193 141 1182 178 q 1223 90 1204 104 q 1278 72 1242 76 m 625 -303 q 552 -277 581 -303 q 524 -212 524 -251 q 553 -142 524 -169 q 628 -115 583 -115 q 705 -141 676 -115 q 733 -211 733 -167 q 703 -276 733 -250 q 625 -303 672 -303 z "},"N":{"ha":1017,"x_min":60,"x_max":965,"o":"m 828 939 q 965 943 911 939 q 957 868 965 899 q 906 849 924 865 q 881 790 888 832 q 874 669 874 749 l 874 0 q 792 -10 840 -10 l 250 706 l 250 274 q 258 151 250 193 q 288 91 267 108 q 351 71 310 74 q 358 -4 358 44 q 211 0 299 0 q 60 -4 110 0 q 68 71 60 46 q 130 91 108 74 q 160 151 151 108 q 169 274 169 194 l 169 811 l 158 826 q 124 856 142 849 q 68 868 107 864 q 60 943 60 894 q 189 939 106 939 q 303 943 260 939 l 792 288 l 792 669 q 783 790 792 749 q 753 848 775 831 q 689 868 732 865 q 681 943 681 907 q 828 939 740 939 z "},"Ǌ":{"ha":1503,"x_min":60,"x_max":1450,"o":"m 828 939 q 965 943 911 939 q 957 868 965 899 q 906 849 924 865 q 881 790 888 832 q 874 669 874 749 l 874 0 q 792 -10 840 -10 l 250 706 l 250 274 q 258 151 250 193 q 288 91 267 108 q 351 71 310 74 q 358 -4 358 44 q 211 0 299 0 q 60 -4 110 0 q 68 71 60 46 q 130 91 108 74 q 160 151 151 108 q 169 274 169 194 l 169 811 l 158 826 q 124 856 142 849 q 68 868 107 864 q 60 943 60 894 q 189 939 106 939 q 303 943 260 939 l 792 288 l 792 669 q 783 790 792 749 q 753 848 775 831 q 689 868 732 865 q 681 943 681 907 q 828 939 740 939 m 1347 178 q 1325 -53 1347 38 q 1238 -215 1303 -143 q 1046 -346 1174 -286 q 1013 -289 1019 -329 q 1133 -147 1096 -224 q 1169 60 1169 -71 l 1169 735 q 1161 816 1169 789 q 1133 854 1153 843 q 1075 868 1114 865 q 1067 943 1067 897 q 1258 939 1135 939 q 1450 943 1385 939 q 1442 868 1450 892 q 1383 853 1403 865 q 1356 814 1364 842 q 1347 735 1347 786 l 1347 178 z "},"Ń":{"ha":1017,"x_min":60,"x_max":965,"o":"m 828 939 q 965 943 911 939 q 957 868 965 899 q 906 849 924 865 q 881 790 888 832 q 874 669 874 749 l 874 0 q 792 -10 840 -10 l 250 706 l 250 274 q 258 151 250 193 q 288 91 267 108 q 351 71 310 74 q 358 -4 358 44 q 211 0 299 0 q 60 -4 110 0 q 68 71 60 46 q 130 91 108 74 q 160 151 151 108 q 169 274 169 194 l 169 811 l 158 826 q 124 856 142 849 q 68 868 107 864 q 60 943 60 894 q 189 939 106 939 q 303 943 260 939 l 792 288 l 792 669 q 783 790 792 749 q 753 848 775 831 q 689 868 732 865 q 681 943 681 907 q 828 939 740 939 m 535 1018 q 451 1031 483 1018 q 532 1210 501 1122 q 618 1221 576 1221 q 693 1211 664 1221 q 535 1018 601 1106 z "},"Ň":{"ha":1017,"x_min":60,"x_max":965,"o":"m 828 939 q 965 943 911 939 q 957 868 965 899 q 906 849 924 865 q 881 790 888 832 q 874 669 874 749 l 874 0 q 792 -10 840 -10 l 250 706 l 250 274 q 258 151 250 193 q 288 91 267 108 q 351 71 310 74 q 358 -4 358 44 q 211 0 299 0 q 60 -4 110 0 q 68 71 60 46 q 130 91 108 74 q 160 151 151 108 q 169 274 169 194 l 169 811 l 158 826 q 124 856 142 849 q 68 868 107 864 q 60 943 60 894 q 189 939 106 939 q 303 943 260 939 l 792 288 l 792 669 q 783 790 792 749 q 753 848 775 831 q 689 868 732 865 q 681 943 681 907 q 828 939 740 939 m 465 1013 q 278 1181 389 1096 q 351 1226 306 1217 q 518 1136 467 1158 q 610 1182 557 1154 q 692 1228 663 1210 q 722 1207 710 1224 q 738 1172 733 1190 q 538 1021 614 1093 q 465 1013 511 1013 z "},"Ņ":{"ha":1017,"x_min":60,"x_max":965,"o":"m 828 939 q 965 943 911 939 q 957 868 965 899 q 906 849 924 865 q 881 790 888 832 q 874 669 874 749 l 874 0 q 792 -10 840 -10 l 250 706 l 250 274 q 258 151 250 193 q 288 91 267 108 q 351 71 310 74 q 358 -4 358 44 q 211 0 299 0 q 60 -4 110 0 q 68 71 60 46 q 130 91 108 74 q 160 151 151 108 q 169 274 169 194 l 169 811 l 158 826 q 124 856 142 849 q 68 868 107 864 q 60 943 60 894 q 189 939 106 939 q 303 943 260 939 l 792 288 l 792 669 q 783 790 792 749 q 753 848 775 831 q 689 868 732 865 q 681 943 681 907 q 828 939 740 939 m 592 -57 q 647 -158 647 -76 q 606 -293 647 -231 q 496 -404 564 -356 q 436 -374 454 -401 q 490 -310 472 -342 q 508 -251 508 -278 q 493 -215 508 -228 q 444 -199 478 -203 q 447 -149 442 -179 q 460 -99 451 -119 q 592 -57 540 -90 z "},"Ṅ":{"ha":1017,"x_min":60,"x_max":965,"o":"m 828 939 q 965 943 911 939 q 957 868 965 899 q 906 849 924 865 q 881 790 888 832 q 874 669 874 749 l 874 0 q 792 -10 840 -10 l 250 706 l 250 274 q 258 151 250 193 q 288 91 267 108 q 351 71 310 74 q 358 -4 358 44 q 211 0 299 0 q 60 -4 110 0 q 68 71 60 46 q 130 91 108 74 q 160 151 151 108 q 169 274 169 194 l 169 811 l 158 826 q 124 856 142 849 q 68 868 107 864 q 60 943 60 894 q 189 939 106 939 q 303 943 260 939 l 792 288 l 792 669 q 783 790 792 749 q 753 848 775 831 q 689 868 732 865 q 681 943 681 907 q 828 939 740 939 z "},"Ṇ":{"ha":1017,"x_min":60,"x_max":965,"o":"m 828 939 q 965 943 911 939 q 957 868 965 899 q 906 849 924 865 q 881 790 888 832 q 874 669 874 749 l 874 0 q 792 -10 840 -10 l 250 706 l 250 274 q 258 151 250 193 q 288 91 267 108 q 351 71 310 74 q 358 -4 358 44 q 211 0 299 0 q 60 -4 110 0 q 68 71 60 46 q 130 91 108 74 q 160 151 151 108 q 169 274 169 194 l 169 811 l 158 826 q 124 856 142 849 q 68 868 107 864 q 60 943 60 894 q 189 939 106 939 q 303 943 260 939 l 792 288 l 792 669 q 783 790 792 749 q 753 848 775 831 q 689 868 732 865 q 681 943 681 907 q 828 939 740 939 m 544 -303 q 472 -277 500 -303 q 443 -212 443 -251 q 473 -142 443 -169 q 547 -115 503 -115 q 624 -141 596 -115 q 653 -211 653 -167 q 622 -276 653 -250 q 544 -303 592 -303 z "},"Ŋ":{"ha":946,"x_min":67,"x_max":879,"o":"m 579 -346 q 508 -333 540 -346 q 458 -300 476 -319 q 456 -261 456 -278 q 465 -183 456 -211 q 574 -197 518 -197 q 658 -173 631 -197 q 693 -100 685 -149 q 701 42 701 -51 l 701 617 q 665 783 701 732 q 554 833 628 833 q 405 762 463 833 q 347 551 347 690 l 347 203 q 356 123 347 150 q 383 85 364 96 q 442 71 403 74 q 450 -4 450 49 q 265 0 375 0 q 67 -4 146 0 q 76 71 67 39 q 135 85 115 74 q 162 123 154 96 q 169 203 169 150 l 169 729 q 163 790 169 769 q 134 822 156 811 q 68 835 113 833 q 82 904 68 878 q 211 919 146 906 q 313 950 276 933 q 339 926 331 943 q 347 878 347 910 q 336 769 347 849 l 338 769 q 446 898 368 851 q 622 944 524 944 q 809 876 739 944 q 879 667 879 808 l 879 135 q 840 -101 879 10 q 733 -279 801 -212 q 579 -346 664 -346 z "},"Ɲ":{"ha":1017,"x_min":-140,"x_max":965,"o":"m 828 939 q 965 943 911 939 q 957 868 965 899 q 906 849 924 865 q 881 790 888 832 q 874 669 874 749 l 874 -4 q 794 -12 846 -12 l 250 706 l 250 79 q 218 -142 250 -46 q 126 -292 186 -237 q -15 -346 67 -346 q -88 -333 -57 -346 q -137 -300 -119 -319 q -140 -262 -140 -289 q -131 -183 -140 -211 q -24 -197 -67 -197 q 122 -133 74 -197 q 169 68 169 -69 l 169 811 l 158 826 q 124 856 142 849 q 68 868 107 864 q 60 943 60 894 q 189 939 106 939 q 303 943 260 939 l 792 288 l 792 669 q 783 790 792 749 q 753 848 775 831 q 689 868 732 865 q 681 943 681 907 q 828 939 740 939 z "},"ǋ":{"ha":1433,"x_min":60,"x_max":1344,"o":"m 828 939 q 965 943 911 939 q 957 868 965 899 q 906 849 924 865 q 881 790 888 832 q 874 669 874 749 l 874 0 q 792 -10 840 -10 l 250 706 l 250 274 q 258 151 250 193 q 288 91 267 108 q 351 71 310 74 q 358 -4 358 44 q 211 0 299 0 q 60 -4 110 0 q 68 71 60 46 q 130 91 108 74 q 160 151 151 108 q 169 274 169 194 l 169 811 l 158 826 q 124 856 142 849 q 68 868 107 864 q 60 943 60 894 q 189 939 106 939 q 303 943 260 939 l 792 288 l 792 669 q 783 790 792 749 q 753 848 775 831 q 689 868 732 865 q 681 943 681 907 q 828 939 740 939 m 1236 776 q 1163 802 1192 776 q 1135 867 1135 828 q 1165 938 1135 911 q 1240 964 1194 964 q 1317 938 1289 964 q 1344 868 1344 913 q 1314 803 1344 829 q 1236 776 1283 776 m 1078 -346 q 1049 -322 1061 -337 q 1036 -286 1038 -306 q 1139 -135 1111 -203 q 1167 35 1167 -67 l 1167 435 q 1159 491 1167 471 q 1129 522 1151 511 q 1063 533 1107 532 q 1076 601 1063 578 q 1202 616 1132 601 q 1300 649 1272 631 q 1336 582 1336 635 l 1336 68 q 1260 -183 1336 -78 q 1078 -346 1183 -289 z "},"Ṉ":{"ha":1017,"x_min":60,"x_max":965,"o":"m 828 939 q 965 943 911 939 q 957 868 965 899 q 906 849 924 865 q 881 790 888 832 q 874 669 874 749 l 874 0 q 792 -10 840 -10 l 250 706 l 250 274 q 258 151 250 193 q 288 91 267 108 q 351 71 310 74 q 358 -4 358 44 q 211 0 299 0 q 60 -4 110 0 q 68 71 60 46 q 130 91 108 74 q 160 151 151 108 q 169 274 169 194 l 169 811 l 158 826 q 124 856 142 849 q 68 868 107 864 q 60 943 60 894 q 189 939 106 939 q 303 943 260 939 l 792 288 l 792 669 q 783 790 792 749 q 753 848 775 831 q 689 868 732 865 q 681 943 681 907 q 828 939 740 939 m 292 -225 q 295 -187 292 -210 q 304 -151 299 -165 l 806 -151 q 793 -218 806 -189 q 292 -225 569 -218 z "},"Ñ":{"ha":1017,"x_min":60,"x_max":965,"o":"m 828 939 q 965 943 911 939 q 957 868 965 899 q 906 849 924 865 q 881 790 888 832 q 874 669 874 749 l 874 0 q 792 -10 840 -10 l 250 706 l 250 274 q 258 151 250 193 q 288 91 267 108 q 351 71 310 74 q 358 -4 358 44 q 211 0 299 0 q 60 -4 110 0 q 68 71 60 46 q 130 91 108 74 q 160 151 151 108 q 169 274 169 194 l 169 811 l 158 826 q 124 856 142 849 q 68 868 107 864 q 60 943 60 894 q 189 939 106 939 q 303 943 260 939 l 792 288 l 792 669 q 783 790 792 749 q 753 848 775 831 q 689 868 732 865 q 681 943 681 907 q 828 939 740 939 m 590 1033 q 542 1040 563 1033 q 488 1063 521 1047 q 440 1081 458 1075 q 400 1088 422 1088 q 299 1036 346 1088 q 269 1100 271 1061 q 350 1172 306 1150 q 439 1194 394 1194 q 491 1187 468 1194 q 546 1165 514 1179 q 590 1147 572 1153 q 626 1142 608 1142 q 707 1185 671 1142 q 761 1156 742 1179 q 590 1033 696 1033 z "},"O":{"ha":1029,"x_min":49,"x_max":981,"o":"m 514 -12 q 269 50 375 -12 q 106 222 164 113 q 49 472 49 332 q 109 722 49 614 q 276 891 169 831 q 514 951 382 951 q 756 892 650 951 q 921 726 861 833 q 981 479 981 618 q 922 227 981 339 q 756 51 863 115 q 514 -12 650 -12 m 538 68 q 673 117 615 68 q 761 251 731 165 q 792 444 792 336 q 753 660 792 563 q 644 815 714 758 q 488 872 575 872 q 358 828 414 872 q 269 701 301 783 q 238 508 238 618 q 272 290 238 390 q 375 128 307 189 q 538 68 443 68 z "},"Ó":{"ha":1029,"x_min":49,"x_max":981,"o":"m 514 -12 q 269 50 375 -12 q 106 222 164 113 q 49 472 49 332 q 109 722 49 614 q 276 891 169 831 q 514 951 382 951 q 756 892 650 951 q 921 726 861 833 q 981 479 981 618 q 922 227 981 339 q 756 51 863 115 q 514 -12 650 -12 m 538 68 q 673 117 615 68 q 761 251 731 165 q 792 444 792 336 q 753 660 792 563 q 644 815 714 758 q 488 872 575 872 q 358 828 414 872 q 269 701 301 783 q 238 508 238 618 q 272 290 238 390 q 375 128 307 189 q 538 68 443 68 m 535 1018 q 451 1031 483 1018 q 532 1210 501 1122 q 618 1221 576 1221 q 693 1211 664 1221 q 535 1018 601 1106 z "},"Ŏ":{"ha":1029,"x_min":49,"x_max":981,"o":"m 514 -12 q 269 50 375 -12 q 106 222 164 113 q 49 472 49 332 q 109 722 49 614 q 276 891 169 831 q 514 951 382 951 q 756 892 650 951 q 921 726 861 833 q 981 479 981 618 q 922 227 981 339 q 756 51 863 115 q 514 -12 650 -12 m 538 68 q 673 117 615 68 q 761 251 731 165 q 792 444 792 336 q 753 660 792 563 q 644 815 714 758 q 488 872 575 872 q 358 828 414 872 q 269 701 301 783 q 238 508 238 618 q 272 290 238 390 q 375 128 307 189 q 538 68 443 68 m 736 1203 q 678 1058 736 1108 q 513 1008 621 1008 q 349 1056 406 1008 q 293 1197 293 1104 q 382 1211 331 1215 q 428 1140 389 1165 q 526 1115 467 1115 q 621 1140 585 1115 q 660 1211 657 1165 q 682 1213 667 1213 q 736 1203 710 1213 z "},"Ǒ":{"ha":1029,"x_min":49,"x_max":981,"o":"m 514 -12 q 269 50 375 -12 q 106 222 164 113 q 49 472 49 332 q 109 722 49 614 q 276 891 169 831 q 514 951 382 951 q 756 892 650 951 q 921 726 861 833 q 981 479 981 618 q 922 227 981 339 q 756 51 863 115 q 514 -12 650 -12 m 538 68 q 673 117 615 68 q 761 251 731 165 q 792 444 792 336 q 753 660 792 563 q 644 815 714 758 q 488 872 575 872 q 358 828 414 872 q 269 701 301 783 q 238 508 238 618 q 272 290 238 390 q 375 128 307 189 q 538 68 443 68 m 465 1013 q 278 1181 389 1096 q 351 1226 306 1217 q 518 1136 467 1158 q 610 1182 557 1154 q 692 1228 663 1210 q 722 1207 710 1224 q 738 1172 733 1190 q 538 1021 614 1093 q 465 1013 511 1013 z "},"Ô":{"ha":1029,"x_min":49,"x_max":981,"o":"m 514 -12 q 269 50 375 -12 q 106 222 164 113 q 49 472 49 332 q 109 722 49 614 q 276 891 169 831 q 514 951 382 951 q 756 892 650 951 q 921 726 861 833 q 981 479 981 618 q 922 227 981 339 q 756 51 863 115 q 514 -12 650 -12 m 538 68 q 673 117 615 68 q 761 251 731 165 q 792 444 792 336 q 753 660 792 563 q 644 815 714 758 q 488 872 575 872 q 358 828 414 872 q 269 701 301 783 q 238 508 238 618 q 272 290 238 390 q 375 128 307 189 q 538 68 443 68 m 329 1011 q 301 1033 313 1015 q 285 1067 289 1050 q 485 1218 408 1146 q 557 1226 511 1226 q 744 1060 635 1142 q 669 1013 718 1024 q 503 1103 563 1076 q 329 1011 382 1044 z "},"Ố":{"ha":1029,"x_min":49,"x_max":981,"o":"m 514 -12 q 269 50 375 -12 q 106 222 164 113 q 49 472 49 332 q 109 722 49 614 q 276 891 169 831 q 514 951 382 951 q 756 892 650 951 q 921 726 861 833 q 981 479 981 618 q 922 227 981 339 q 756 51 863 115 q 514 -12 650 -12 m 538 68 q 673 117 615 68 q 761 251 731 165 q 792 444 792 336 q 753 660 792 563 q 644 815 714 758 q 488 872 575 872 q 358 828 414 872 q 269 701 301 783 q 238 508 238 618 q 272 290 238 390 q 375 128 307 189 q 538 68 443 68 m 740 1189 q 664 1200 693 1189 q 738 1367 710 1286 q 818 1376 775 1376 q 888 1368 858 1376 q 740 1189 811 1279 m 329 1011 q 301 1033 313 1015 q 285 1067 289 1050 q 485 1218 408 1146 q 557 1226 511 1226 q 744 1060 635 1142 q 669 1013 718 1024 q 503 1103 563 1076 q 329 1011 382 1044 z "},"Ộ":{"ha":1029,"x_min":49,"x_max":981,"o":"m 514 -12 q 269 50 375 -12 q 106 222 164 113 q 49 472 49 332 q 109 722 49 614 q 276 891 169 831 q 514 951 382 951 q 756 892 650 951 q 921 726 861 833 q 981 479 981 618 q 922 227 981 339 q 756 51 863 115 q 514 -12 650 -12 m 538 68 q 673 117 615 68 q 761 251 731 165 q 792 444 792 336 q 753 660 792 563 q 644 815 714 758 q 488 872 575 872 q 358 828 414 872 q 269 701 301 783 q 238 508 238 618 q 272 290 238 390 q 375 128 307 189 q 538 68 443 68 m 511 -303 q 438 -277 467 -303 q 410 -212 410 -251 q 440 -142 410 -169 q 514 -115 469 -115 q 591 -141 563 -115 q 619 -211 619 -167 q 589 -276 619 -250 q 511 -303 558 -303 m 329 1011 q 301 1033 313 1015 q 285 1067 289 1050 q 485 1218 408 1146 q 557 1226 511 1226 q 744 1060 635 1142 q 669 1013 718 1024 q 503 1103 563 1076 q 329 1011 382 1044 z "},"Ồ":{"ha":1029,"x_min":49,"x_max":981,"o":"m 514 -12 q 269 50 375 -12 q 106 222 164 113 q 49 472 49 332 q 109 722 49 614 q 276 891 169 831 q 514 951 382 951 q 756 892 650 951 q 921 726 861 833 q 981 479 981 618 q 922 227 981 339 q 756 51 863 115 q 514 -12 650 -12 m 538 68 q 673 117 615 68 q 761 251 731 165 q 792 444 792 336 q 753 660 792 563 q 644 815 714 758 q 488 872 575 872 q 358 828 414 872 q 269 701 301 783 q 238 508 238 618 q 272 290 238 390 q 375 128 307 189 q 538 68 443 68 z "},"Ổ":{"ha":1029,"x_min":49,"x_max":981,"o":"m 514 -12 q 269 50 375 -12 q 106 222 164 113 q 49 472 49 332 q 109 722 49 614 q 276 891 169 831 q 514 951 382 951 q 756 892 650 951 q 921 726 861 833 q 981 479 981 618 q 922 227 981 339 q 756 51 863 115 q 514 -12 650 -12 m 538 68 q 673 117 615 68 q 761 251 731 165 q 792 444 792 336 q 753 660 792 563 q 644 815 714 758 q 488 872 575 872 q 358 828 414 872 q 269 701 301 783 q 238 508 238 618 q 272 290 238 390 q 375 128 307 189 q 538 68 443 68 m 329 1011 q 301 1033 313 1015 q 285 1067 289 1050 q 485 1218 408 1146 q 557 1226 511 1226 q 744 1060 635 1142 q 669 1013 718 1024 q 503 1103 563 1076 q 329 1011 382 1044 m 678 1200 q 663 1242 663 1219 q 674 1278 663 1264 q 708 1307 686 1292 q 735 1331 726 1321 q 744 1356 744 1342 q 734 1377 744 1369 q 707 1385 724 1385 q 665 1365 681 1385 q 644 1299 650 1346 q 569 1314 596 1299 q 574 1360 574 1339 q 569 1397 574 1379 q 717 1440 632 1440 q 814 1419 779 1440 q 849 1357 849 1399 q 832 1310 849 1328 q 785 1271 815 1292 q 755 1249 764 1257 q 746 1228 746 1240 q 749 1208 746 1219 q 678 1200 721 1197 z "},"Ỗ":{"ha":1029,"x_min":49,"x_max":981,"o":"m 514 -12 q 269 50 375 -12 q 106 222 164 113 q 49 472 49 332 q 109 722 49 614 q 276 891 169 831 q 514 951 382 951 q 756 892 650 951 q 921 726 861 833 q 981 479 981 618 q 922 227 981 339 q 756 51 863 115 q 514 -12 650 -12 m 538 68 q 673 117 615 68 q 761 251 731 165 q 792 444 792 336 q 753 660 792 563 q 644 815 714 758 q 488 872 575 872 q 358 828 414 872 q 269 701 301 783 q 238 508 238 618 q 272 290 238 390 q 375 128 307 189 q 538 68 443 68 m 329 1011 q 301 1033 313 1015 q 285 1067 289 1050 q 485 1218 408 1146 q 557 1226 511 1226 q 744 1060 635 1142 q 669 1013 718 1024 q 503 1103 563 1076 q 329 1011 382 1044 m 590 1293 q 542 1300 563 1293 q 488 1322 521 1307 q 440 1341 458 1335 q 400 1347 422 1347 q 299 1296 346 1347 q 269 1360 271 1321 q 350 1432 306 1410 q 439 1454 394 1454 q 491 1447 468 1454 q 546 1425 514 1439 q 590 1407 572 1413 q 626 1401 608 1401 q 707 1444 671 1401 q 761 1415 742 1439 q 590 1293 696 1293 z "},"Ȍ":{"ha":1029,"x_min":49,"x_max":981,"o":"m 514 -12 q 269 50 375 -12 q 106 222 164 113 q 49 472 49 332 q 109 722 49 614 q 276 891 169 831 q 514 951 382 951 q 756 892 650 951 q 921 726 861 833 q 981 479 981 618 q 922 227 981 339 q 756 51 863 115 q 514 -12 650 -12 m 538 68 q 673 117 615 68 q 761 251 731 165 q 792 444 792 336 q 753 660 792 563 q 644 815 714 758 q 488 872 575 872 q 358 828 414 872 q 269 701 301 783 q 238 508 238 618 q 272 290 238 390 q 375 128 307 189 q 538 68 443 68 m 376 1000 q 222 1174 296 1103 q 290 1194 250 1188 q 371 1197 331 1200 q 460 1013 410 1096 q 376 1000 428 1000 m 607 1000 q 457 1176 532 1100 q 603 1197 511 1203 q 690 1013 644 1089 q 607 1000 658 1000 z "},"Ö":{"ha":1029,"x_min":49,"x_max":981,"o":"m 514 -12 q 269 50 375 -12 q 106 222 164 113 q 49 472 49 332 q 109 722 49 614 q 276 891 169 831 q 514 951 382 951 q 756 892 650 951 q 921 726 861 833 q 981 479 981 618 q 922 227 981 339 q 756 51 863 115 q 514 -12 650 -12 m 538 68 q 673 117 615 68 q 761 251 731 165 q 792 444 792 336 q 753 660 792 563 q 644 815 714 758 q 488 872 575 872 q 358 828 414 872 q 269 701 301 783 q 238 508 238 618 q 272 290 238 390 q 375 128 307 189 q 538 68 443 68 z "},"Ȫ":{"ha":1029,"x_min":49,"x_max":981,"o":"m 514 -12 q 269 50 375 -12 q 106 222 164 113 q 49 472 49 332 q 109 722 49 614 q 276 891 169 831 q 514 951 382 951 q 756 892 650 951 q 921 726 861 833 q 981 479 981 618 q 922 227 981 339 q 756 51 863 115 q 514 -12 650 -12 m 538 68 q 673 117 615 68 q 761 251 731 165 q 792 444 792 336 q 753 660 792 563 q 644 815 714 758 q 488 872 575 872 q 358 828 414 872 q 269 701 301 783 q 238 508 238 618 q 272 290 238 390 q 375 128 307 189 q 538 68 443 68 m 774 1360 q 761 1290 774 1322 q 256 1282 515 1290 q 259 1322 256 1299 q 268 1360 263 1346 l 774 1360 z "},"Ȱ":{"ha":1029,"x_min":49,"x_max":981,"o":"m 514 -12 q 269 50 375 -12 q 106 222 164 113 q 49 472 49 332 q 109 722 49 614 q 276 891 169 831 q 514 951 382 951 q 756 892 650 951 q 921 726 861 833 q 981 479 981 618 q 922 227 981 339 q 756 51 863 115 q 514 -12 650 -12 m 538 68 q 673 117 615 68 q 761 251 731 165 q 792 444 792 336 q 753 660 792 563 q 644 815 714 758 q 488 872 575 872 q 358 828 414 872 q 269 701 301 783 q 238 508 238 618 q 272 290 238 390 q 375 128 307 189 q 538 68 443 68 m 774 1319 q 761 1250 774 1282 q 256 1242 515 1250 q 259 1282 256 1258 q 268 1319 263 1306 l 774 1319 z "},"Ọ":{"ha":1029,"x_min":49,"x_max":981,"o":"m 514 -12 q 269 50 375 -12 q 106 222 164 113 q 49 472 49 332 q 109 722 49 614 q 276 891 169 831 q 514 951 382 951 q 756 892 650 951 q 921 726 861 833 q 981 479 981 618 q 922 227 981 339 q 756 51 863 115 q 514 -12 650 -12 m 538 68 q 673 117 615 68 q 761 251 731 165 q 792 444 792 336 q 753 660 792 563 q 644 815 714 758 q 488 872 575 872 q 358 828 414 872 q 269 701 301 783 q 238 508 238 618 q 272 290 238 390 q 375 128 307 189 q 538 68 443 68 m 511 -303 q 438 -277 467 -303 q 410 -212 410 -251 q 440 -142 410 -169 q 514 -115 469 -115 q 591 -141 563 -115 q 619 -211 619 -167 q 589 -276 619 -250 q 511 -303 558 -303 z "},"Ò":{"ha":1029,"x_min":49,"x_max":981,"o":"m 514 -12 q 269 50 375 -12 q 106 222 164 113 q 49 472 49 332 q 109 722 49 614 q 276 891 169 831 q 514 951 382 951 q 756 892 650 951 q 921 726 861 833 q 981 479 981 618 q 922 227 981 339 q 756 51 863 115 q 514 -12 650 -12 m 538 68 q 673 117 615 68 q 761 251 731 165 q 792 444 792 336 q 753 660 792 563 q 644 815 714 758 q 488 872 575 872 q 358 828 414 872 q 269 701 301 783 q 238 508 238 618 q 272 290 238 390 q 375 128 307 189 q 538 68 443 68 m 492 1018 q 342 1193 417 1118 q 490 1215 396 1221 q 579 1031 529 1114 q 492 1018 549 1018 z "},"Ỏ":{"ha":1029,"x_min":49,"x_max":981,"o":"m 514 -12 q 269 50 375 -12 q 106 222 164 113 q 49 472 49 332 q 109 722 49 614 q 276 891 169 831 q 514 951 382 951 q 756 892 650 951 q 921 726 861 833 q 981 479 981 618 q 922 227 981 339 q 756 51 863 115 q 514 -12 650 -12 m 538 68 q 673 117 615 68 q 761 251 731 165 q 792 444 792 336 q 753 660 792 563 q 644 815 714 758 q 488 872 575 872 q 358 828 414 872 q 269 701 301 783 q 238 508 238 618 q 272 290 238 390 q 375 128 307 189 q 538 68 443 68 m 483 1004 q 468 1046 468 1024 q 480 1082 468 1068 q 514 1111 492 1096 q 541 1135 532 1125 q 550 1160 550 1146 q 540 1181 550 1174 q 513 1189 529 1189 q 471 1169 486 1189 q 450 1103 456 1150 q 375 1118 401 1103 q 379 1164 379 1143 q 375 1201 379 1183 q 522 1244 438 1244 q 619 1224 585 1244 q 654 1161 654 1203 q 638 1114 654 1132 q 590 1075 621 1096 q 560 1053 569 1061 q 551 1032 551 1044 q 554 1013 551 1024 q 483 1004 526 1001 z "},"Ơ":{"ha":1029,"x_min":49,"x_max":981,"o":"m 790 871 q 931 708 881 810 q 981 479 981 607 q 922 227 981 339 q 756 51 863 115 q 514 -12 650 -12 q 269 50 375 -12 q 106 222 164 113 q 49 472 49 332 q 109 722 49 614 q 276 891 169 831 q 514 951 382 951 q 635 942 557 951 q 718 935 683 935 q 810 957 779 935 q 842 1033 842 979 q 833 1096 842 1061 q 911 1111 867 1111 q 935 1110 928 1111 q 964 1022 964 1069 q 913 915 964 957 q 790 871 863 874 m 538 68 q 673 117 615 68 q 761 251 731 165 q 792 444 792 336 q 753 660 792 563 q 644 815 714 758 q 488 872 575 872 q 358 828 414 872 q 269 701 301 783 q 238 508 238 618 q 272 290 238 390 q 375 128 307 189 q 538 68 443 68 z "},"Ớ":{"ha":1029,"x_min":49,"x_max":981,"o":"m 790 871 q 931 708 881 810 q 981 479 981 607 q 922 227 981 339 q 756 51 863 115 q 514 -12 650 -12 q 269 50 375 -12 q 106 222 164 113 q 49 472 49 332 q 109 722 49 614 q 276 891 169 831 q 514 951 382 951 q 635 942 557 951 q 718 935 683 935 q 810 957 779 935 q 842 1033 842 979 q 833 1096 842 1061 q 911 1111 867 1111 q 935 1110 928 1111 q 964 1022 964 1069 q 913 915 964 957 q 790 871 863 874 m 538 68 q 673 117 615 68 q 761 251 731 165 q 792 444 792 336 q 753 660 792 563 q 644 815 714 758 q 488 872 575 872 q 358 828 414 872 q 269 701 301 783 q 238 508 238 618 q 272 290 238 390 q 375 128 307 189 q 538 68 443 68 m 535 1018 q 451 1031 483 1018 q 532 1210 501 1122 q 618 1221 576 1221 q 693 1211 664 1221 q 535 1018 601 1106 z "},"Ợ":{"ha":1029,"x_min":49,"x_max":981,"o":"m 790 871 q 931 708 881 810 q 981 479 981 607 q 922 227 981 339 q 756 51 863 115 q 514 -12 650 -12 q 269 50 375 -12 q 106 222 164 113 q 49 472 49 332 q 109 722 49 614 q 276 891 169 831 q 514 951 382 951 q 635 942 557 951 q 718 935 683 935 q 810 957 779 935 q 842 1033 842 979 q 833 1096 842 1061 q 911 1111 867 1111 q 935 1110 928 1111 q 964 1022 964 1069 q 913 915 964 957 q 790 871 863 874 m 538 68 q 673 117 615 68 q 761 251 731 165 q 792 444 792 336 q 753 660 792 563 q 644 815 714 758 q 488 872 575 872 q 358 828 414 872 q 269 701 301 783 q 238 508 238 618 q 272 290 238 390 q 375 128 307 189 q 538 68 443 68 m 511 -303 q 438 -277 467 -303 q 410 -212 410 -251 q 440 -142 410 -169 q 514 -115 469 -115 q 591 -141 563 -115 q 619 -211 619 -167 q 589 -276 619 -250 q 511 -303 558 -303 z "},"Ờ":{"ha":1029,"x_min":49,"x_max":981,"o":"m 790 871 q 931 708 881 810 q 981 479 981 607 q 922 227 981 339 q 756 51 863 115 q 514 -12 650 -12 q 269 50 375 -12 q 106 222 164 113 q 49 472 49 332 q 109 722 49 614 q 276 891 169 831 q 514 951 382 951 q 635 942 557 951 q 718 935 683 935 q 810 957 779 935 q 842 1033 842 979 q 833 1096 842 1061 q 911 1111 867 1111 q 935 1110 928 1111 q 964 1022 964 1069 q 913 915 964 957 q 790 871 863 874 m 538 68 q 673 117 615 68 q 761 251 731 165 q 792 444 792 336 q 753 660 792 563 q 644 815 714 758 q 488 872 575 872 q 358 828 414 872 q 269 701 301 783 q 238 508 238 618 q 272 290 238 390 q 375 128 307 189 q 538 68 443 68 m 492 1018 q 342 1193 417 1118 q 490 1215 396 1221 q 579 1031 529 1114 q 492 1018 549 1018 z "},"Ở":{"ha":1029,"x_min":49,"x_max":981,"o":"m 790 871 q 931 708 881 810 q 981 479 981 607 q 922 227 981 339 q 756 51 863 115 q 514 -12 650 -12 q 269 50 375 -12 q 106 222 164 113 q 49 472 49 332 q 109 722 49 614 q 276 891 169 831 q 514 951 382 951 q 635 942 557 951 q 718 935 683 935 q 810 957 779 935 q 842 1033 842 979 q 833 1096 842 1061 q 911 1111 867 1111 q 935 1110 928 1111 q 964 1022 964 1069 q 913 915 964 957 q 790 871 863 874 m 538 68 q 673 117 615 68 q 761 251 731 165 q 792 444 792 336 q 753 660 792 563 q 644 815 714 758 q 488 872 575 872 q 358 828 414 872 q 269 701 301 783 q 238 508 238 618 q 272 290 238 390 q 375 128 307 189 q 538 68 443 68 m 483 1004 q 468 1046 468 1024 q 480 1082 468 1068 q 514 1111 492 1096 q 541 1135 532 1125 q 550 1160 550 1146 q 540 1181 550 1174 q 513 1189 529 1189 q 471 1169 486 1189 q 450 1103 456 1150 q 375 1118 401 1103 q 379 1164 379 1143 q 375 1201 379 1183 q 522 1244 438 1244 q 619 1224 585 1244 q 654 1161 654 1203 q 638 1114 654 1132 q 590 1075 621 1096 q 560 1053 569 1061 q 551 1032 551 1044 q 554 1013 551 1024 q 483 1004 526 1001 z "},"Ỡ":{"ha":1029,"x_min":49,"x_max":981,"o":"m 790 871 q 931 708 881 810 q 981 479 981 607 q 922 227 981 339 q 756 51 863 115 q 514 -12 650 -12 q 269 50 375 -12 q 106 222 164 113 q 49 472 49 332 q 109 722 49 614 q 276 891 169 831 q 514 951 382 951 q 635 942 557 951 q 718 935 683 935 q 810 957 779 935 q 842 1033 842 979 q 833 1096 842 1061 q 911 1111 867 1111 q 935 1110 928 1111 q 964 1022 964 1069 q 913 915 964 957 q 790 871 863 874 m 538 68 q 673 117 615 68 q 761 251 731 165 q 792 444 792 336 q 753 660 792 563 q 644 815 714 758 q 488 872 575 872 q 358 828 414 872 q 269 701 301 783 q 238 508 238 618 q 272 290 238 390 q 375 128 307 189 q 538 68 443 68 m 590 1033 q 542 1040 563 1033 q 488 1063 521 1047 q 440 1081 458 1075 q 400 1088 422 1088 q 299 1036 346 1088 q 269 1100 271 1061 q 350 1172 306 1150 q 439 1194 394 1194 q 491 1187 468 1194 q 546 1165 514 1179 q 590 1147 572 1153 q 626 1142 608 1142 q 707 1185 671 1142 q 761 1156 742 1179 q 590 1033 696 1033 z "},"Ő":{"ha":1029,"x_min":49,"x_max":981,"o":"m 514 -12 q 269 50 375 -12 q 106 222 164 113 q 49 472 49 332 q 109 722 49 614 q 276 891 169 831 q 514 951 382 951 q 756 892 650 951 q 921 726 861 833 q 981 479 981 618 q 922 227 981 339 q 756 51 863 115 q 514 -12 650 -12 m 538 68 q 673 117 615 68 q 761 251 731 165 q 792 444 792 336 q 753 660 792 563 q 644 815 714 758 q 488 872 575 872 q 358 828 414 872 q 269 701 301 783 q 238 508 238 618 q 272 290 238 390 q 375 128 307 189 q 538 68 443 68 m 413 1018 q 370 1026 392 1019 q 335 1042 349 1032 q 401 1206 371 1114 q 513 1224 450 1224 q 571 1214 551 1224 q 413 1018 481 1114 m 653 1018 q 610 1026 632 1019 q 575 1042 589 1032 q 642 1206 611 1114 q 753 1224 690 1224 q 811 1214 790 1224 q 653 1018 721 1114 z "},"Ȏ":{"ha":1029,"x_min":49,"x_max":981,"o":"m 514 -12 q 269 50 375 -12 q 106 222 164 113 q 49 472 49 332 q 109 722 49 614 q 276 891 169 831 q 514 951 382 951 q 756 892 650 951 q 921 726 861 833 q 981 479 981 618 q 922 227 981 339 q 756 51 863 115 q 514 -12 650 -12 m 538 68 q 673 117 615 68 q 761 251 731 165 q 792 444 792 336 q 753 660 792 563 q 644 815 714 758 q 488 872 575 872 q 358 828 414 872 q 269 701 301 783 q 238 508 238 618 q 272 290 238 390 q 375 128 307 189 q 538 68 443 68 m 293 1017 q 351 1163 293 1113 q 517 1213 408 1213 q 680 1164 624 1213 q 736 1022 736 1115 q 668 1008 704 1008 q 647 1010 654 1008 q 601 1081 639 1056 q 503 1106 563 1106 q 407 1081 443 1106 q 369 1010 371 1056 q 346 1008 361 1008 q 293 1017 314 1008 z "},"Ō":{"ha":1029,"x_min":49,"x_max":981,"o":"m 514 -12 q 269 50 375 -12 q 106 222 164 113 q 49 472 49 332 q 109 722 49 614 q 276 891 169 831 q 514 951 382 951 q 756 892 650 951 q 921 726 861 833 q 981 479 981 618 q 922 227 981 339 q 756 51 863 115 q 514 -12 650 -12 m 538 68 q 673 117 615 68 q 761 251 731 165 q 792 444 792 336 q 753 660 792 563 q 644 815 714 758 q 488 872 575 872 q 358 828 414 872 q 269 701 301 783 q 238 508 238 618 q 272 290 238 390 q 375 128 307 189 q 538 68 443 68 m 774 1128 q 761 1058 774 1090 q 256 1050 515 1058 q 259 1090 256 1067 q 268 1128 263 1114 l 774 1128 z "},"Ṓ":{"ha":1029,"x_min":49,"x_max":981,"o":"m 514 -12 q 269 50 375 -12 q 106 222 164 113 q 49 472 49 332 q 109 722 49 614 q 276 891 169 831 q 514 951 382 951 q 756 892 650 951 q 921 726 861 833 q 981 479 981 618 q 922 227 981 339 q 756 51 863 115 q 514 -12 650 -12 m 538 68 q 673 117 615 68 q 761 251 731 165 q 792 444 792 336 q 753 660 792 563 q 644 815 714 758 q 488 872 575 872 q 358 828 414 872 q 269 701 301 783 q 238 508 238 618 q 272 290 238 390 q 375 128 307 189 q 538 68 443 68 m 774 1128 q 761 1058 774 1090 q 256 1050 515 1058 q 259 1090 256 1067 q 268 1128 263 1114 l 774 1128 m 535 1207 q 451 1219 483 1207 q 532 1399 501 1311 q 618 1410 576 1410 q 693 1400 664 1410 q 535 1207 601 1294 z "},"Ṑ":{"ha":1029,"x_min":49,"x_max":981,"o":"m 514 -12 q 269 50 375 -12 q 106 222 164 113 q 49 472 49 332 q 109 722 49 614 q 276 891 169 831 q 514 951 382 951 q 756 892 650 951 q 921 726 861 833 q 981 479 981 618 q 922 227 981 339 q 756 51 863 115 q 514 -12 650 -12 m 538 68 q 673 117 615 68 q 761 251 731 165 q 792 444 792 336 q 753 660 792 563 q 644 815 714 758 q 488 872 575 872 q 358 828 414 872 q 269 701 301 783 q 238 508 238 618 q 272 290 238 390 q 375 128 307 189 q 538 68 443 68 m 774 1128 q 761 1058 774 1090 q 256 1050 515 1058 q 259 1090 256 1067 q 268 1128 263 1114 l 774 1128 m 492 1207 q 342 1382 417 1307 q 490 1404 396 1410 q 579 1219 529 1303 q 492 1207 549 1207 z "},"Ǫ":{"ha":1029,"x_min":49,"x_max":981,"o":"m 713 29 q 622 -42 651 -1 q 593 -129 593 -83 q 617 -194 593 -174 q 681 -214 642 -214 q 742 -206 719 -214 q 754 -240 750 -218 q 756 -281 758 -261 q 626 -347 679 -306 q 597 -350 615 -350 q 528 -333 563 -350 q 470 -283 493 -317 q 447 -204 447 -250 q 558 -11 447 -86 q 514 -12 543 -12 q 269 50 375 -12 q 106 222 164 113 q 49 472 49 332 q 109 722 49 614 q 276 891 169 831 q 514 951 382 951 q 756 892 650 951 q 921 726 861 833 q 981 479 981 618 q 909 205 981 325 q 713 29 838 85 m 238 508 q 272 290 238 390 q 375 128 307 189 q 538 68 443 68 q 673 117 615 68 q 761 251 731 165 q 792 444 792 336 q 753 660 792 563 q 644 815 714 758 q 488 872 575 872 q 358 828 414 872 q 269 701 301 783 q 238 508 238 618 z "},"Ø":{"ha":1029,"x_min":49,"x_max":981,"o":"m 847 824 q 946 672 911 760 q 981 479 981 585 q 922 227 981 339 q 756 51 863 115 q 514 -12 650 -12 q 246 64 361 -12 l 164 -39 q 112 -31 136 -39 q 76 -8 88 -22 l 181 119 q 83 275 117 185 q 49 472 49 365 q 109 722 49 614 q 276 891 169 831 q 514 951 382 951 q 776 879 665 951 l 849 974 q 943 947 913 974 l 847 824 m 488 872 q 358 828 414 872 q 269 701 301 783 q 238 508 238 618 q 289 250 238 358 l 688 772 q 597 846 649 819 q 488 872 546 872 m 538 68 q 673 117 615 68 q 761 251 731 165 q 792 444 792 336 q 739 692 792 582 l 336 169 q 538 68 415 68 z "},"Ǿ":{"ha":1029,"x_min":49,"x_max":981,"o":"m 847 824 q 946 672 911 760 q 981 479 981 585 q 922 227 981 339 q 756 51 863 115 q 514 -12 650 -12 q 246 64 361 -12 l 164 -39 q 112 -31 136 -39 q 76 -8 88 -22 l 181 119 q 83 275 117 185 q 49 472 49 365 q 109 722 49 614 q 276 891 169 831 q 514 951 382 951 q 776 879 665 951 l 849 974 q 943 947 913 974 l 847 824 m 488 872 q 358 828 414 872 q 269 701 301 783 q 238 508 238 618 q 289 250 238 358 l 688 772 q 597 846 649 819 q 488 872 546 872 m 538 68 q 673 117 615 68 q 761 251 731 165 q 792 444 792 336 q 739 692 792 582 l 336 169 q 538 68 415 68 m 535 1018 q 451 1031 483 1018 q 532 1210 501 1122 q 618 1221 576 1221 q 693 1211 664 1221 q 535 1018 601 1106 z "},"Õ":{"ha":1029,"x_min":49,"x_max":981,"o":"m 514 -12 q 269 50 375 -12 q 106 222 164 113 q 49 472 49 332 q 109 722 49 614 q 276 891 169 831 q 514 951 382 951 q 756 892 650 951 q 921 726 861 833 q 981 479 981 618 q 922 227 981 339 q 756 51 863 115 q 514 -12 650 -12 m 538 68 q 673 117 615 68 q 761 251 731 165 q 792 444 792 336 q 753 660 792 563 q 644 815 714 758 q 488 872 575 872 q 358 828 414 872 q 269 701 301 783 q 238 508 238 618 q 272 290 238 390 q 375 128 307 189 q 538 68 443 68 m 590 1033 q 542 1040 563 1033 q 488 1063 521 1047 q 440 1081 458 1075 q 400 1088 422 1088 q 299 1036 346 1088 q 269 1100 271 1061 q 350 1172 306 1150 q 439 1194 394 1194 q 491 1187 468 1194 q 546 1165 514 1179 q 590 1147 572 1153 q 626 1142 608 1142 q 707 1185 671 1142 q 761 1156 742 1179 q 590 1033 696 1033 z "},"Ṍ":{"ha":1029,"x_min":49,"x_max":981,"o":"m 514 -12 q 269 50 375 -12 q 106 222 164 113 q 49 472 49 332 q 109 722 49 614 q 276 891 169 831 q 514 951 382 951 q 756 892 650 951 q 921 726 861 833 q 981 479 981 618 q 922 227 981 339 q 756 51 863 115 q 514 -12 650 -12 m 538 68 q 673 117 615 68 q 761 251 731 165 q 792 444 792 336 q 753 660 792 563 q 644 815 714 758 q 488 872 575 872 q 358 828 414 872 q 269 701 301 783 q 238 508 238 618 q 272 290 238 390 q 375 128 307 189 q 538 68 443 68 m 590 1033 q 542 1040 563 1033 q 488 1063 521 1047 q 440 1081 458 1075 q 400 1088 422 1088 q 299 1036 346 1088 q 269 1100 271 1061 q 350 1172 306 1150 q 439 1194 394 1194 q 491 1187 468 1194 q 546 1165 514 1179 q 590 1147 572 1153 q 626 1142 608 1142 q 707 1185 671 1142 q 761 1156 742 1179 q 590 1033 696 1033 m 535 1258 q 451 1271 483 1258 q 532 1450 501 1363 q 618 1461 576 1461 q 693 1451 664 1461 q 535 1258 601 1346 z "},"Ṏ":{"ha":1029,"x_min":49,"x_max":981,"o":"m 514 -12 q 269 50 375 -12 q 106 222 164 113 q 49 472 49 332 q 109 722 49 614 q 276 891 169 831 q 514 951 382 951 q 756 892 650 951 q 921 726 861 833 q 981 479 981 618 q 922 227 981 339 q 756 51 863 115 q 514 -12 650 -12 m 538 68 q 673 117 615 68 q 761 251 731 165 q 792 444 792 336 q 753 660 792 563 q 644 815 714 758 q 488 872 575 872 q 358 828 414 872 q 269 701 301 783 q 238 508 238 618 q 272 290 238 390 q 375 128 307 189 q 538 68 443 68 m 590 1033 q 542 1040 563 1033 q 488 1063 521 1047 q 440 1081 458 1075 q 400 1088 422 1088 q 299 1036 346 1088 q 269 1100 271 1061 q 350 1172 306 1150 q 439 1194 394 1194 q 491 1187 468 1194 q 546 1165 514 1179 q 590 1147 572 1153 q 626 1142 608 1142 q 707 1185 671 1142 q 761 1156 742 1179 q 590 1033 696 1033 z "},"Ȭ":{"ha":1029,"x_min":49,"x_max":981,"o":"m 514 -12 q 269 50 375 -12 q 106 222 164 113 q 49 472 49 332 q 109 722 49 614 q 276 891 169 831 q 514 951 382 951 q 756 892 650 951 q 921 726 861 833 q 981 479 981 618 q 922 227 981 339 q 756 51 863 115 q 514 -12 650 -12 m 538 68 q 673 117 615 68 q 761 251 731 165 q 792 444 792 336 q 753 660 792 563 q 644 815 714 758 q 488 872 575 872 q 358 828 414 872 q 269 701 301 783 q 238 508 238 618 q 272 290 238 390 q 375 128 307 189 q 538 68 443 68 m 590 1033 q 542 1040 563 1033 q 488 1063 521 1047 q 440 1081 458 1075 q 400 1088 422 1088 q 299 1036 346 1088 q 269 1100 271 1061 q 350 1172 306 1150 q 439 1194 394 1194 q 491 1187 468 1194 q 546 1165 514 1179 q 590 1147 572 1153 q 626 1142 608 1142 q 707 1185 671 1142 q 761 1156 742 1179 q 590 1033 696 1033 m 774 1368 q 761 1299 774 1331 q 256 1290 515 1299 q 259 1331 256 1307 q 268 1368 263 1354 l 774 1368 z "},"Œ":{"ha":1364,"x_min":49,"x_max":1319,"o":"m 504 949 q 647 944 564 949 q 890 939 794 939 q 1244 942 1081 939 q 1274 718 1254 794 q 1186 699 1243 699 q 1131 824 1178 778 q 968 871 1083 871 l 756 871 q 881 722 839 815 q 926 506 922 628 l 943 506 q 1043 531 1015 506 q 1071 613 1071 557 q 1157 625 1113 625 q 1153 468 1153 525 q 1157 307 1153 407 q 1075 317 1104 307 q 1060 382 1071 358 q 1019 419 1049 406 q 935 432 990 432 l 924 432 q 874 225 917 317 q 753 75 832 133 l 1008 75 q 1122 94 1081 75 q 1187 151 1164 114 q 1232 256 1210 189 q 1319 218 1290 244 q 1276 -3 1289 124 q 940 0 1149 0 q 681 -7 868 0 q 497 -12 556 -12 q 258 47 360 -12 q 103 213 157 106 q 49 467 49 321 q 104 722 49 613 q 263 890 160 831 q 504 949 367 949 m 485 869 q 299 769 367 869 q 232 494 232 669 q 265 272 232 368 q 363 122 299 175 q 515 68 426 68 q 681 168 619 68 q 743 454 743 268 q 708 678 743 583 q 615 821 674 772 q 485 869 556 869 z "},"P":{"ha":857,"x_min":67,"x_max":808,"o":"m 450 414 q 573 463 525 414 q 621 625 621 511 q 570 801 621 738 q 413 865 519 865 q 347 856 382 865 l 347 226 q 360 133 347 165 q 400 88 372 101 q 479 71 428 74 q 489 -4 489 49 q 283 0 418 0 q 67 -4 133 0 q 74 71 67 49 q 133 85 113 74 q 161 123 153 96 q 169 203 169 150 l 169 736 q 161 815 169 789 q 133 853 153 842 q 75 868 114 864 q 67 943 67 897 q 267 939 143 939 l 389 940 q 475 942 425 942 q 730 866 651 942 q 808 665 808 790 q 771 500 808 575 q 659 380 733 425 q 482 335 585 335 q 385 349 421 335 q 382 376 382 368 q 390 419 382 399 q 450 414 417 414 z "},"Þ":{"ha":860,"x_min":67,"x_max":811,"o":"m 511 753 q 737 681 663 753 q 811 494 811 608 q 773 354 811 419 q 663 249 735 289 q 490 208 590 208 q 394 222 436 208 q 392 247 392 239 q 399 285 392 267 q 461 281 418 281 q 586 324 536 281 q 636 468 636 368 q 583 623 636 565 q 428 681 531 681 q 347 671 382 681 l 347 226 q 360 133 347 165 q 400 88 372 101 q 479 71 428 74 q 489 -4 489 49 q 279 0 418 0 q 67 -4 150 0 q 75 71 67 44 q 133 85 114 74 q 161 123 153 96 q 169 203 169 150 l 169 736 q 161 815 169 789 q 133 853 153 842 q 75 868 114 864 q 67 943 67 897 q 260 939 139 939 q 450 943 367 939 q 440 868 450 894 q 385 855 404 865 q 357 821 365 844 q 347 750 349 797 q 511 753 444 753 z "},"Q":{"ha":1029,"x_min":49,"x_max":1075,"o":"m 1072 -131 q 1063 -206 1075 -168 q 864 -271 961 -228 q 779 -225 813 -256 q 707 -143 746 -194 q 623 -53 663 -85 q 514 -12 583 -21 q 269 50 375 -12 q 106 222 164 113 q 49 472 49 332 q 109 722 49 614 q 276 891 169 831 q 514 951 382 951 q 756 892 650 951 q 921 726 861 833 q 981 479 981 618 q 903 195 981 318 q 690 19 825 72 q 763 -11 731 7 q 836 -57 794 -29 q 938 -113 894 -94 q 1042 -132 982 -132 q 1072 -131 1061 -132 m 238 508 q 272 290 238 390 q 375 128 307 189 q 538 68 443 68 q 673 117 615 68 q 761 251 731 165 q 792 444 792 336 q 753 660 792 563 q 644 815 714 758 q 488 872 575 872 q 358 828 414 872 q 269 701 301 783 q 238 508 238 618 z "},"R":{"ha":965,"x_min":67,"x_max":936,"o":"m 774 196 q 821 124 801 147 q 866 89 840 100 q 936 75 892 78 q 928 0 936 28 q 679 -12 761 0 q 606 131 650 38 l 578 188 q 511 308 543 261 q 428 406 479 354 l 386 404 l 347 406 l 347 208 q 355 123 347 151 q 380 84 363 94 q 431 71 397 74 q 439 -4 439 51 q 249 0 382 0 q 67 -4 140 0 q 75 71 67 46 q 133 85 114 74 q 161 123 153 96 q 169 203 169 150 l 169 738 q 161 817 169 790 q 133 856 153 844 q 74 868 113 867 q 67 943 67 896 q 256 939 121 939 l 364 940 q 506 943 456 943 q 742 876 663 943 q 822 701 822 808 q 763 531 822 600 q 599 436 703 463 q 681 351 649 396 q 774 196 713 306 m 347 485 q 401 481 381 481 q 570 531 504 481 q 636 681 636 582 q 587 819 636 769 q 435 868 538 868 q 347 857 386 868 l 347 485 z "},"Ŕ":{"ha":965,"x_min":67,"x_max":936,"o":"m 774 196 q 821 124 801 147 q 866 89 840 100 q 936 75 892 78 q 928 0 936 28 q 679 -12 761 0 q 606 131 650 38 l 578 188 q 511 308 543 261 q 428 406 479 354 l 386 404 l 347 406 l 347 208 q 355 123 347 151 q 380 84 363 94 q 431 71 397 74 q 439 -4 439 51 q 249 0 382 0 q 67 -4 140 0 q 75 71 67 46 q 133 85 114 74 q 161 123 153 96 q 169 203 169 150 l 169 738 q 161 817 169 790 q 133 856 153 844 q 74 868 113 867 q 67 943 67 896 q 256 939 121 939 l 364 940 q 506 943 456 943 q 742 876 663 943 q 822 701 822 808 q 763 531 822 600 q 599 436 703 463 q 681 351 649 396 q 774 196 713 306 m 347 485 q 401 481 381 481 q 570 531 504 481 q 636 681 636 582 q 587 819 636 769 q 435 868 538 868 q 347 857 386 868 l 347 485 m 461 1018 q 378 1031 410 1018 q 458 1210 428 1122 q 544 1221 503 1221 q 619 1211 590 1221 q 461 1018 528 1106 z "},"Ř":{"ha":965,"x_min":67,"x_max":936,"o":"m 774 196 q 821 124 801 147 q 866 89 840 100 q 936 75 892 78 q 928 0 936 28 q 679 -12 761 0 q 606 131 650 38 l 578 188 q 511 308 543 261 q 428 406 479 354 l 386 404 l 347 406 l 347 208 q 355 123 347 151 q 380 84 363 94 q 431 71 397 74 q 439 -4 439 51 q 249 0 382 0 q 67 -4 140 0 q 75 71 67 46 q 133 85 114 74 q 161 123 153 96 q 169 203 169 150 l 169 738 q 161 817 169 790 q 133 856 153 844 q 74 868 113 867 q 67 943 67 896 q 256 939 121 939 l 364 940 q 506 943 456 943 q 742 876 663 943 q 822 701 822 808 q 763 531 822 600 q 599 436 703 463 q 681 351 649 396 q 774 196 713 306 m 347 485 q 401 481 381 481 q 570 531 504 481 q 636 681 636 582 q 587 819 636 769 q 435 868 538 868 q 347 857 386 868 l 347 485 m 390 1013 q 203 1181 314 1096 q 276 1226 231 1217 q 443 1136 392 1158 q 535 1182 482 1154 q 617 1228 588 1210 q 647 1207 635 1224 q 663 1172 658 1190 q 463 1021 539 1093 q 390 1013 436 1013 z "},"Ŗ":{"ha":965,"x_min":67,"x_max":936,"o":"m 774 196 q 821 124 801 147 q 866 89 840 100 q 936 75 892 78 q 928 0 936 28 q 679 -12 761 0 q 606 131 650 38 l 578 188 q 511 308 543 261 q 428 406 479 354 l 386 404 l 347 406 l 347 208 q 355 123 347 151 q 380 84 363 94 q 431 71 397 74 q 439 -4 439 51 q 249 0 382 0 q 67 -4 140 0 q 75 71 67 46 q 133 85 114 74 q 161 123 153 96 q 169 203 169 150 l 169 738 q 161 817 169 790 q 133 856 153 844 q 74 868 113 867 q 67 943 67 896 q 256 939 121 939 l 364 940 q 506 943 456 943 q 742 876 663 943 q 822 701 822 808 q 763 531 822 600 q 599 436 703 463 q 681 351 649 396 q 774 196 713 306 m 347 485 q 401 481 381 481 q 570 531 504 481 q 636 681 636 582 q 587 819 636 769 q 435 868 538 868 q 347 857 386 868 l 347 485 m 547 -57 q 603 -158 603 -76 q 561 -293 603 -231 q 451 -404 519 -356 q 392 -374 410 -401 q 446 -310 428 -342 q 464 -251 464 -278 q 449 -215 464 -228 q 400 -199 433 -203 q 402 -149 397 -179 q 415 -99 407 -119 q 547 -57 496 -90 z "},"Ȑ":{"ha":965,"x_min":67,"x_max":936,"o":"m 774 196 q 821 124 801 147 q 866 89 840 100 q 936 75 892 78 q 928 0 936 28 q 679 -12 761 0 q 606 131 650 38 l 578 188 q 511 308 543 261 q 428 406 479 354 l 386 404 l 347 406 l 347 208 q 355 123 347 151 q 380 84 363 94 q 431 71 397 74 q 439 -4 439 51 q 249 0 382 0 q 67 -4 140 0 q 75 71 67 46 q 133 85 114 74 q 161 123 153 96 q 169 203 169 150 l 169 738 q 161 817 169 790 q 133 856 153 844 q 74 868 113 867 q 67 943 67 896 q 256 939 121 939 l 364 940 q 506 943 456 943 q 742 876 663 943 q 822 701 822 808 q 763 531 822 600 q 599 436 703 463 q 681 351 649 396 q 774 196 713 306 m 347 485 q 401 481 381 481 q 570 531 504 481 q 636 681 636 582 q 587 819 636 769 q 435 868 538 868 q 347 857 386 868 l 347 485 m 303 1000 q 149 1174 222 1103 q 217 1194 176 1188 q 297 1197 257 1200 q 386 1013 336 1096 q 303 1000 354 1000 m 533 1000 q 383 1176 458 1100 q 529 1197 438 1203 q 617 1013 571 1089 q 533 1000 585 1000 z "},"Ṛ":{"ha":965,"x_min":67,"x_max":936,"o":"m 774 196 q 821 124 801 147 q 866 89 840 100 q 936 75 892 78 q 928 0 936 28 q 679 -12 761 0 q 606 131 650 38 l 578 188 q 511 308 543 261 q 428 406 479 354 l 386 404 l 347 406 l 347 208 q 355 123 347 151 q 380 84 363 94 q 431 71 397 74 q 439 -4 439 51 q 249 0 382 0 q 67 -4 140 0 q 75 71 67 46 q 133 85 114 74 q 161 123 153 96 q 169 203 169 150 l 169 738 q 161 817 169 790 q 133 856 153 844 q 74 868 113 867 q 67 943 67 896 q 256 939 121 939 l 364 940 q 506 943 456 943 q 742 876 663 943 q 822 701 822 808 q 763 531 822 600 q 599 436 703 463 q 681 351 649 396 q 774 196 713 306 m 347 485 q 401 481 381 481 q 570 531 504 481 q 636 681 636 582 q 587 819 636 769 q 435 868 538 868 q 347 857 386 868 l 347 485 m 500 -303 q 427 -277 456 -303 q 399 -212 399 -251 q 428 -142 399 -169 q 503 -115 458 -115 q 580 -141 551 -115 q 608 -211 608 -167 q 578 -276 608 -250 q 500 -303 547 -303 z "},"Ȓ":{"ha":965,"x_min":67,"x_max":936,"o":"m 774 196 q 821 124 801 147 q 866 89 840 100 q 936 75 892 78 q 928 0 936 28 q 679 -12 761 0 q 606 131 650 38 l 578 188 q 511 308 543 261 q 428 406 479 354 l 386 404 l 347 406 l 347 208 q 355 123 347 151 q 380 84 363 94 q 431 71 397 74 q 439 -4 439 51 q 249 0 382 0 q 67 -4 140 0 q 75 71 67 46 q 133 85 114 74 q 161 123 153 96 q 169 203 169 150 l 169 738 q 161 817 169 790 q 133 856 153 844 q 74 868 113 867 q 67 943 67 896 q 256 939 121 939 l 364 940 q 506 943 456 943 q 742 876 663 943 q 822 701 822 808 q 763 531 822 600 q 599 436 703 463 q 681 351 649 396 q 774 196 713 306 m 347 485 q 401 481 381 481 q 570 531 504 481 q 636 681 636 582 q 587 819 636 769 q 435 868 538 868 q 347 857 386 868 l 347 485 m 218 1017 q 276 1163 218 1113 q 442 1213 333 1213 q 605 1164 549 1213 q 661 1022 661 1115 q 593 1008 629 1008 q 572 1010 579 1008 q 526 1081 564 1056 q 428 1106 488 1106 q 332 1081 368 1106 q 294 1010 296 1056 q 271 1008 286 1008 q 218 1017 239 1008 z "},"Ṟ":{"ha":965,"x_min":67,"x_max":936,"o":"m 774 196 q 821 124 801 147 q 866 89 840 100 q 936 75 892 78 q 928 0 936 28 q 679 -12 761 0 q 606 131 650 38 l 578 188 q 511 308 543 261 q 428 406 479 354 l 386 404 l 347 406 l 347 208 q 355 123 347 151 q 380 84 363 94 q 431 71 397 74 q 439 -4 439 51 q 249 0 382 0 q 67 -4 140 0 q 75 71 67 46 q 133 85 114 74 q 161 123 153 96 q 169 203 169 150 l 169 738 q 161 817 169 790 q 133 856 153 844 q 74 868 113 867 q 67 943 67 896 q 256 939 121 939 l 364 940 q 506 943 456 943 q 742 876 663 943 q 822 701 822 808 q 763 531 822 600 q 599 436 703 463 q 681 351 649 396 q 774 196 713 306 m 347 485 q 401 481 381 481 q 570 531 504 481 q 636 681 636 582 q 587 819 636 769 q 435 868 538 868 q 347 857 386 868 l 347 485 m 247 -225 q 251 -187 247 -210 q 260 -151 254 -165 l 761 -151 q 749 -218 761 -189 q 247 -225 525 -218 z "},"S":{"ha":772,"x_min":76,"x_max":714,"o":"m 378 -12 q 222 9 293 -12 q 76 74 151 31 q 92 282 92 160 q 197 294 131 294 q 247 123 204 176 q 389 69 290 69 q 513 105 472 69 q 553 197 553 140 q 528 274 553 242 q 465 328 503 307 q 360 382 428 350 q 222 457 274 424 q 132 547 169 490 q 94 689 94 604 q 176 883 94 815 q 393 951 257 951 q 534 934 465 951 q 643 890 603 917 q 651 699 643 756 q 603 684 633 689 q 547 679 574 679 q 490 832 528 790 q 386 874 453 874 q 283 843 321 874 q 246 756 246 813 q 273 674 246 708 q 340 617 300 640 q 449 560 379 593 q 586 485 533 519 q 676 397 639 451 q 714 261 714 342 q 628 64 714 140 q 378 -12 542 -12 z "},"Ś":{"ha":772,"x_min":76,"x_max":714,"o":"m 378 -12 q 222 9 293 -12 q 76 74 151 31 q 92 282 92 160 q 197 294 131 294 q 247 123 204 176 q 389 69 290 69 q 513 105 472 69 q 553 197 553 140 q 528 274 553 242 q 465 328 503 307 q 360 382 428 350 q 222 457 274 424 q 132 547 169 490 q 94 689 94 604 q 176 883 94 815 q 393 951 257 951 q 534 934 465 951 q 643 890 603 917 q 651 699 643 756 q 603 684 633 689 q 547 679 574 679 q 490 832 528 790 q 386 874 453 874 q 283 843 321 874 q 246 756 246 813 q 273 674 246 708 q 340 617 300 640 q 449 560 379 593 q 586 485 533 519 q 676 397 639 451 q 714 261 714 342 q 628 64 714 140 q 378 -12 542 -12 m 411 1018 q 328 1031 360 1018 q 408 1210 378 1122 q 494 1221 453 1221 q 569 1211 540 1221 q 411 1018 478 1106 z "},"Ṥ":{"ha":772,"x_min":76,"x_max":714,"o":"m 378 -12 q 222 9 293 -12 q 76 74 151 31 q 92 282 92 160 q 197 294 131 294 q 247 123 204 176 q 389 69 290 69 q 513 105 472 69 q 553 197 553 140 q 528 274 553 242 q 465 328 503 307 q 360 382 428 350 q 222 457 274 424 q 132 547 169 490 q 94 689 94 604 q 176 883 94 815 q 393 951 257 951 q 534 934 465 951 q 643 890 603 917 q 651 699 643 756 q 603 684 633 689 q 547 679 574 679 q 490 832 528 790 q 386 874 453 874 q 283 843 321 874 q 246 756 246 813 q 273 674 246 708 q 340 617 300 640 q 449 560 379 593 q 586 485 533 519 q 676 397 639 451 q 714 261 714 342 q 628 64 714 140 q 378 -12 542 -12 m 411 1018 q 328 1031 360 1018 q 408 1210 378 1122 q 494 1221 453 1221 q 569 1211 540 1221 q 411 1018 478 1106 z "},"Š":{"ha":772,"x_min":76,"x_max":714,"o":"m 378 -12 q 222 9 293 -12 q 76 74 151 31 q 92 282 92 160 q 197 294 131 294 q 247 123 204 176 q 389 69 290 69 q 513 105 472 69 q 553 197 553 140 q 528 274 553 242 q 465 328 503 307 q 360 382 428 350 q 222 457 274 424 q 132 547 169 490 q 94 689 94 604 q 176 883 94 815 q 393 951 257 951 q 534 934 465 951 q 643 890 603 917 q 651 699 643 756 q 603 684 633 689 q 547 679 574 679 q 490 832 528 790 q 386 874 453 874 q 283 843 321 874 q 246 756 246 813 q 273 674 246 708 q 340 617 300 640 q 449 560 379 593 q 586 485 533 519 q 676 397 639 451 q 714 261 714 342 q 628 64 714 140 q 378 -12 542 -12 m 342 1013 q 154 1181 265 1096 q 228 1226 182 1217 q 394 1136 343 1158 q 486 1182 433 1154 q 568 1228 539 1210 q 598 1207 586 1224 q 614 1172 610 1190 q 414 1021 490 1093 q 342 1013 388 1013 z "},"Ṧ":{"ha":772,"x_min":76,"x_max":714,"o":"m 378 -12 q 222 9 293 -12 q 76 74 151 31 q 92 282 92 160 q 197 294 131 294 q 247 123 204 176 q 389 69 290 69 q 513 105 472 69 q 553 197 553 140 q 528 274 553 242 q 465 328 503 307 q 360 382 428 350 q 222 457 274 424 q 132 547 169 490 q 94 689 94 604 q 176 883 94 815 q 393 951 257 951 q 534 934 465 951 q 643 890 603 917 q 651 699 643 756 q 603 684 633 689 q 547 679 574 679 q 490 832 528 790 q 386 874 453 874 q 283 843 321 874 q 246 756 246 813 q 273 674 246 708 q 340 617 300 640 q 449 560 379 593 q 586 485 533 519 q 676 397 639 451 q 714 261 714 342 q 628 64 714 140 q 378 -12 542 -12 m 342 1013 q 154 1181 265 1096 q 228 1226 182 1217 q 394 1136 343 1158 q 486 1182 433 1154 q 568 1228 539 1210 q 598 1207 586 1224 q 614 1172 610 1190 q 414 1021 490 1093 q 342 1013 388 1013 z "},"Ş":{"ha":772,"x_min":76,"x_max":714,"o":"m 714 261 q 640 76 714 150 q 426 -11 567 1 l 385 -67 q 473 -111 440 -76 q 506 -194 506 -146 q 447 -298 506 -260 q 307 -336 388 -336 q 296 -283 296 -315 q 373 -264 340 -283 q 406 -211 406 -244 q 381 -163 406 -182 q 318 -144 356 -144 q 293 -87 293 -119 l 346 -11 q 210 13 274 -8 q 76 74 146 35 q 92 282 92 160 q 197 294 131 294 q 247 123 204 176 q 389 69 290 69 q 513 105 472 69 q 553 197 553 140 q 528 274 553 242 q 465 328 503 307 q 360 382 428 350 q 222 457 274 424 q 132 547 169 490 q 94 689 94 604 q 176 883 94 815 q 393 951 257 951 q 534 934 465 951 q 643 890 603 917 q 651 699 643 756 q 603 684 633 689 q 547 679 574 679 q 490 832 528 790 q 386 874 453 874 q 283 843 321 874 q 246 756 246 813 q 273 674 246 708 q 340 617 300 640 q 449 560 379 593 q 586 485 533 519 q 676 397 639 451 q 714 261 714 342 z "},"Ŝ":{"ha":772,"x_min":76,"x_max":714,"o":"m 378 -12 q 222 9 293 -12 q 76 74 151 31 q 92 282 92 160 q 197 294 131 294 q 247 123 204 176 q 389 69 290 69 q 513 105 472 69 q 553 197 553 140 q 528 274 553 242 q 465 328 503 307 q 360 382 428 350 q 222 457 274 424 q 132 547 169 490 q 94 689 94 604 q 176 883 94 815 q 393 951 257 951 q 534 934 465 951 q 643 890 603 917 q 651 699 643 756 q 603 684 633 689 q 547 679 574 679 q 490 832 528 790 q 386 874 453 874 q 283 843 321 874 q 246 756 246 813 q 273 674 246 708 q 340 617 300 640 q 449 560 379 593 q 586 485 533 519 q 676 397 639 451 q 714 261 714 342 q 628 64 714 140 q 378 -12 542 -12 m 206 1011 q 177 1033 189 1015 q 161 1067 165 1050 q 361 1218 285 1146 q 433 1226 388 1226 q 621 1060 511 1142 q 546 1013 594 1024 q 379 1103 439 1076 q 206 1011 258 1044 z "},"Ș":{"ha":772,"x_min":76,"x_max":714,"o":"m 378 -12 q 222 9 293 -12 q 76 74 151 31 q 92 282 92 160 q 197 294 131 294 q 247 123 204 176 q 389 69 290 69 q 513 105 472 69 q 553 197 553 140 q 528 274 553 242 q 465 328 503 307 q 360 382 428 350 q 222 457 274 424 q 132 547 169 490 q 94 689 94 604 q 176 883 94 815 q 393 951 257 951 q 534 934 465 951 q 643 890 603 917 q 651 699 643 756 q 603 684 633 689 q 547 679 574 679 q 490 832 528 790 q 386 874 453 874 q 283 843 321 874 q 246 756 246 813 q 273 674 246 708 q 340 617 300 640 q 449 560 379 593 q 586 485 533 519 q 676 397 639 451 q 714 261 714 342 q 628 64 714 140 q 378 -12 542 -12 m 443 -57 q 499 -158 499 -76 q 457 -293 499 -231 q 347 -404 415 -356 q 288 -374 306 -401 q 342 -310 324 -342 q 360 -251 360 -278 q 344 -215 360 -228 q 296 -199 329 -203 q 298 -149 293 -179 q 311 -99 303 -119 q 443 -57 392 -90 z "},"Ṡ":{"ha":772,"x_min":76,"x_max":714,"o":"m 378 -12 q 222 9 293 -12 q 76 74 151 31 q 92 282 92 160 q 197 294 131 294 q 247 123 204 176 q 389 69 290 69 q 513 105 472 69 q 553 197 553 140 q 528 274 553 242 q 465 328 503 307 q 360 382 428 350 q 222 457 274 424 q 132 547 169 490 q 94 689 94 604 q 176 883 94 815 q 393 951 257 951 q 534 934 465 951 q 643 890 603 917 q 651 699 643 756 q 603 684 633 689 q 547 679 574 679 q 490 832 528 790 q 386 874 453 874 q 283 843 321 874 q 246 756 246 813 q 273 674 246 708 q 340 617 300 640 q 449 560 379 593 q 586 485 533 519 q 676 397 639 451 q 714 261 714 342 q 628 64 714 140 q 378 -12 542 -12 z "},"Ṣ":{"ha":772,"x_min":76,"x_max":714,"o":"m 378 -12 q 222 9 293 -12 q 76 74 151 31 q 92 282 92 160 q 197 294 131 294 q 247 123 204 176 q 389 69 290 69 q 513 105 472 69 q 553 197 553 140 q 528 274 553 242 q 465 328 503 307 q 360 382 428 350 q 222 457 274 424 q 132 547 169 490 q 94 689 94 604 q 176 883 94 815 q 393 951 257 951 q 534 934 465 951 q 643 890 603 917 q 651 699 643 756 q 603 684 633 689 q 547 679 574 679 q 490 832 528 790 q 386 874 453 874 q 283 843 321 874 q 246 756 246 813 q 273 674 246 708 q 340 617 300 640 q 449 560 379 593 q 586 485 533 519 q 676 397 639 451 q 714 261 714 342 q 628 64 714 140 q 378 -12 542 -12 m 396 -303 q 323 -277 351 -303 q 294 -212 294 -251 q 324 -142 294 -169 q 399 -115 354 -115 q 476 -141 447 -115 q 504 -211 504 -167 q 474 -276 504 -250 q 396 -303 443 -303 z "},"Ṩ":{"ha":772,"x_min":76,"x_max":714,"o":"m 378 -12 q 222 9 293 -12 q 76 74 151 31 q 92 282 92 160 q 197 294 131 294 q 247 123 204 176 q 389 69 290 69 q 513 105 472 69 q 553 197 553 140 q 528 274 553 242 q 465 328 503 307 q 360 382 428 350 q 222 457 274 424 q 132 547 169 490 q 94 689 94 604 q 176 883 94 815 q 393 951 257 951 q 534 934 465 951 q 643 890 603 917 q 651 699 643 756 q 603 684 633 689 q 547 679 574 679 q 490 832 528 790 q 386 874 453 874 q 283 843 321 874 q 246 756 246 813 q 273 674 246 708 q 340 617 300 640 q 449 560 379 593 q 586 485 533 519 q 676 397 639 451 q 714 261 714 342 q 628 64 714 140 q 378 -12 542 -12 m 396 -303 q 323 -277 351 -303 q 294 -212 294 -251 q 324 -142 294 -169 q 399 -115 354 -115 q 476 -141 447 -115 q 504 -211 504 -167 q 474 -276 504 -250 q 396 -303 443 -303 z "},"ẞ":{"ha":1026,"x_min":49,"x_max":968,"o":"m 703 543 q 897 449 826 521 q 968 265 968 378 q 931 121 968 183 q 824 23 894 58 q 656 -12 753 -12 q 524 5 579 -12 q 419 57 469 22 q 436 247 436 133 q 540 260 474 260 q 570 113 546 156 q 661 71 594 71 q 751 117 718 71 q 785 242 785 163 q 719 403 785 342 q 521 478 653 464 q 506 515 513 493 q 500 554 500 538 q 694 863 600 686 l 628 865 q 513 869 568 869 q 410 847 449 869 q 350 762 371 824 q 329 585 329 700 l 329 -3 q 221 0 303 0 q 49 -4 124 0 q 58 71 49 43 q 117 88 97 75 q 144 133 136 100 q 151 236 151 167 l 151 581 q 252 861 151 779 q 532 943 353 943 l 607 942 q 700 939 657 939 q 878 944 807 939 q 894 905 888 928 q 900 861 900 882 q 703 543 821 707 z "},"Ə":{"ha":910,"x_min":49,"x_max":861,"o":"m 400 951 q 663 890 560 951 q 813 726 765 829 q 861 492 861 622 q 810 238 861 351 q 660 57 758 124 q 425 -10 561 -10 q 151 110 240 -10 q 49 426 61 229 q 79 485 58 464 l 672 485 q 375 872 660 872 q 276 853 313 872 q 220 792 239 833 q 192 682 201 751 q 169 681 185 681 q 97 696 128 681 q 101 790 101 742 q 96 888 101 843 q 235 935 153 918 q 400 951 317 951 m 449 69 q 602 148 542 69 q 671 403 663 226 q 240 410 483 410 q 293 159 240 249 q 449 69 346 69 z "},"T":{"ha":872,"x_min":35,"x_max":838,"o":"m 821 943 q 838 707 817 850 q 743 692 796 690 q 699 822 736 779 q 586 864 663 864 l 528 864 l 528 203 q 537 122 528 149 q 570 85 546 96 q 644 71 594 74 q 654 -4 654 46 q 443 0 569 0 q 217 -4 299 0 q 226 71 217 39 q 303 85 278 74 q 340 123 329 96 q 350 203 350 150 l 350 864 l 300 864 q 206 844 240 864 q 156 789 172 825 q 126 692 139 753 q 35 707 64 692 q 61 943 61 839 q 442 939 151 939 q 821 943 732 939 z "},"Ŧ":{"ha":872,"x_min":35,"x_max":838,"o":"m 821 943 q 838 707 817 850 q 743 692 796 690 q 699 822 736 779 q 586 864 663 864 l 528 864 l 528 526 l 708 526 q 693 439 708 469 q 528 440 626 440 l 528 203 q 537 122 528 149 q 570 85 546 96 q 644 71 594 74 q 654 -4 654 46 q 443 0 569 0 q 217 -4 299 0 q 226 71 217 39 q 303 85 278 74 q 340 123 329 96 q 350 203 350 150 l 350 440 l 229 439 l 172 438 q 177 487 172 461 q 189 526 182 513 l 350 526 l 350 864 l 300 864 q 206 844 240 864 q 156 789 172 825 q 126 692 139 753 q 35 707 64 692 q 61 943 61 839 q 442 939 151 939 q 821 943 732 939 z "},"Ť":{"ha":872,"x_min":35,"x_max":838,"o":"m 821 943 q 838 707 817 850 q 743 692 796 690 q 699 822 736 779 q 586 864 663 864 l 528 864 l 528 203 q 537 122 528 149 q 570 85 546 96 q 644 71 594 74 q 654 -4 654 46 q 443 0 569 0 q 217 -4 299 0 q 226 71 217 39 q 303 85 278 74 q 340 123 329 96 q 350 203 350 150 l 350 864 l 300 864 q 206 844 240 864 q 156 789 172 825 q 126 692 139 753 q 35 707 64 692 q 61 943 61 839 q 442 939 151 939 q 821 943 732 939 m 390 1013 q 203 1181 314 1096 q 276 1226 231 1217 q 443 1136 392 1158 q 535 1182 482 1154 q 617 1228 588 1210 q 647 1207 635 1224 q 663 1172 658 1190 q 463 1021 539 1093 q 390 1013 436 1013 z "},"Ţ":{"ha":872,"x_min":35,"x_max":838,"o":"m 821 943 q 838 707 817 850 q 743 692 796 690 q 699 822 736 779 q 586 864 663 864 l 528 864 l 528 203 q 537 122 528 149 q 570 85 546 96 q 644 71 594 74 q 654 -4 654 46 q 468 0 578 0 l 419 -67 q 509 -110 476 -76 q 542 -194 542 -144 q 482 -298 542 -260 q 342 -336 422 -336 q 332 -283 332 -315 q 408 -264 376 -283 q 440 -211 440 -244 q 416 -163 440 -182 q 354 -144 392 -144 q 329 -87 329 -122 l 389 0 q 217 -4 279 0 q 226 71 217 39 q 303 85 278 74 q 340 123 329 96 q 350 203 350 150 l 350 864 l 300 864 q 206 844 240 864 q 156 789 172 825 q 126 692 139 753 q 35 707 64 692 q 61 943 61 839 q 442 939 151 939 q 821 943 732 939 z "},"Ț":{"ha":872,"x_min":35,"x_max":838,"o":"m 821 943 q 838 707 817 850 q 743 692 796 690 q 699 822 736 779 q 586 864 663 864 l 528 864 l 528 203 q 537 122 528 149 q 570 85 546 96 q 644 71 594 74 q 654 -4 654 46 q 443 0 569 0 q 217 -4 299 0 q 226 71 217 39 q 303 85 278 74 q 340 123 329 96 q 350 203 350 150 l 350 864 l 300 864 q 206 844 240 864 q 156 789 172 825 q 126 692 139 753 q 35 707 64 692 q 61 943 61 839 q 442 939 151 939 q 821 943 732 939 m 478 -57 q 533 -158 533 -76 q 492 -293 533 -231 q 382 -404 450 -356 q 322 -374 340 -401 q 376 -310 358 -342 q 394 -251 394 -278 q 379 -215 394 -228 q 331 -199 364 -203 q 333 -149 328 -179 q 346 -99 338 -119 q 478 -57 426 -90 z "},"Ṭ":{"ha":872,"x_min":35,"x_max":838,"o":"m 821 943 q 838 707 817 850 q 743 692 796 690 q 699 822 736 779 q 586 864 663 864 l 528 864 l 528 203 q 537 122 528 149 q 570 85 546 96 q 644 71 594 74 q 654 -4 654 46 q 443 0 569 0 q 217 -4 299 0 q 226 71 217 39 q 303 85 278 74 q 340 123 329 96 q 350 203 350 150 l 350 864 l 300 864 q 206 844 240 864 q 156 789 172 825 q 126 692 139 753 q 35 707 64 692 q 61 943 61 839 q 442 939 151 939 q 821 943 732 939 m 431 -303 q 358 -277 386 -303 q 329 -212 329 -251 q 359 -142 329 -169 q 433 -115 389 -115 q 510 -141 482 -115 q 539 -211 539 -167 q 508 -276 539 -250 q 431 -303 478 -303 z "},"Ṯ":{"ha":872,"x_min":35,"x_max":838,"o":"m 821 943 q 838 707 817 850 q 743 692 796 690 q 699 822 736 779 q 586 864 663 864 l 528 864 l 528 203 q 537 122 528 149 q 570 85 546 96 q 644 71 594 74 q 654 -4 654 46 q 443 0 569 0 q 217 -4 299 0 q 226 71 217 39 q 303 85 278 74 q 340 123 329 96 q 350 203 350 150 l 350 864 l 300 864 q 206 844 240 864 q 156 789 172 825 q 126 692 139 753 q 35 707 64 692 q 61 943 61 839 q 442 939 151 939 q 821 943 732 939 m 179 -225 q 183 -187 179 -210 q 192 -151 186 -165 l 693 -151 q 681 -218 693 -189 q 179 -225 457 -218 z "},"U":{"ha":947,"x_min":49,"x_max":896,"o":"m 803 378 q 786 181 803 251 q 722 65 769 111 q 492 -12 643 -12 q 284 24 361 -12 q 174 135 207 61 q 142 325 142 208 l 142 735 q 135 816 142 790 q 111 852 128 842 q 57 868 94 863 q 49 943 49 901 q 218 939 106 939 q 421 943 356 939 q 414 868 421 897 q 352 853 371 863 q 326 817 333 843 q 319 735 319 792 l 319 346 q 368 144 319 215 q 531 74 417 74 q 606 88 568 74 q 668 129 643 101 q 709 213 697 160 q 721 374 721 267 l 721 688 q 713 794 721 758 q 686 847 706 831 q 626 868 667 863 q 619 943 619 907 q 758 939 669 939 q 896 943 842 939 q 888 868 896 914 q 835 848 853 864 q 810 796 818 832 q 803 692 803 760 l 803 378 z "},"Ú":{"ha":947,"x_min":49,"x_max":896,"o":"m 803 378 q 786 181 803 251 q 722 65 769 111 q 492 -12 643 -12 q 284 24 361 -12 q 174 135 207 61 q 142 325 142 208 l 142 735 q 135 816 142 790 q 111 852 128 842 q 57 868 94 863 q 49 943 49 901 q 218 939 106 939 q 421 943 356 939 q 414 868 421 897 q 352 853 371 863 q 326 817 333 843 q 319 735 319 792 l 319 346 q 368 144 319 215 q 531 74 417 74 q 606 88 568 74 q 668 129 643 101 q 709 213 697 160 q 721 374 721 267 l 721 688 q 713 794 721 758 q 686 847 706 831 q 626 868 667 863 q 619 943 619 907 q 758 939 669 939 q 896 943 842 939 q 888 868 896 914 q 835 848 853 864 q 810 796 818 832 q 803 692 803 760 l 803 378 m 540 1018 q 457 1031 489 1018 q 538 1210 507 1122 q 624 1221 582 1221 q 699 1211 669 1221 q 540 1018 607 1106 z "},"Ŭ":{"ha":947,"x_min":49,"x_max":896,"o":"m 803 378 q 786 181 803 251 q 722 65 769 111 q 492 -12 643 -12 q 284 24 361 -12 q 174 135 207 61 q 142 325 142 208 l 142 735 q 135 816 142 790 q 111 852 128 842 q 57 868 94 863 q 49 943 49 901 q 218 939 106 939 q 421 943 356 939 q 414 868 421 897 q 352 853 371 863 q 326 817 333 843 q 319 735 319 792 l 319 346 q 368 144 319 215 q 531 74 417 74 q 606 88 568 74 q 668 129 643 101 q 709 213 697 160 q 721 374 721 267 l 721 688 q 713 794 721 758 q 686 847 706 831 q 626 868 667 863 q 619 943 619 907 q 758 939 669 939 q 896 943 842 939 q 888 868 896 914 q 835 848 853 864 q 810 796 818 832 q 803 692 803 760 l 803 378 m 742 1203 q 684 1058 742 1108 q 518 1008 626 1008 q 355 1056 411 1008 q 299 1197 299 1104 q 388 1211 336 1215 q 433 1140 394 1165 q 532 1115 472 1115 q 626 1140 590 1115 q 665 1211 663 1165 q 688 1213 672 1213 q 742 1203 715 1213 z "},"Ǔ":{"ha":947,"x_min":49,"x_max":896,"o":"m 803 378 q 786 181 803 251 q 722 65 769 111 q 492 -12 643 -12 q 284 24 361 -12 q 174 135 207 61 q 142 325 142 208 l 142 735 q 135 816 142 790 q 111 852 128 842 q 57 868 94 863 q 49 943 49 901 q 218 939 106 939 q 421 943 356 939 q 414 868 421 897 q 352 853 371 863 q 326 817 333 843 q 319 735 319 792 l 319 346 q 368 144 319 215 q 531 74 417 74 q 606 88 568 74 q 668 129 643 101 q 709 213 697 160 q 721 374 721 267 l 721 688 q 713 794 721 758 q 686 847 706 831 q 626 868 667 863 q 619 943 619 907 q 758 939 669 939 q 896 943 842 939 q 888 868 896 914 q 835 848 853 864 q 810 796 818 832 q 803 692 803 760 l 803 378 m 471 1013 q 283 1181 394 1096 q 357 1226 311 1217 q 524 1136 472 1158 q 615 1182 563 1154 q 697 1228 668 1210 q 727 1207 715 1224 q 743 1172 739 1190 q 543 1021 619 1093 q 471 1013 517 1013 z "},"Û":{"ha":947,"x_min":49,"x_max":896,"o":"m 803 378 q 786 181 803 251 q 722 65 769 111 q 492 -12 643 -12 q 284 24 361 -12 q 174 135 207 61 q 142 325 142 208 l 142 735 q 135 816 142 790 q 111 852 128 842 q 57 868 94 863 q 49 943 49 901 q 218 939 106 939 q 421 943 356 939 q 414 868 421 897 q 352 853 371 863 q 326 817 333 843 q 319 735 319 792 l 319 346 q 368 144 319 215 q 531 74 417 74 q 606 88 568 74 q 668 129 643 101 q 709 213 697 160 q 721 374 721 267 l 721 688 q 713 794 721 758 q 686 847 706 831 q 626 868 667 863 q 619 943 619 907 q 758 939 669 939 q 896 943 842 939 q 888 868 896 914 q 835 848 853 864 q 810 796 818 832 q 803 692 803 760 l 803 378 m 335 1011 q 306 1033 318 1015 q 290 1067 294 1050 q 490 1218 414 1146 q 563 1226 517 1226 q 750 1060 640 1142 q 675 1013 724 1024 q 508 1103 568 1076 q 335 1011 388 1044 z "},"Ȕ":{"ha":947,"x_min":49,"x_max":896,"o":"m 803 378 q 786 181 803 251 q 722 65 769 111 q 492 -12 643 -12 q 284 24 361 -12 q 174 135 207 61 q 142 325 142 208 l 142 735 q 135 816 142 790 q 111 852 128 842 q 57 868 94 863 q 49 943 49 901 q 218 939 106 939 q 421 943 356 939 q 414 868 421 897 q 352 853 371 863 q 326 817 333 843 q 319 735 319 792 l 319 346 q 368 144 319 215 q 531 74 417 74 q 606 88 568 74 q 668 129 643 101 q 709 213 697 160 q 721 374 721 267 l 721 688 q 713 794 721 758 q 686 847 706 831 q 626 868 667 863 q 619 943 619 907 q 758 939 669 939 q 896 943 842 939 q 888 868 896 914 q 835 848 853 864 q 810 796 818 832 q 803 692 803 760 l 803 378 m 382 1000 q 228 1174 301 1103 q 296 1194 256 1188 q 376 1197 336 1200 q 465 1013 415 1096 q 382 1000 433 1000 m 613 1000 q 463 1176 538 1100 q 608 1197 517 1203 q 696 1013 650 1089 q 613 1000 664 1000 z "},"Ü":{"ha":947,"x_min":49,"x_max":896,"o":"m 803 378 q 786 181 803 251 q 722 65 769 111 q 492 -12 643 -12 q 284 24 361 -12 q 174 135 207 61 q 142 325 142 208 l 142 735 q 135 816 142 790 q 111 852 128 842 q 57 868 94 863 q 49 943 49 901 q 218 939 106 939 q 421 943 356 939 q 414 868 421 897 q 352 853 371 863 q 326 817 333 843 q 319 735 319 792 l 319 346 q 368 144 319 215 q 531 74 417 74 q 606 88 568 74 q 668 129 643 101 q 709 213 697 160 q 721 374 721 267 l 721 688 q 713 794 721 758 q 686 847 706 831 q 626 868 667 863 q 619 943 619 907 q 758 939 669 939 q 896 943 842 939 q 888 868 896 914 q 835 848 853 864 q 810 796 818 832 q 803 692 803 760 l 803 378 z "},"Ǘ":{"ha":947,"x_min":49,"x_max":896,"o":"m 803 378 q 786 181 803 251 q 722 65 769 111 q 492 -12 643 -12 q 284 24 361 -12 q 174 135 207 61 q 142 325 142 208 l 142 735 q 135 816 142 790 q 111 852 128 842 q 57 868 94 863 q 49 943 49 901 q 218 939 106 939 q 421 943 356 939 q 414 868 421 897 q 352 853 371 863 q 326 817 333 843 q 319 735 319 792 l 319 346 q 368 144 319 215 q 531 74 417 74 q 606 88 568 74 q 668 129 643 101 q 709 213 697 160 q 721 374 721 267 l 721 688 q 713 794 721 758 q 686 847 706 831 q 626 868 667 863 q 619 943 619 907 q 758 939 669 939 q 896 943 842 939 q 888 868 896 914 q 835 848 853 864 q 810 796 818 832 q 803 692 803 760 l 803 378 m 540 1250 q 457 1263 489 1250 q 538 1442 507 1354 q 624 1453 582 1453 q 699 1443 669 1453 q 540 1250 607 1338 z "},"Ǚ":{"ha":947,"x_min":49,"x_max":896,"o":"m 803 378 q 786 181 803 251 q 722 65 769 111 q 492 -12 643 -12 q 284 24 361 -12 q 174 135 207 61 q 142 325 142 208 l 142 735 q 135 816 142 790 q 111 852 128 842 q 57 868 94 863 q 49 943 49 901 q 218 939 106 939 q 421 943 356 939 q 414 868 421 897 q 352 853 371 863 q 326 817 333 843 q 319 735 319 792 l 319 346 q 368 144 319 215 q 531 74 417 74 q 606 88 568 74 q 668 129 643 101 q 709 213 697 160 q 721 374 721 267 l 721 688 q 713 794 721 758 q 686 847 706 831 q 626 868 667 863 q 619 943 619 907 q 758 939 669 939 q 896 943 842 939 q 888 868 896 914 q 835 848 853 864 q 810 796 818 832 q 803 692 803 760 l 803 378 m 471 1244 q 283 1413 394 1328 q 357 1458 311 1449 q 524 1368 472 1390 q 615 1414 563 1386 q 697 1460 668 1442 q 727 1439 715 1456 q 743 1404 739 1422 q 543 1253 619 1325 q 471 1244 517 1244 z "},"Ǜ":{"ha":947,"x_min":49,"x_max":896,"o":"m 803 378 q 786 181 803 251 q 722 65 769 111 q 492 -12 643 -12 q 284 24 361 -12 q 174 135 207 61 q 142 325 142 208 l 142 735 q 135 816 142 790 q 111 852 128 842 q 57 868 94 863 q 49 943 49 901 q 218 939 106 939 q 421 943 356 939 q 414 868 421 897 q 352 853 371 863 q 326 817 333 843 q 319 735 319 792 l 319 346 q 368 144 319 215 q 531 74 417 74 q 606 88 568 74 q 668 129 643 101 q 709 213 697 160 q 721 374 721 267 l 721 688 q 713 794 721 758 q 686 847 706 831 q 626 868 667 863 q 619 943 619 907 q 758 939 669 939 q 896 943 842 939 q 888 868 896 914 q 835 848 853 864 q 810 796 818 832 q 803 692 803 760 l 803 378 m 497 1250 q 347 1425 422 1350 q 496 1447 401 1453 q 585 1263 535 1346 q 497 1250 554 1250 z "},"Ǖ":{"ha":947,"x_min":49,"x_max":896,"o":"m 803 378 q 786 181 803 251 q 722 65 769 111 q 492 -12 643 -12 q 284 24 361 -12 q 174 135 207 61 q 142 325 142 208 l 142 735 q 135 816 142 790 q 111 852 128 842 q 57 868 94 863 q 49 943 49 901 q 218 939 106 939 q 421 943 356 939 q 414 868 421 897 q 352 853 371 863 q 326 817 333 843 q 319 735 319 792 l 319 346 q 368 144 319 215 q 531 74 417 74 q 606 88 568 74 q 668 129 643 101 q 709 213 697 160 q 721 374 721 267 l 721 688 q 713 794 721 758 q 686 847 706 831 q 626 868 667 863 q 619 943 619 907 q 758 939 669 939 q 896 943 842 939 q 888 868 896 914 q 835 848 853 864 q 810 796 818 832 q 803 692 803 760 l 803 378 m 779 1360 q 767 1290 779 1322 q 261 1282 521 1290 q 265 1322 261 1299 q 274 1360 268 1346 l 779 1360 z "},"Ụ":{"ha":947,"x_min":49,"x_max":896,"o":"m 803 378 q 786 181 803 251 q 722 65 769 111 q 492 -12 643 -12 q 284 24 361 -12 q 174 135 207 61 q 142 325 142 208 l 142 735 q 135 816 142 790 q 111 852 128 842 q 57 868 94 863 q 49 943 49 901 q 218 939 106 939 q 421 943 356 939 q 414 868 421 897 q 352 853 371 863 q 326 817 333 843 q 319 735 319 792 l 319 346 q 368 144 319 215 q 531 74 417 74 q 606 88 568 74 q 668 129 643 101 q 709 213 697 160 q 721 374 721 267 l 721 688 q 713 794 721 758 q 686 847 706 831 q 626 868 667 863 q 619 943 619 907 q 758 939 669 939 q 896 943 842 939 q 888 868 896 914 q 835 848 853 864 q 810 796 818 832 q 803 692 803 760 l 803 378 m 479 -303 q 406 -277 435 -303 q 378 -212 378 -251 q 408 -142 378 -169 q 482 -115 438 -115 q 559 -141 531 -115 q 588 -211 588 -167 q 557 -276 588 -250 q 479 -303 526 -303 z "},"Ù":{"ha":947,"x_min":49,"x_max":896,"o":"m 803 378 q 786 181 803 251 q 722 65 769 111 q 492 -12 643 -12 q 284 24 361 -12 q 174 135 207 61 q 142 325 142 208 l 142 735 q 135 816 142 790 q 111 852 128 842 q 57 868 94 863 q 49 943 49 901 q 218 939 106 939 q 421 943 356 939 q 414 868 421 897 q 352 853 371 863 q 326 817 333 843 q 319 735 319 792 l 319 346 q 368 144 319 215 q 531 74 417 74 q 606 88 568 74 q 668 129 643 101 q 709 213 697 160 q 721 374 721 267 l 721 688 q 713 794 721 758 q 686 847 706 831 q 626 868 667 863 q 619 943 619 907 q 758 939 669 939 q 896 943 842 939 q 888 868 896 914 q 835 848 853 864 q 810 796 818 832 q 803 692 803 760 l 803 378 m 497 1018 q 347 1193 422 1118 q 496 1215 401 1221 q 585 1031 535 1114 q 497 1018 554 1018 z "},"Ủ":{"ha":947,"x_min":49,"x_max":896,"o":"m 803 378 q 786 181 803 251 q 722 65 769 111 q 492 -12 643 -12 q 284 24 361 -12 q 174 135 207 61 q 142 325 142 208 l 142 735 q 135 816 142 790 q 111 852 128 842 q 57 868 94 863 q 49 943 49 901 q 218 939 106 939 q 421 943 356 939 q 414 868 421 897 q 352 853 371 863 q 326 817 333 843 q 319 735 319 792 l 319 346 q 368 144 319 215 q 531 74 417 74 q 606 88 568 74 q 668 129 643 101 q 709 213 697 160 q 721 374 721 267 l 721 688 q 713 794 721 758 q 686 847 706 831 q 626 868 667 863 q 619 943 619 907 q 758 939 669 939 q 896 943 842 939 q 888 868 896 914 q 835 848 853 864 q 810 796 818 832 q 803 692 803 760 l 803 378 m 489 1004 q 474 1046 474 1024 q 485 1082 474 1068 q 519 1111 497 1096 q 547 1135 538 1125 q 556 1160 556 1146 q 545 1181 556 1174 q 518 1189 535 1189 q 476 1169 492 1189 q 456 1103 461 1150 q 381 1118 407 1103 q 385 1164 385 1143 q 381 1201 385 1183 q 528 1244 443 1244 q 625 1224 590 1244 q 660 1161 660 1203 q 643 1114 660 1132 q 596 1075 626 1096 q 566 1053 575 1061 q 557 1032 557 1044 q 560 1013 557 1024 q 489 1004 532 1001 z "},"Ư":{"ha":1049,"x_min":49,"x_max":1026,"o":"m 999 1111 q 1026 1021 1026 1068 q 987 919 1026 958 q 888 868 947 879 q 835 848 853 864 q 810 796 818 832 q 803 692 803 760 l 803 378 q 786 181 803 251 q 722 65 769 111 q 492 -12 643 -12 q 284 24 361 -12 q 174 135 207 61 q 142 325 142 208 l 142 735 q 135 816 142 790 q 111 852 128 842 q 57 868 94 863 q 49 943 49 901 q 218 939 106 939 q 421 943 356 939 q 414 868 421 897 q 352 853 371 863 q 326 817 333 843 q 319 735 319 792 l 319 346 q 368 144 319 215 q 531 74 417 74 q 606 88 568 74 q 668 129 643 101 q 709 213 697 160 q 721 374 721 267 l 721 688 q 713 794 721 758 q 686 847 706 831 q 626 868 667 863 q 619 943 619 907 q 758 939 669 939 l 767 939 q 870 960 836 939 q 904 1035 904 982 q 896 1097 904 1060 q 974 1113 929 1113 q 999 1111 990 1113 z "},"Ứ":{"ha":1049,"x_min":49,"x_max":1026,"o":"m 999 1111 q 1026 1021 1026 1068 q 987 919 1026 958 q 888 868 947 879 q 835 848 853 864 q 810 796 818 832 q 803 692 803 760 l 803 378 q 786 181 803 251 q 722 65 769 111 q 492 -12 643 -12 q 284 24 361 -12 q 174 135 207 61 q 142 325 142 208 l 142 735 q 135 816 142 790 q 111 852 128 842 q 57 868 94 863 q 49 943 49 901 q 218 939 106 939 q 421 943 356 939 q 414 868 421 897 q 352 853 371 863 q 326 817 333 843 q 319 735 319 792 l 319 346 q 368 144 319 215 q 531 74 417 74 q 606 88 568 74 q 668 129 643 101 q 709 213 697 160 q 721 374 721 267 l 721 688 q 713 794 721 758 q 686 847 706 831 q 626 868 667 863 q 619 943 619 907 q 758 939 669 939 l 767 939 q 870 960 836 939 q 904 1035 904 982 q 896 1097 904 1060 q 974 1113 929 1113 q 999 1111 990 1113 m 540 1018 q 457 1031 489 1018 q 538 1210 507 1122 q 624 1221 582 1221 q 699 1211 669 1221 q 540 1018 607 1106 z "},"Ự":{"ha":1049,"x_min":49,"x_max":1026,"o":"m 999 1111 q 1026 1021 1026 1068 q 987 919 1026 958 q 888 868 947 879 q 835 848 853 864 q 810 796 818 832 q 803 692 803 760 l 803 378 q 786 181 803 251 q 722 65 769 111 q 492 -12 643 -12 q 284 24 361 -12 q 174 135 207 61 q 142 325 142 208 l 142 735 q 135 816 142 790 q 111 852 128 842 q 57 868 94 863 q 49 943 49 901 q 218 939 106 939 q 421 943 356 939 q 414 868 421 897 q 352 853 371 863 q 326 817 333 843 q 319 735 319 792 l 319 346 q 368 144 319 215 q 531 74 417 74 q 606 88 568 74 q 668 129 643 101 q 709 213 697 160 q 721 374 721 267 l 721 688 q 713 794 721 758 q 686 847 706 831 q 626 868 667 863 q 619 943 619 907 q 758 939 669 939 l 767 939 q 870 960 836 939 q 904 1035 904 982 q 896 1097 904 1060 q 974 1113 929 1113 q 999 1111 990 1113 m 479 -303 q 406 -277 435 -303 q 378 -212 378 -251 q 408 -142 378 -169 q 482 -115 438 -115 q 559 -141 531 -115 q 588 -211 588 -167 q 557 -276 588 -250 q 479 -303 526 -303 z "},"Ừ":{"ha":1049,"x_min":49,"x_max":1026,"o":"m 999 1111 q 1026 1021 1026 1068 q 987 919 1026 958 q 888 868 947 879 q 835 848 853 864 q 810 796 818 832 q 803 692 803 760 l 803 378 q 786 181 803 251 q 722 65 769 111 q 492 -12 643 -12 q 284 24 361 -12 q 174 135 207 61 q 142 325 142 208 l 142 735 q 135 816 142 790 q 111 852 128 842 q 57 868 94 863 q 49 943 49 901 q 218 939 106 939 q 421 943 356 939 q 414 868 421 897 q 352 853 371 863 q 326 817 333 843 q 319 735 319 792 l 319 346 q 368 144 319 215 q 531 74 417 74 q 606 88 568 74 q 668 129 643 101 q 709 213 697 160 q 721 374 721 267 l 721 688 q 713 794 721 758 q 686 847 706 831 q 626 868 667 863 q 619 943 619 907 q 758 939 669 939 l 767 939 q 870 960 836 939 q 904 1035 904 982 q 896 1097 904 1060 q 974 1113 929 1113 q 999 1111 990 1113 m 497 1018 q 347 1193 422 1118 q 496 1215 401 1221 q 585 1031 535 1114 q 497 1018 554 1018 z "},"Ử":{"ha":1049,"x_min":49,"x_max":1026,"o":"m 999 1111 q 1026 1021 1026 1068 q 987 919 1026 958 q 888 868 947 879 q 835 848 853 864 q 810 796 818 832 q 803 692 803 760 l 803 378 q 786 181 803 251 q 722 65 769 111 q 492 -12 643 -12 q 284 24 361 -12 q 174 135 207 61 q 142 325 142 208 l 142 735 q 135 816 142 790 q 111 852 128 842 q 57 868 94 863 q 49 943 49 901 q 218 939 106 939 q 421 943 356 939 q 414 868 421 897 q 352 853 371 863 q 326 817 333 843 q 319 735 319 792 l 319 346 q 368 144 319 215 q 531 74 417 74 q 606 88 568 74 q 668 129 643 101 q 709 213 697 160 q 721 374 721 267 l 721 688 q 713 794 721 758 q 686 847 706 831 q 626 868 667 863 q 619 943 619 907 q 758 939 669 939 l 767 939 q 870 960 836 939 q 904 1035 904 982 q 896 1097 904 1060 q 974 1113 929 1113 q 999 1111 990 1113 m 489 1004 q 474 1046 474 1024 q 485 1082 474 1068 q 519 1111 497 1096 q 547 1135 538 1125 q 556 1160 556 1146 q 545 1181 556 1174 q 518 1189 535 1189 q 476 1169 492 1189 q 456 1103 461 1150 q 381 1118 407 1103 q 385 1164 385 1143 q 381 1201 385 1183 q 528 1244 443 1244 q 625 1224 590 1244 q 660 1161 660 1203 q 643 1114 660 1132 q 596 1075 626 1096 q 566 1053 575 1061 q 557 1032 557 1044 q 560 1013 557 1024 q 489 1004 532 1001 z "},"Ữ":{"ha":1049,"x_min":49,"x_max":1026,"o":"m 999 1111 q 1026 1021 1026 1068 q 987 919 1026 958 q 888 868 947 879 q 835 848 853 864 q 810 796 818 832 q 803 692 803 760 l 803 378 q 786 181 803 251 q 722 65 769 111 q 492 -12 643 -12 q 284 24 361 -12 q 174 135 207 61 q 142 325 142 208 l 142 735 q 135 816 142 790 q 111 852 128 842 q 57 868 94 863 q 49 943 49 901 q 218 939 106 939 q 421 943 356 939 q 414 868 421 897 q 352 853 371 863 q 326 817 333 843 q 319 735 319 792 l 319 346 q 368 144 319 215 q 531 74 417 74 q 606 88 568 74 q 668 129 643 101 q 709 213 697 160 q 721 374 721 267 l 721 688 q 713 794 721 758 q 686 847 706 831 q 626 868 667 863 q 619 943 619 907 q 758 939 669 939 l 767 939 q 870 960 836 939 q 904 1035 904 982 q 896 1097 904 1060 q 974 1113 929 1113 q 999 1111 990 1113 m 596 1033 q 547 1040 568 1033 q 493 1063 526 1047 q 446 1081 464 1075 q 406 1088 428 1088 q 304 1036 351 1088 q 275 1100 276 1061 q 356 1172 311 1150 q 444 1194 400 1194 q 497 1187 474 1194 q 551 1165 519 1179 q 596 1147 578 1153 q 632 1142 614 1142 q 713 1185 676 1142 q 767 1156 747 1179 q 596 1033 701 1033 z "},"Ű":{"ha":947,"x_min":49,"x_max":896,"o":"m 803 378 q 786 181 803 251 q 722 65 769 111 q 492 -12 643 -12 q 284 24 361 -12 q 174 135 207 61 q 142 325 142 208 l 142 735 q 135 816 142 790 q 111 852 128 842 q 57 868 94 863 q 49 943 49 901 q 218 939 106 939 q 421 943 356 939 q 414 868 421 897 q 352 853 371 863 q 326 817 333 843 q 319 735 319 792 l 319 346 q 368 144 319 215 q 531 74 417 74 q 606 88 568 74 q 668 129 643 101 q 709 213 697 160 q 721 374 721 267 l 721 688 q 713 794 721 758 q 686 847 706 831 q 626 868 667 863 q 619 943 619 907 q 758 939 669 939 q 896 943 842 939 q 888 868 896 914 q 835 848 853 864 q 810 796 818 832 q 803 692 803 760 l 803 378 m 418 1018 q 376 1026 397 1019 q 340 1042 354 1032 q 407 1206 376 1114 q 518 1224 456 1224 q 576 1214 557 1224 q 418 1018 486 1114 m 658 1018 q 616 1026 638 1019 q 581 1042 594 1032 q 647 1206 617 1114 q 758 1224 696 1224 q 817 1214 796 1224 q 658 1018 726 1114 z "},"Ȗ":{"ha":947,"x_min":49,"x_max":896,"o":"m 803 378 q 786 181 803 251 q 722 65 769 111 q 492 -12 643 -12 q 284 24 361 -12 q 174 135 207 61 q 142 325 142 208 l 142 735 q 135 816 142 790 q 111 852 128 842 q 57 868 94 863 q 49 943 49 901 q 218 939 106 939 q 421 943 356 939 q 414 868 421 897 q 352 853 371 863 q 326 817 333 843 q 319 735 319 792 l 319 346 q 368 144 319 215 q 531 74 417 74 q 606 88 568 74 q 668 129 643 101 q 709 213 697 160 q 721 374 721 267 l 721 688 q 713 794 721 758 q 686 847 706 831 q 626 868 667 863 q 619 943 619 907 q 758 939 669 939 q 896 943 842 939 q 888 868 896 914 q 835 848 853 864 q 810 796 818 832 q 803 692 803 760 l 803 378 m 299 1017 q 356 1163 299 1113 q 522 1213 414 1213 q 685 1164 629 1213 q 742 1022 742 1115 q 674 1008 710 1008 q 653 1010 660 1008 q 606 1081 644 1056 q 508 1106 568 1106 q 413 1081 449 1106 q 375 1010 376 1056 q 351 1008 367 1008 q 299 1017 319 1008 z "},"Ū":{"ha":947,"x_min":49,"x_max":896,"o":"m 803 378 q 786 181 803 251 q 722 65 769 111 q 492 -12 643 -12 q 284 24 361 -12 q 174 135 207 61 q 142 325 142 208 l 142 735 q 135 816 142 790 q 111 852 128 842 q 57 868 94 863 q 49 943 49 901 q 218 939 106 939 q 421 943 356 939 q 414 868 421 897 q 352 853 371 863 q 326 817 333 843 q 319 735 319 792 l 319 346 q 368 144 319 215 q 531 74 417 74 q 606 88 568 74 q 668 129 643 101 q 709 213 697 160 q 721 374 721 267 l 721 688 q 713 794 721 758 q 686 847 706 831 q 626 868 667 863 q 619 943 619 907 q 758 939 669 939 q 896 943 842 939 q 888 868 896 914 q 835 848 853 864 q 810 796 818 832 q 803 692 803 760 l 803 378 m 779 1128 q 767 1058 779 1090 q 261 1050 521 1058 q 265 1090 261 1067 q 274 1128 268 1114 l 779 1128 z "},"Ṻ":{"ha":947,"x_min":49,"x_max":896,"o":"m 803 378 q 786 181 803 251 q 722 65 769 111 q 492 -12 643 -12 q 284 24 361 -12 q 174 135 207 61 q 142 325 142 208 l 142 735 q 135 816 142 790 q 111 852 128 842 q 57 868 94 863 q 49 943 49 901 q 218 939 106 939 q 421 943 356 939 q 414 868 421 897 q 352 853 371 863 q 326 817 333 843 q 319 735 319 792 l 319 346 q 368 144 319 215 q 531 74 417 74 q 606 88 568 74 q 668 129 643 101 q 709 213 697 160 q 721 374 721 267 l 721 688 q 713 794 721 758 q 686 847 706 831 q 626 868 667 863 q 619 943 619 907 q 758 939 669 939 q 896 943 842 939 q 888 868 896 914 q 835 848 853 864 q 810 796 818 832 q 803 692 803 760 l 803 378 m 779 1128 q 767 1058 779 1090 q 261 1050 521 1058 q 265 1090 261 1067 q 274 1128 268 1114 l 779 1128 z "},"Ų":{"ha":947,"x_min":49,"x_max":896,"o":"m 758 939 q 896 943 842 939 q 888 868 896 914 q 835 848 853 864 q 810 796 818 832 q 803 692 803 760 l 803 378 q 786 181 803 251 q 722 65 769 111 q 685 36 706 49 q 599 -44 626 -4 q 571 -128 571 -83 q 664 -210 571 -210 q 719 -201 696 -210 q 731 -235 726 -214 q 733 -276 735 -257 q 604 -343 657 -301 q 575 -346 593 -346 q 472 -306 518 -346 q 425 -187 425 -267 q 451 -94 425 -137 q 542 -10 476 -51 q 492 -12 511 -12 q 284 24 361 -12 q 174 135 207 61 q 142 325 142 208 l 142 735 q 135 816 142 790 q 111 852 128 842 q 57 868 94 863 q 49 943 49 901 q 218 939 106 939 q 421 943 356 939 q 414 868 421 897 q 352 853 371 863 q 326 817 333 843 q 319 735 319 792 l 319 346 q 368 144 319 215 q 531 74 417 74 q 606 88 568 74 q 668 129 643 101 q 709 213 697 160 q 721 374 721 267 l 721 688 q 713 794 721 758 q 686 847 706 831 q 626 868 667 863 q 619 943 619 907 q 758 939 669 939 z "},"Ů":{"ha":947,"x_min":49,"x_max":896,"o":"m 803 378 q 786 181 803 251 q 722 65 769 111 q 492 -12 643 -12 q 284 24 361 -12 q 174 135 207 61 q 142 325 142 208 l 142 735 q 135 816 142 790 q 111 852 128 842 q 57 868 94 863 q 49 943 49 901 q 218 939 106 939 q 421 943 356 939 q 414 868 421 897 q 352 853 371 863 q 326 817 333 843 q 319 735 319 792 l 319 346 q 368 144 319 215 q 531 74 417 74 q 606 88 568 74 q 668 129 643 101 q 709 213 697 160 q 721 374 721 267 l 721 688 q 713 794 721 758 q 686 847 706 831 q 626 868 667 863 q 619 943 619 907 q 758 939 669 939 q 896 943 842 939 q 888 868 896 914 q 835 848 853 864 q 810 796 818 832 q 803 692 803 760 l 803 378 m 514 1000 q 413 1030 454 1000 q 372 1110 372 1060 q 416 1194 372 1161 q 525 1226 460 1226 q 627 1199 586 1226 q 668 1118 668 1171 q 625 1033 668 1067 q 514 1000 582 1000 m 526 1050 q 563 1066 547 1050 q 578 1107 578 1082 q 561 1158 578 1135 q 515 1182 544 1182 q 478 1164 492 1182 q 464 1115 464 1146 q 481 1068 464 1086 q 526 1050 497 1050 z "},"Ũ":{"ha":947,"x_min":49,"x_max":896,"o":"m 803 378 q 786 181 803 251 q 722 65 769 111 q 492 -12 643 -12 q 284 24 361 -12 q 174 135 207 61 q 142 325 142 208 l 142 735 q 135 816 142 790 q 111 852 128 842 q 57 868 94 863 q 49 943 49 901 q 218 939 106 939 q 421 943 356 939 q 414 868 421 897 q 352 853 371 863 q 326 817 333 843 q 319 735 319 792 l 319 346 q 368 144 319 215 q 531 74 417 74 q 606 88 568 74 q 668 129 643 101 q 709 213 697 160 q 721 374 721 267 l 721 688 q 713 794 721 758 q 686 847 706 831 q 626 868 667 863 q 619 943 619 907 q 758 939 669 939 q 896 943 842 939 q 888 868 896 914 q 835 848 853 864 q 810 796 818 832 q 803 692 803 760 l 803 378 m 596 1033 q 547 1040 568 1033 q 493 1063 526 1047 q 446 1081 464 1075 q 406 1088 428 1088 q 304 1036 351 1088 q 275 1100 276 1061 q 356 1172 311 1150 q 444 1194 400 1194 q 497 1187 474 1194 q 551 1165 519 1179 q 596 1147 578 1153 q 632 1142 614 1142 q 713 1185 676 1142 q 767 1156 747 1179 q 596 1033 701 1033 z "},"Ṹ":{"ha":947,"x_min":49,"x_max":896,"o":"m 803 378 q 786 181 803 251 q 722 65 769 111 q 492 -12 643 -12 q 284 24 361 -12 q 174 135 207 61 q 142 325 142 208 l 142 735 q 135 816 142 790 q 111 852 128 842 q 57 868 94 863 q 49 943 49 901 q 218 939 106 939 q 421 943 356 939 q 414 868 421 897 q 352 853 371 863 q 326 817 333 843 q 319 735 319 792 l 319 346 q 368 144 319 215 q 531 74 417 74 q 606 88 568 74 q 668 129 643 101 q 709 213 697 160 q 721 374 721 267 l 721 688 q 713 794 721 758 q 686 847 706 831 q 626 868 667 863 q 619 943 619 907 q 758 939 669 939 q 896 943 842 939 q 888 868 896 914 q 835 848 853 864 q 810 796 818 832 q 803 692 803 760 l 803 378 m 596 1033 q 547 1040 568 1033 q 493 1063 526 1047 q 446 1081 464 1075 q 406 1088 428 1088 q 304 1036 351 1088 q 275 1100 276 1061 q 356 1172 311 1150 q 444 1194 400 1194 q 497 1187 474 1194 q 551 1165 519 1179 q 596 1147 578 1153 q 632 1142 614 1142 q 713 1185 676 1142 q 767 1156 747 1179 q 596 1033 701 1033 m 540 1258 q 457 1271 489 1258 q 538 1450 507 1363 q 624 1461 582 1461 q 699 1451 669 1461 q 540 1258 607 1346 z "},"V":{"ha":963,"x_min":28,"x_max":935,"o":"m 794 939 q 935 943 881 939 q 925 868 935 910 q 863 825 886 860 q 807 711 839 790 q 518 -1 658 329 q 440 -10 492 -10 q 156 706 279 419 q 107 810 124 779 q 76 852 90 840 q 36 868 61 864 q 28 943 28 894 q 215 939 88 939 q 404 943 308 939 q 397 868 404 900 q 336 853 354 864 q 318 818 318 843 q 349 719 318 792 q 533 233 454 463 q 726 719 650 506 q 742 794 742 765 q 671 868 742 858 q 663 943 663 900 q 794 939 719 939 z "},"W":{"ha":1385,"x_min":28,"x_max":1357,"o":"m 1219 939 q 1357 943 1300 939 q 1346 868 1357 894 q 1304 842 1321 861 q 1271 784 1288 824 q 1231 667 1254 744 l 1022 -3 q 938 -12 994 -12 q 685 667 829 292 l 457 -4 q 369 -12 424 -12 q 146 700 258 356 q 103 813 118 781 q 76 854 89 844 q 36 867 63 864 q 28 943 28 893 q 210 939 94 939 q 400 943 317 939 q 392 868 400 899 q 326 853 344 864 q 307 815 307 843 q 331 718 307 786 q 468 276 396 521 l 697 942 q 776 950 721 950 q 1028 268 906 614 l 1153 669 q 1175 779 1175 743 q 1153 841 1175 821 q 1085 868 1131 861 q 1074 943 1074 897 q 1219 939 1132 939 z "},"Ẃ":{"ha":1385,"x_min":28,"x_max":1357,"o":"m 1219 939 q 1357 943 1300 939 q 1346 868 1357 894 q 1304 842 1321 861 q 1271 784 1288 824 q 1231 667 1254 744 l 1022 -3 q 938 -12 994 -12 q 685 667 829 292 l 457 -4 q 369 -12 424 -12 q 146 700 258 356 q 103 813 118 781 q 76 854 89 844 q 36 867 63 864 q 28 943 28 893 q 210 939 94 939 q 400 943 317 939 q 392 868 400 899 q 326 853 344 864 q 307 815 307 843 q 331 718 307 786 q 468 276 396 521 l 697 942 q 776 950 721 950 q 1028 268 906 614 l 1153 669 q 1175 779 1175 743 q 1153 841 1175 821 q 1085 868 1131 861 q 1074 943 1074 897 q 1219 939 1132 939 m 757 1018 q 674 1031 706 1018 q 754 1210 724 1122 q 840 1221 799 1221 q 915 1211 886 1221 q 757 1018 824 1106 z "},"Ŵ":{"ha":1385,"x_min":28,"x_max":1357,"o":"m 1219 939 q 1357 943 1300 939 q 1346 868 1357 894 q 1304 842 1321 861 q 1271 784 1288 824 q 1231 667 1254 744 l 1022 -3 q 938 -12 994 -12 q 685 667 829 292 l 457 -4 q 369 -12 424 -12 q 146 700 258 356 q 103 813 118 781 q 76 854 89 844 q 36 867 63 864 q 28 943 28 893 q 210 939 94 939 q 400 943 317 939 q 392 868 400 899 q 326 853 344 864 q 307 815 307 843 q 331 718 307 786 q 468 276 396 521 l 697 942 q 776 950 721 950 q 1028 268 906 614 l 1153 669 q 1175 779 1175 743 q 1153 841 1175 821 q 1085 868 1131 861 q 1074 943 1074 897 q 1219 939 1132 939 m 551 1011 q 523 1033 535 1015 q 507 1067 511 1050 q 707 1218 631 1146 q 779 1226 733 1226 q 967 1060 857 1142 q 892 1013 940 1024 q 725 1103 785 1076 q 551 1011 604 1044 z "},"Ẅ":{"ha":1385,"x_min":28,"x_max":1357,"o":"m 1219 939 q 1357 943 1300 939 q 1346 868 1357 894 q 1304 842 1321 861 q 1271 784 1288 824 q 1231 667 1254 744 l 1022 -3 q 938 -12 994 -12 q 685 667 829 292 l 457 -4 q 369 -12 424 -12 q 146 700 258 356 q 103 813 118 781 q 76 854 89 844 q 36 867 63 864 q 28 943 28 893 q 210 939 94 939 q 400 943 317 939 q 392 868 400 899 q 326 853 344 864 q 307 815 307 843 q 331 718 307 786 q 468 276 396 521 l 697 942 q 776 950 721 950 q 1028 268 906 614 l 1153 669 q 1175 779 1175 743 q 1153 841 1175 821 q 1085 868 1131 861 q 1074 943 1074 897 q 1219 939 1132 939 z "},"Ẁ":{"ha":1385,"x_min":28,"x_max":1357,"o":"m 1219 939 q 1357 943 1300 939 q 1346 868 1357 894 q 1304 842 1321 861 q 1271 784 1288 824 q 1231 667 1254 744 l 1022 -3 q 938 -12 994 -12 q 685 667 829 292 l 457 -4 q 369 -12 424 -12 q 146 700 258 356 q 103 813 118 781 q 76 854 89 844 q 36 867 63 864 q 28 943 28 893 q 210 939 94 939 q 400 943 317 939 q 392 868 400 899 q 326 853 344 864 q 307 815 307 843 q 331 718 307 786 q 468 276 396 521 l 697 942 q 776 950 721 950 q 1028 268 906 614 l 1153 669 q 1175 779 1175 743 q 1153 841 1175 821 q 1085 868 1131 861 q 1074 943 1074 897 q 1219 939 1132 939 m 714 1018 q 564 1193 639 1118 q 713 1215 618 1221 q 801 1031 751 1114 q 714 1018 771 1018 z "},"X":{"ha":954,"x_min":47,"x_max":908,"o":"m 899 71 q 908 -4 908 42 q 710 0 849 0 q 517 -3 600 0 q 524 71 517 40 q 568 82 554 75 q 582 107 582 89 q 526 233 582 140 q 439 378 478 315 l 342 235 q 299 165 313 192 q 286 119 286 138 q 302 89 286 100 q 353 71 318 78 q 360 -4 360 42 q 200 0 289 0 q 47 -4 104 0 q 57 74 47 50 q 144 120 101 86 q 238 225 188 154 l 394 449 q 229 706 333 547 q 157 810 181 781 q 118 851 133 840 q 76 867 103 861 q 67 943 67 897 q 274 939 139 939 q 454 942 368 939 q 447 868 454 910 q 401 853 417 863 q 386 824 386 843 q 432 725 386 796 l 531 574 l 615 707 q 665 821 665 789 q 650 853 665 842 q 603 868 635 864 q 594 943 594 896 q 746 939 664 939 q 889 943 838 939 q 882 868 889 893 q 805 826 838 856 q 715 711 772 797 l 576 500 q 725 256 679 335 q 800 142 772 179 q 849 90 828 104 q 899 71 871 75 z "},"Y":{"ha":876,"x_min":28,"x_max":849,"o":"m 726 939 q 849 942 776 939 q 842 871 849 906 q 776 830 806 861 q 715 731 747 799 l 533 353 l 533 242 q 541 134 533 167 q 572 89 549 101 q 650 71 596 76 q 660 -4 660 38 q 444 0 560 0 q 221 -3 329 0 q 232 71 224 44 q 315 88 290 76 q 347 129 339 99 q 356 231 356 160 l 356 351 l 136 786 q 92 849 114 831 q 38 868 71 867 q 28 942 28 897 q 201 939 125 939 q 403 942 356 939 q 394 871 403 904 q 350 856 364 867 q 336 828 336 846 q 360 756 336 803 q 501 446 438 597 q 638 744 576 619 q 661 819 661 794 q 646 853 661 842 q 599 868 631 864 q 588 942 588 906 q 726 939 626 939 z "},"Ý":{"ha":876,"x_min":28,"x_max":849,"o":"m 726 939 q 849 942 776 939 q 842 871 849 906 q 776 830 806 861 q 715 731 747 799 l 533 353 l 533 242 q 541 134 533 167 q 572 89 549 101 q 650 71 596 76 q 660 -4 660 38 q 444 0 560 0 q 221 -3 329 0 q 232 71 224 44 q 315 88 290 76 q 347 129 339 99 q 356 231 356 160 l 356 351 l 136 786 q 92 849 114 831 q 38 868 71 867 q 28 942 28 897 q 201 939 125 939 q 403 942 356 939 q 394 871 403 904 q 350 856 364 867 q 336 828 336 846 q 360 756 336 803 q 501 446 438 597 q 638 744 576 619 q 661 819 661 794 q 646 853 661 842 q 599 868 631 864 q 588 942 588 906 q 726 939 626 939 m 513 1018 q 429 1031 461 1018 q 510 1210 479 1122 q 596 1221 554 1221 q 671 1211 642 1221 q 513 1018 579 1106 z "},"Ŷ":{"ha":876,"x_min":28,"x_max":849,"o":"m 726 939 q 849 942 776 939 q 842 871 849 906 q 776 830 806 861 q 715 731 747 799 l 533 353 l 533 242 q 541 134 533 167 q 572 89 549 101 q 650 71 596 76 q 660 -4 660 38 q 444 0 560 0 q 221 -3 329 0 q 232 71 224 44 q 315 88 290 76 q 347 129 339 99 q 356 231 356 160 l 356 351 l 136 786 q 92 849 114 831 q 38 868 71 867 q 28 942 28 897 q 201 939 125 939 q 403 942 356 939 q 394 871 403 904 q 350 856 364 867 q 336 828 336 846 q 360 756 336 803 q 501 446 438 597 q 638 744 576 619 q 661 819 661 794 q 646 853 661 842 q 599 868 631 864 q 588 942 588 906 q 726 939 626 939 m 306 1011 q 277 1033 289 1015 q 261 1067 265 1050 q 461 1218 385 1146 q 533 1226 488 1226 q 721 1060 611 1142 q 646 1013 694 1024 q 479 1103 539 1076 q 306 1011 358 1044 z "},"Ÿ":{"ha":876,"x_min":28,"x_max":849,"o":"m 726 939 q 849 942 776 939 q 842 871 849 906 q 776 830 806 861 q 715 731 747 799 l 533 353 l 533 242 q 541 134 533 167 q 572 89 549 101 q 650 71 596 76 q 660 -4 660 38 q 444 0 560 0 q 221 -3 329 0 q 232 71 224 44 q 315 88 290 76 q 347 129 339 99 q 356 231 356 160 l 356 351 l 136 786 q 92 849 114 831 q 38 868 71 867 q 28 942 28 897 q 201 939 125 939 q 403 942 356 939 q 394 871 403 904 q 350 856 364 867 q 336 828 336 846 q 360 756 336 803 q 501 446 438 597 q 638 744 576 619 q 661 819 661 794 q 646 853 661 842 q 599 868 631 864 q 588 942 588 906 q 726 939 626 939 z "},"Ẏ":{"ha":876,"x_min":28,"x_max":849,"o":"m 726 939 q 849 942 776 939 q 842 871 849 906 q 776 830 806 861 q 715 731 747 799 l 533 353 l 533 242 q 541 134 533 167 q 572 89 549 101 q 650 71 596 76 q 660 -4 660 38 q 444 0 560 0 q 221 -3 329 0 q 232 71 224 44 q 315 88 290 76 q 347 129 339 99 q 356 231 356 160 l 356 351 l 136 786 q 92 849 114 831 q 38 868 71 867 q 28 942 28 897 q 201 939 125 939 q 403 942 356 939 q 394 871 403 904 q 350 856 364 867 q 336 828 336 846 q 360 756 336 803 q 501 446 438 597 q 638 744 576 619 q 661 819 661 794 q 646 853 661 842 q 599 868 631 864 q 588 942 588 906 q 726 939 626 939 z "},"Ỵ":{"ha":876,"x_min":28,"x_max":849,"o":"m 726 939 q 849 942 776 939 q 842 871 849 906 q 776 830 806 861 q 715 731 747 799 l 533 353 l 533 242 q 541 134 533 167 q 572 89 549 101 q 650 71 596 76 q 660 -4 660 38 q 444 0 560 0 q 221 -3 329 0 q 232 71 224 44 q 315 88 290 76 q 347 129 339 99 q 356 231 356 160 l 356 351 l 136 786 q 92 849 114 831 q 38 868 71 867 q 28 942 28 897 q 201 939 125 939 q 403 942 356 939 q 394 871 403 904 q 350 856 364 867 q 336 828 336 846 q 360 756 336 803 q 501 446 438 597 q 638 744 576 619 q 661 819 661 794 q 646 853 661 842 q 599 868 631 864 q 588 942 588 906 q 726 939 626 939 m 436 -303 q 363 -277 392 -303 q 335 -212 335 -251 q 365 -142 335 -169 q 439 -115 394 -115 q 516 -141 488 -115 q 544 -211 544 -167 q 514 -276 544 -250 q 436 -303 483 -303 z "},"Ỳ":{"ha":876,"x_min":28,"x_max":849,"o":"m 726 939 q 849 942 776 939 q 842 871 849 906 q 776 830 806 861 q 715 731 747 799 l 533 353 l 533 242 q 541 134 533 167 q 572 89 549 101 q 650 71 596 76 q 660 -4 660 38 q 444 0 560 0 q 221 -3 329 0 q 232 71 224 44 q 315 88 290 76 q 347 129 339 99 q 356 231 356 160 l 356 351 l 136 786 q 92 849 114 831 q 38 868 71 867 q 28 942 28 897 q 201 939 125 939 q 403 942 356 939 q 394 871 403 904 q 350 856 364 867 q 336 828 336 846 q 360 756 336 803 q 501 446 438 597 q 638 744 576 619 q 661 819 661 794 q 646 853 661 842 q 599 868 631 864 q 588 942 588 906 q 726 939 626 939 m 468 1018 q 318 1193 393 1118 q 467 1215 372 1221 q 556 1031 506 1114 q 468 1018 525 1018 z "},"Ỷ":{"ha":876,"x_min":28,"x_max":849,"o":"m 726 939 q 849 942 776 939 q 842 871 849 906 q 776 830 806 861 q 715 731 747 799 l 533 353 l 533 242 q 541 134 533 167 q 572 89 549 101 q 650 71 596 76 q 660 -4 660 38 q 444 0 560 0 q 221 -3 329 0 q 232 71 224 44 q 315 88 290 76 q 347 129 339 99 q 356 231 356 160 l 356 351 l 136 786 q 92 849 114 831 q 38 868 71 867 q 28 942 28 897 q 201 939 125 939 q 403 942 356 939 q 394 871 403 904 q 350 856 364 867 q 336 828 336 846 q 360 756 336 803 q 501 446 438 597 q 638 744 576 619 q 661 819 661 794 q 646 853 661 842 q 599 868 631 864 q 588 942 588 906 q 726 939 626 939 m 461 1004 q 446 1046 446 1024 q 458 1082 446 1068 q 492 1111 469 1096 q 519 1135 510 1125 q 528 1160 528 1146 q 517 1181 528 1174 q 490 1189 507 1189 q 449 1169 464 1189 q 428 1103 433 1150 q 353 1118 379 1103 q 357 1164 357 1143 q 353 1201 357 1183 q 500 1244 415 1244 q 597 1224 563 1244 q 632 1161 632 1203 q 615 1114 632 1132 q 568 1075 599 1096 q 538 1053 547 1061 q 529 1032 529 1044 q 532 1013 529 1024 q 461 1004 504 1001 z "},"Ȳ":{"ha":876,"x_min":28,"x_max":849,"o":"m 726 939 q 849 942 776 939 q 842 871 849 906 q 776 830 806 861 q 715 731 747 799 l 533 353 l 533 242 q 541 134 533 167 q 572 89 549 101 q 650 71 596 76 q 660 -4 660 38 q 444 0 560 0 q 221 -3 329 0 q 232 71 224 44 q 315 88 290 76 q 347 129 339 99 q 356 231 356 160 l 356 351 l 136 786 q 92 849 114 831 q 38 868 71 867 q 28 942 28 897 q 201 939 125 939 q 403 942 356 939 q 394 871 403 904 q 350 856 364 867 q 336 828 336 846 q 360 756 336 803 q 501 446 438 597 q 638 744 576 619 q 661 819 661 794 q 646 853 661 842 q 599 868 631 864 q 588 942 588 906 q 726 939 626 939 m 751 1128 q 739 1058 751 1090 q 233 1050 493 1058 q 237 1090 233 1067 q 246 1128 240 1114 l 751 1128 z "},"Ỹ":{"ha":876,"x_min":28,"x_max":849,"o":"m 726 939 q 849 942 776 939 q 842 871 849 906 q 776 830 806 861 q 715 731 747 799 l 533 353 l 533 242 q 541 134 533 167 q 572 89 549 101 q 650 71 596 76 q 660 -4 660 38 q 444 0 560 0 q 221 -3 329 0 q 232 71 224 44 q 315 88 290 76 q 347 129 339 99 q 356 231 356 160 l 356 351 l 136 786 q 92 849 114 831 q 38 868 71 867 q 28 942 28 897 q 201 939 125 939 q 403 942 356 939 q 394 871 403 904 q 350 856 364 867 q 336 828 336 846 q 360 756 336 803 q 501 446 438 597 q 638 744 576 619 q 661 819 661 794 q 646 853 661 842 q 599 868 631 864 q 588 942 588 906 q 726 939 626 939 m 567 1033 q 518 1040 539 1033 q 464 1063 497 1047 q 417 1081 435 1075 q 376 1088 399 1088 q 275 1036 322 1088 q 246 1100 247 1061 q 326 1172 282 1150 q 415 1194 371 1194 q 467 1187 444 1194 q 522 1165 490 1179 q 567 1147 549 1153 q 603 1142 585 1142 q 683 1185 647 1142 q 738 1156 718 1179 q 567 1033 672 1033 z "},"Z":{"ha":857,"x_min":68,"x_max":783,"o":"m 686 254 q 783 225 746 250 q 764 114 772 178 q 754 -4 756 50 q 393 0 626 0 q 85 -4 183 0 q 68 58 68 25 l 115 136 q 337 511 225 321 q 540 868 449 701 l 385 868 q 292 853 326 868 q 237 799 258 839 q 199 682 215 760 q 97 699 129 682 q 119 814 111 747 q 126 942 126 881 q 461 939 249 939 q 740 942 647 939 q 761 879 760 915 q 293 74 515 431 l 453 74 q 578 88 535 74 q 645 139 621 101 q 686 254 669 176 z "},"Ź":{"ha":857,"x_min":68,"x_max":783,"o":"m 686 254 q 783 225 746 250 q 764 114 772 178 q 754 -4 756 50 q 393 0 626 0 q 85 -4 183 0 q 68 58 68 25 l 115 136 q 337 511 225 321 q 540 868 449 701 l 385 868 q 292 853 326 868 q 237 799 258 839 q 199 682 215 760 q 97 699 129 682 q 119 814 111 747 q 126 942 126 881 q 461 939 249 939 q 740 942 647 939 q 761 879 760 915 q 293 74 515 431 l 453 74 q 578 88 535 74 q 645 139 621 101 q 686 254 669 176 m 465 1018 q 382 1031 414 1018 q 463 1210 432 1122 q 549 1221 507 1221 q 624 1211 594 1221 q 465 1018 532 1106 z "},"Ž":{"ha":857,"x_min":68,"x_max":783,"o":"m 686 254 q 783 225 746 250 q 764 114 772 178 q 754 -4 756 50 q 393 0 626 0 q 85 -4 183 0 q 68 58 68 25 l 115 136 q 337 511 225 321 q 540 868 449 701 l 385 868 q 292 853 326 868 q 237 799 258 839 q 199 682 215 760 q 97 699 129 682 q 119 814 111 747 q 126 942 126 881 q 461 939 249 939 q 740 942 647 939 q 761 879 760 915 q 293 74 515 431 l 453 74 q 578 88 535 74 q 645 139 621 101 q 686 254 669 176 m 396 1013 q 208 1181 319 1096 q 282 1226 236 1217 q 449 1136 397 1158 q 540 1182 488 1154 q 622 1228 593 1210 q 652 1207 640 1224 q 668 1172 664 1190 q 468 1021 544 1093 q 396 1013 442 1013 z "},"Ẑ":{"ha":857,"x_min":68,"x_max":783,"o":"m 686 254 q 783 225 746 250 q 764 114 772 178 q 754 -4 756 50 q 393 0 626 0 q 85 -4 183 0 q 68 58 68 25 l 115 136 q 337 511 225 321 q 540 868 449 701 l 385 868 q 292 853 326 868 q 237 799 258 839 q 199 682 215 760 q 97 699 129 682 q 119 814 111 747 q 126 942 126 881 q 461 939 249 939 q 740 942 647 939 q 761 879 760 915 q 293 74 515 431 l 453 74 q 578 88 535 74 q 645 139 621 101 q 686 254 669 176 m 260 1011 q 231 1033 243 1015 q 215 1067 219 1050 q 415 1218 339 1146 q 488 1226 442 1226 q 675 1060 565 1142 q 600 1013 649 1024 q 433 1103 493 1076 q 260 1011 313 1044 z "},"Ż":{"ha":857,"x_min":68,"x_max":783,"o":"m 686 254 q 783 225 746 250 q 764 114 772 178 q 754 -4 756 50 q 393 0 626 0 q 85 -4 183 0 q 68 58 68 25 l 115 136 q 337 511 225 321 q 540 868 449 701 l 385 868 q 292 853 326 868 q 237 799 258 839 q 199 682 215 760 q 97 699 129 682 q 119 814 111 747 q 126 942 126 881 q 461 939 249 939 q 740 942 647 939 q 761 879 760 915 q 293 74 515 431 l 453 74 q 578 88 535 74 q 645 139 621 101 q 686 254 669 176 z "},"Ẓ":{"ha":857,"x_min":68,"x_max":783,"o":"m 686 254 q 783 225 746 250 q 764 114 772 178 q 754 -4 756 50 q 393 0 626 0 q 85 -4 183 0 q 68 58 68 25 l 115 136 q 337 511 225 321 q 540 868 449 701 l 385 868 q 292 853 326 868 q 237 799 258 839 q 199 682 215 760 q 97 699 129 682 q 119 814 111 747 q 126 942 126 881 q 461 939 249 939 q 740 942 647 939 q 761 879 760 915 q 293 74 515 431 l 453 74 q 578 88 535 74 q 645 139 621 101 q 686 254 669 176 m 424 -303 q 351 -277 379 -303 q 322 -212 322 -251 q 352 -142 322 -169 q 426 -115 382 -115 q 503 -141 475 -115 q 532 -211 532 -167 q 501 -276 532 -250 q 424 -303 471 -303 z "},"a":{"ha":732,"x_min":58,"x_max":689,"o":"m 689 92 q 678 32 689 61 q 583 18 632 29 q 494 -12 533 7 q 464 15 474 -4 q 454 68 454 33 q 458 115 454 90 q 404 39 438 67 q 249 -10 347 -10 q 108 30 157 -10 q 58 143 58 69 q 167 310 58 261 q 435 382 276 360 q 428 484 435 453 q 404 538 422 515 q 324 575 375 575 q 240 528 267 575 q 208 418 214 482 q 111 429 138 418 q 113 475 113 444 q 103 590 113 540 q 231 633 161 617 q 364 649 301 649 q 544 590 486 649 q 590 504 576 558 q 604 356 604 450 l 604 222 q 610 154 604 176 q 634 122 617 132 q 688 111 651 113 l 689 92 m 435 314 q 284 271 336 299 q 232 176 232 243 q 253 112 232 133 q 306 90 274 90 q 366 110 336 90 q 415 172 396 131 q 435 271 435 213 l 435 314 z "},"á":{"ha":732,"x_min":58,"x_max":689,"o":"m 689 92 q 678 32 689 61 q 583 18 632 29 q 494 -12 533 7 q 464 15 474 -4 q 454 68 454 33 q 458 115 454 90 q 404 39 438 67 q 249 -10 347 -10 q 108 30 157 -10 q 58 143 58 69 q 167 310 58 261 q 435 382 276 360 q 428 484 435 453 q 404 538 422 515 q 324 575 375 575 q 240 528 267 575 q 208 418 214 482 q 111 429 138 418 q 113 475 113 444 q 103 590 113 540 q 231 633 161 617 q 364 649 301 649 q 544 590 486 649 q 590 504 576 558 q 604 356 604 450 l 604 222 q 610 154 604 176 q 634 122 617 132 q 688 111 651 113 l 689 92 m 435 314 q 284 271 336 299 q 232 176 232 243 q 253 112 232 133 q 306 90 274 90 q 366 110 336 90 q 415 172 396 131 q 435 271 435 213 l 435 314 m 372 738 q 331 740 353 736 q 294 751 308 744 q 383 983 358 883 q 499 1000 436 1003 q 554 992 524 1000 q 372 738 463 886 z "}}}
